<svg xmlns="http://www.w3.org/2000/svg" xmlns:xlink="http://www.w3.org/1999/xlink" width="400" zoomAndPan="magnify" viewBox="0 0 300 36" height="50" preserveAspectRatio="xMidYMid meet" version="1.0"><defs><g/></defs><g fill="#ffffff" fill-opacity="1"><g transform="translate(6.886531, 29.891233)"><g><path d="M 5.6875 1.390625 C 5.75 1.253906 5.753906 1.171875 5.703125 1.140625 C 5.660156 1.109375 5.59375 1.09375 5.5 1.09375 C 5.414062 1.09375 5.375 1.101562 5.375 1.125 C 5.375 1.21875 5.40625 1.3125 5.46875 1.40625 C 5.539062 1.507812 5.613281 1.503906 5.6875 1.390625 Z M 10.234375 -7.921875 C 10.234375 -8.015625 10.191406 -8.0625 10.109375 -8.0625 C 9.992188 -8.0625 9.9375 -8.015625 9.9375 -7.921875 C 9.9375 -7.804688 9.992188 -7.75 10.109375 -7.75 C 10.191406 -7.75 10.234375 -7.804688 10.234375 -7.921875 Z M 12.859375 -5.0625 C 12.859375 -5.113281 13.019531 -5.316406 13.34375 -5.671875 C 13.675781 -6.035156 13.84375 -6.234375 13.84375 -6.265625 C 13.84375 -6.328125 14.035156 -6.550781 14.421875 -6.9375 C 15.191406 -7.75 15.578125 -8.40625 15.578125 -8.90625 C 15.578125 -9.070312 15.828125 -9.40625 16.328125 -9.90625 C 16.734375 -10.289062 16.992188 -10.601562 17.109375 -10.84375 C 17.222656 -11.09375 17.4375 -11.742188 17.75 -12.796875 C 17.84375 -13.109375 18.046875 -13.664062 18.359375 -14.46875 C 18.679688 -15.28125 18.863281 -15.988281 18.90625 -16.59375 L 18.984375 -17.625 L 18.53125 -17.859375 C 18.257812 -18.035156 17.488281 -18.148438 16.21875 -18.203125 C 15.925781 -18.222656 15.5 -18.234375 14.9375 -18.234375 C 14.300781 -18.234375 13.925781 -18.222656 13.8125 -18.203125 C 13.71875 -18.179688 13.5 -18.171875 13.15625 -18.171875 C 12.800781 -18.171875 12.53125 -18.179688 12.34375 -18.203125 C 12.1875 -18.203125 11.972656 -18.210938 11.703125 -18.234375 C 11.429688 -18.253906 11.117188 -18.28125 10.765625 -18.3125 C 10.410156 -18.351562 10.132812 -18.382812 9.9375 -18.40625 C 8.53125 -18.488281 7.597656 -18.75 7.140625 -19.1875 C 6.941406 -19.363281 6.738281 -19.632812 6.53125 -20 C 6.320312 -20.363281 6.21875 -20.632812 6.21875 -20.8125 C 6.21875 -21 6.320312 -21.257812 6.53125 -21.59375 C 6.738281 -21.9375 6.929688 -22.1875 7.109375 -22.34375 C 7.628906 -22.800781 8.390625 -23.085938 9.390625 -23.203125 C 9.910156 -23.265625 10.765625 -23.382812 11.953125 -23.5625 C 13.148438 -23.75 14.191406 -23.882812 15.078125 -23.96875 C 15.972656 -24.0625 16.863281 -24.109375 17.75 -24.109375 C 18.226562 -24.109375 18.59375 -24.097656 18.84375 -24.078125 C 22.039062 -23.992188 24.988281 -23.800781 27.6875 -23.5 C 29.070312 -23.382812 29.96875 -23.191406 30.375 -22.921875 C 31.125 -22.472656 31.5 -21.875 31.5 -21.125 C 31.5 -20.988281 31.488281 -20.882812 31.46875 -20.8125 C 31.28125 -20.132812 30.828125 -19.429688 30.109375 -18.703125 L 29.484375 -18.09375 L 28.296875 -17.953125 C 27.710938 -17.910156 27.304688 -17.890625 27.078125 -17.890625 C 26.984375 -17.890625 26.867188 -17.894531 26.734375 -17.90625 C 26.597656 -17.914062 26.484375 -17.921875 26.390625 -17.921875 C 25.328125 -17.921875 24.554688 -17.707031 24.078125 -17.28125 C 23.878906 -17.101562 23.484375 -16.445312 22.890625 -15.3125 C 22.304688 -14.175781 21.863281 -13.210938 21.5625 -12.421875 C 21.5 -12.285156 21.410156 -12.050781 21.296875 -11.71875 C 21.179688 -11.382812 21.09375 -11.144531 21.03125 -11 C 20.976562 -10.851562 20.890625 -10.671875 20.765625 -10.453125 C 20.640625 -10.242188 20.507812 -10.0625 20.375 -9.90625 C 20.144531 -9.625 20.03125 -9.441406 20.03125 -9.359375 C 20.03125 -9.222656 19.832031 -8.660156 19.4375 -7.671875 C 19.039062 -6.679688 18.796875 -6.144531 18.703125 -6.0625 C 18.566406 -5.914062 18.429688 -5.609375 18.296875 -5.140625 C 18.117188 -4.617188 17.972656 -4.265625 17.859375 -4.078125 C 17.722656 -3.828125 17.65625 -3.644531 17.65625 -3.53125 C 17.65625 -3.425781 17.414062 -2.984375 16.9375 -2.203125 C 16.457031 -1.429688 16.0625 -0.832031 15.75 -0.40625 C 15.207031 0.289062 14.753906 0.832031 14.390625 1.21875 C 14.066406 1.582031 13.578125 2.007812 12.921875 2.5 C 12.265625 2.988281 11.742188 3.320312 11.359375 3.5 C 11.085938 3.613281 10.601562 3.671875 9.90625 3.671875 C 9.15625 3.671875 8.460938 3.613281 7.828125 3.5 C 7.597656 3.457031 7.1875 3.390625 6.59375 3.296875 C 5.894531 3.203125 5.097656 2.734375 4.203125 1.890625 C 3.304688 1.054688 2.628906 0.15625 2.171875 -0.8125 C 1.992188 -1.21875 1.90625 -1.863281 1.90625 -2.75 C 1.90625 -3.019531 1.925781 -3.296875 1.96875 -3.578125 C 2.269531 -5.023438 2.5 -5.875 2.65625 -6.125 C 2.851562 -6.46875 3 -6.84375 3.09375 -7.25 C 3.207031 -7.75 3.503906 -8.257812 3.984375 -8.78125 C 5.023438 -10 5.816406 -10.722656 6.359375 -10.953125 C 6.472656 -11.023438 6.6875 -11.160156 7 -11.359375 C 7.320312 -11.566406 7.597656 -11.710938 7.828125 -11.796875 C 8.078125 -11.910156 8.234375 -12.003906 8.296875 -12.078125 C 8.453125 -12.304688 9.085938 -12.546875 10.203125 -12.796875 C 10.773438 -12.898438 11.265625 -12.953125 11.671875 -12.953125 C 12.210938 -12.953125 12.664062 -12.875 13.03125 -12.71875 C 13.84375 -12.3125 14.25 -11.710938 14.25 -10.921875 C 14.25 -10.785156 14.238281 -10.679688 14.21875 -10.609375 C 14.175781 -10.359375 14 -10.070312 13.6875 -9.75 C 13.382812 -9.4375 13.085938 -9.238281 12.796875 -9.15625 C 12.546875 -9.082031 12.363281 -9.015625 12.25 -8.953125 C 12.132812 -8.898438 11.972656 -8.796875 11.765625 -8.640625 C 11.566406 -8.484375 11.375 -8.347656 11.1875 -8.234375 C 10.53125 -7.796875 10.113281 -7.476562 9.9375 -7.28125 C 9.707031 -7.007812 9.535156 -6.875 9.421875 -6.875 C 9.328125 -6.875 9.054688 -6.6875 8.609375 -6.3125 C 8.171875 -5.9375 7.953125 -5.710938 7.953125 -5.640625 C 7.953125 -5.554688 7.898438 -5.398438 7.796875 -5.171875 C 7.585938 -4.671875 7.445312 -4.273438 7.375 -3.984375 L 7.375 -3.734375 C 7.375 -2.785156 7.476562 -2.207031 7.6875 -2 C 7.800781 -1.894531 8.117188 -1.84375 8.640625 -1.84375 L 9.015625 -1.84375 C 9.328125 -1.84375 9.632812 -1.929688 9.9375 -2.109375 C 10.1875 -2.265625 10.734375 -2.765625 11.578125 -3.609375 C 12.429688 -4.460938 12.859375 -4.945312 12.859375 -5.0625 Z M 12.859375 -5.0625 "/></g></g></g><g fill="#ffffff" fill-opacity="1"><g transform="translate(38.653847, 29.891233)"><g><path d="M 16.96875 -11.5 C 16.96875 -11.65625 16.910156 -11.734375 16.796875 -11.734375 C 16.691406 -11.734375 16.640625 -11.65625 16.640625 -11.5 C 16.640625 -11.363281 16.691406 -11.296875 16.796875 -11.296875 C 16.910156 -11.296875 16.96875 -11.363281 16.96875 -11.5 Z M 12.625 -16.90625 C 12.625 -16.925781 12.539062 -16.9375 12.375 -16.9375 C 12.195312 -16.9375 12.164062 -16.90625 12.28125 -16.84375 C 12.457031 -16.769531 12.570312 -16.789062 12.625 -16.90625 Z M 8.703125 -7.953125 C 8.703125 -7.867188 8.628906 -7.65625 8.484375 -7.3125 C 8.335938 -6.96875 8.265625 -6.753906 8.265625 -6.671875 C 8.265625 -6.460938 8.195312 -6.289062 8.0625 -6.15625 C 7.90625 -6 7.828125 -5.875 7.828125 -5.78125 C 7.828125 -5.6875 7.78125 -5.609375 7.6875 -5.546875 C 7.570312 -5.472656 7.492188 -5.300781 7.453125 -5.03125 C 7.429688 -4.894531 7.328125 -4.664062 7.140625 -4.34375 C 6.960938 -4.03125 6.875 -3.796875 6.875 -3.640625 C 6.875 -3.484375 6.789062 -3.34375 6.625 -3.21875 C 6.46875 -3.09375 6.28125 -3.03125 6.0625 -3.03125 C 5.625 -3.03125 5.304688 -2.859375 5.109375 -2.515625 C 4.941406 -2.285156 4.691406 -2.304688 4.359375 -2.578125 C 4.191406 -2.691406 4.003906 -2.765625 3.796875 -2.796875 C 3.597656 -2.835938 3.476562 -2.8125 3.4375 -2.71875 C 3.414062 -2.65625 3.234375 -2.625 2.890625 -2.625 C 2.503906 -2.625 2.265625 -2.664062 2.171875 -2.75 C 2.015625 -2.863281 1.9375 -2.976562 1.9375 -3.09375 C 1.9375 -3.613281 2.222656 -4.441406 2.796875 -5.578125 C 2.898438 -5.753906 2.953125 -5.898438 2.953125 -6.015625 C 2.953125 -6.085938 3.015625 -6.21875 3.140625 -6.40625 C 3.265625 -6.601562 3.328125 -6.769531 3.328125 -6.90625 C 3.328125 -7.0625 3.410156 -7.34375 3.578125 -7.75 C 3.753906 -8.164062 3.851562 -8.414062 3.875 -8.5 C 3.925781 -8.800781 4.070312 -9.222656 4.3125 -9.765625 C 4.59375 -10.347656 4.84375 -10.984375 5.0625 -11.671875 C 5.5625 -13.191406 5.925781 -14.117188 6.15625 -14.453125 C 6.332031 -14.773438 6.421875 -14.957031 6.421875 -15 C 6.421875 -15.113281 6.5625 -15.507812 6.84375 -16.1875 C 7.476562 -17.613281 7.828125 -18.554688 7.890625 -19.015625 C 7.929688 -19.285156 8.007812 -19.566406 8.125 -19.859375 C 8.238281 -20.160156 8.320312 -20.410156 8.375 -20.609375 C 8.457031 -20.992188 8.535156 -21.210938 8.609375 -21.265625 C 8.671875 -21.285156 8.703125 -21.382812 8.703125 -21.5625 C 8.703125 -21.75 8.734375 -21.851562 8.796875 -21.875 C 8.867188 -21.894531 8.90625 -22.097656 8.90625 -22.484375 C 8.90625 -22.734375 8.890625 -22.882812 8.859375 -22.9375 C 8.828125 -23 8.742188 -23.050781 8.609375 -23.09375 C 8.421875 -23.113281 8.257812 -23.273438 8.125 -23.578125 L 7.921875 -24.015625 L 8.234375 -24.421875 C 8.429688 -24.710938 8.578125 -24.859375 8.671875 -24.859375 C 8.765625 -24.859375 8.925781 -24.914062 9.15625 -25.03125 C 9.332031 -25.125 9.59375 -25.191406 9.9375 -25.234375 C 10.1875 -25.265625 10.457031 -25.425781 10.75 -25.71875 C 11.226562 -26.195312 11.660156 -26.4375 12.046875 -26.4375 C 12.085938 -26.4375 12.117188 -26.421875 12.140625 -26.390625 C 12.234375 -26.347656 12.300781 -26.347656 12.34375 -26.390625 C 12.394531 -26.441406 12.453125 -26.507812 12.515625 -26.59375 C 12.585938 -26.6875 12.644531 -26.734375 12.6875 -26.734375 C 12.757812 -26.734375 12.863281 -26.828125 13 -27.015625 C 13.082031 -27.171875 13.207031 -27.25 13.375 -27.25 C 13.664062 -27.25 13.867188 -26.941406 13.984375 -26.328125 C 14.003906 -26.234375 14.035156 -26.054688 14.078125 -25.796875 C 14.128906 -25.535156 14.171875 -25.289062 14.203125 -25.0625 C 14.234375 -24.84375 14.25 -24.640625 14.25 -24.453125 C 14.25 -24.160156 14.191406 -23.925781 14.078125 -23.75 C 13.960938 -23.582031 13.90625 -23.375 13.90625 -23.125 C 13.90625 -22.601562 13.710938 -21.890625 13.328125 -20.984375 C 13.191406 -20.710938 13.054688 -20.273438 12.921875 -19.671875 C 12.785156 -19.078125 12.660156 -18.65625 12.546875 -18.40625 C 12.367188 -18 12.28125 -17.738281 12.28125 -17.625 C 12.28125 -17.53125 12.3125 -17.460938 12.375 -17.421875 C 12.625 -17.253906 13.191406 -17.148438 14.078125 -17.109375 C 14.941406 -17.046875 15.519531 -16.875 15.8125 -16.59375 C 16.789062 -15.757812 17.28125 -15.195312 17.28125 -14.90625 C 17.28125 -14.675781 17.335938 -14.523438 17.453125 -14.453125 C 17.703125 -14.253906 17.828125 -13.800781 17.828125 -13.09375 C 17.828125 -12.726562 17.859375 -12.242188 17.921875 -11.640625 C 17.972656 -11.046875 18 -10.726562 18 -10.6875 C 18 -10.4375 17.960938 -10.207031 17.890625 -10 C 17.503906 -8.84375 17.3125 -7.914062 17.3125 -7.21875 C 17.3125 -7.050781 17.390625 -6.96875 17.546875 -6.96875 C 17.773438 -6.96875 18.195312 -7.148438 18.8125 -7.515625 C 18.90625 -7.554688 18.960938 -7.578125 18.984375 -7.578125 C 19.066406 -7.578125 19.347656 -7.441406 19.828125 -7.171875 C 20.535156 -6.742188 20.890625 -6.242188 20.890625 -5.671875 C 20.890625 -5.109375 20.648438 -4.671875 20.171875 -4.359375 C 19.515625 -3.898438 18.695312 -3.671875 17.71875 -3.671875 C 17.0625 -3.671875 16.425781 -3.582031 15.8125 -3.40625 C 15.207031 -3.238281 14.609375 -3.15625 14.015625 -3.15625 L 13.5 -3.15625 C 13 -3.15625 12.679688 -3.226562 12.546875 -3.375 C 12.429688 -3.507812 12.285156 -3.578125 12.109375 -3.578125 C 11.609375 -3.578125 11.328125 -3.769531 11.265625 -4.15625 C 11.234375 -4.289062 11.207031 -4.445312 11.1875 -4.625 C 11.164062 -4.800781 11.148438 -4.941406 11.140625 -5.046875 C 11.128906 -5.148438 11.125 -5.238281 11.125 -5.3125 C 11.125 -5.46875 11.179688 -5.625 11.296875 -5.78125 C 11.429688 -5.96875 11.53125 -6.296875 11.59375 -6.765625 C 11.625 -7.242188 11.75 -7.695312 11.96875 -8.125 C 12.332031 -8.851562 12.515625 -9.707031 12.515625 -10.6875 C 12.515625 -11.5 12.253906 -11.960938 11.734375 -12.078125 L 11.59375 -12.078125 C 11.03125 -12.078125 10.671875 -11.90625 10.515625 -11.5625 C 9.765625 -10.382812 9.285156 -9.457031 9.078125 -8.78125 C 8.941406 -8.414062 8.851562 -8.222656 8.8125 -8.203125 C 8.738281 -8.171875 8.703125 -8.085938 8.703125 -7.953125 Z M 8.703125 -7.953125 "/></g></g></g><g fill="#ffffff" fill-opacity="1"><g transform="translate(59.673293, 29.891233)"><g><path d="M 5.921875 -5.4375 C 5.921875 -5.53125 5.882812 -5.59375 5.8125 -5.625 C 5.75 -5.664062 5.691406 -5.660156 5.640625 -5.609375 C 5.578125 -5.546875 5.554688 -5.472656 5.578125 -5.390625 C 5.597656 -5.304688 5.65625 -5.265625 5.75 -5.265625 C 5.863281 -5.265625 5.921875 -5.320312 5.921875 -5.4375 Z M 9.796875 -12.046875 C 9.835938 -12.179688 9.859375 -12.269531 9.859375 -12.3125 C 9.859375 -12.65625 9.628906 -12.960938 9.171875 -13.234375 C 8.722656 -13.503906 8.25 -13.640625 7.75 -13.640625 L 7.109375 -13.640625 L 6.421875 -12.921875 C 5.992188 -12.472656 5.800781 -12.203125 5.84375 -12.109375 C 5.9375 -11.992188 6.695312 -11.90625 8.125 -11.84375 L 9.6875 -11.765625 Z M 3.5 -15 C 3.90625 -15.675781 4.617188 -16.320312 5.640625 -16.9375 C 6.660156 -17.550781 7.648438 -17.859375 8.609375 -17.859375 L 8.640625 -17.859375 C 8.753906 -17.859375 9.066406 -17.765625 9.578125 -17.578125 C 10.085938 -17.398438 10.398438 -17.28125 10.515625 -17.21875 C 10.628906 -17.101562 10.765625 -17.046875 10.921875 -17.046875 C 11.035156 -17.046875 11.226562 -16.898438 11.5 -16.609375 C 11.769531 -16.328125 11.90625 -16.117188 11.90625 -15.984375 C 11.90625 -15.867188 11.960938 -15.78125 12.078125 -15.71875 C 12.503906 -15.351562 12.765625 -14.582031 12.859375 -13.40625 C 12.898438 -12.8125 12.953125 -12.488281 13.015625 -12.4375 C 13.085938 -12.394531 13.125 -12.257812 13.125 -12.03125 C 13.125 -11.8125 13.085938 -11.675781 13.015625 -11.625 C 12.953125 -11.582031 12.921875 -11.503906 12.921875 -11.390625 C 12.921875 -11.273438 12.863281 -11.164062 12.75 -11.0625 C 12.664062 -10.988281 12.625 -10.816406 12.625 -10.546875 C 12.625 -10.046875 12.453125 -9.632812 12.109375 -9.3125 C 11.765625 -9 11.207031 -8.738281 10.4375 -8.53125 C 10.28125 -8.488281 10.125 -8.46875 9.96875 -8.46875 C 9.894531 -8.46875 9.800781 -8.484375 9.6875 -8.515625 C 9.582031 -8.554688 9.472656 -8.578125 9.359375 -8.578125 C 9.191406 -8.578125 9.054688 -8.5625 8.953125 -8.53125 C 8.671875 -8.488281 8.328125 -8.46875 7.921875 -8.46875 C 7.898438 -8.46875 7.703125 -8.476562 7.328125 -8.5 C 6.953125 -8.519531 6.628906 -8.53125 6.359375 -8.53125 L 5.71875 -8.53125 C 5.351562 -8.53125 5.171875 -8.507812 5.171875 -8.46875 C 5.171875 -8.425781 5.179688 -8.394531 5.203125 -8.375 C 5.273438 -8.257812 5.4375 -8.15625 5.6875 -8.0625 C 5.90625 -7.96875 6.015625 -7.898438 6.015625 -7.859375 C 6.015625 -7.765625 6.425781 -7.570312 7.25 -7.28125 C 7.65625 -7.125 8.445312 -7.046875 9.625 -7.046875 C 10.78125 -7.046875 11.484375 -7.007812 11.734375 -6.9375 C 11.941406 -6.875 12.179688 -6.816406 12.453125 -6.765625 C 13.148438 -6.609375 13.5 -6.15625 13.5 -5.40625 C 13.5 -4.769531 13.265625 -4.269531 12.796875 -3.90625 C 12.566406 -3.726562 12.03125 -3.617188 11.1875 -3.578125 C 10.238281 -3.523438 9.570312 -3.5 9.1875 -3.5 C 7.257812 -3.5 5.953125 -3.679688 5.265625 -4.046875 C 3.929688 -4.796875 3.015625 -5.769531 2.515625 -6.96875 C 2.128906 -7.90625 1.9375 -8.722656 1.9375 -9.421875 L 1.9375 -9.828125 C 2.007812 -10.578125 2.207031 -11.503906 2.53125 -12.609375 C 2.863281 -13.722656 3.1875 -14.519531 3.5 -15 Z M 3.5 -15 "/></g></g></g><g fill="#ffffff" fill-opacity="1"><g transform="translate(73.346082, 29.891233)"><g/></g></g><g fill="#ffffff" fill-opacity="1"><g transform="translate(83.549627, 29.891233)"><g><path d="M 5.6875 1.390625 C 5.75 1.253906 5.753906 1.171875 5.703125 1.140625 C 5.660156 1.109375 5.59375 1.09375 5.5 1.09375 C 5.414062 1.09375 5.375 1.101562 5.375 1.125 C 5.375 1.21875 5.40625 1.3125 5.46875 1.40625 C 5.539062 1.507812 5.613281 1.503906 5.6875 1.390625 Z M 10.234375 -7.921875 C 10.234375 -8.015625 10.191406 -8.0625 10.109375 -8.0625 C 9.992188 -8.0625 9.9375 -8.015625 9.9375 -7.921875 C 9.9375 -7.804688 9.992188 -7.75 10.109375 -7.75 C 10.191406 -7.75 10.234375 -7.804688 10.234375 -7.921875 Z M 12.859375 -5.0625 C 12.859375 -5.113281 13.019531 -5.316406 13.34375 -5.671875 C 13.675781 -6.035156 13.84375 -6.234375 13.84375 -6.265625 C 13.84375 -6.328125 14.035156 -6.550781 14.421875 -6.9375 C 15.191406 -7.75 15.578125 -8.40625 15.578125 -8.90625 C 15.578125 -9.070312 15.828125 -9.40625 16.328125 -9.90625 C 16.734375 -10.289062 16.992188 -10.601562 17.109375 -10.84375 C 17.222656 -11.09375 17.4375 -11.742188 17.75 -12.796875 C 17.84375 -13.109375 18.046875 -13.664062 18.359375 -14.46875 C 18.679688 -15.28125 18.863281 -15.988281 18.90625 -16.59375 L 18.984375 -17.625 L 18.53125 -17.859375 C 18.257812 -18.035156 17.488281 -18.148438 16.21875 -18.203125 C 15.925781 -18.222656 15.5 -18.234375 14.9375 -18.234375 C 14.300781 -18.234375 13.925781 -18.222656 13.8125 -18.203125 C 13.71875 -18.179688 13.5 -18.171875 13.15625 -18.171875 C 12.800781 -18.171875 12.53125 -18.179688 12.34375 -18.203125 C 12.1875 -18.203125 11.972656 -18.210938 11.703125 -18.234375 C 11.429688 -18.253906 11.117188 -18.28125 10.765625 -18.3125 C 10.410156 -18.351562 10.132812 -18.382812 9.9375 -18.40625 C 8.53125 -18.488281 7.597656 -18.75 7.140625 -19.1875 C 6.941406 -19.363281 6.738281 -19.632812 6.53125 -20 C 6.320312 -20.363281 6.21875 -20.632812 6.21875 -20.8125 C 6.21875 -21 6.320312 -21.257812 6.53125 -21.59375 C 6.738281 -21.9375 6.929688 -22.1875 7.109375 -22.34375 C 7.628906 -22.800781 8.390625 -23.085938 9.390625 -23.203125 C 9.910156 -23.265625 10.765625 -23.382812 11.953125 -23.5625 C 13.148438 -23.75 14.191406 -23.882812 15.078125 -23.96875 C 15.972656 -24.0625 16.863281 -24.109375 17.75 -24.109375 C 18.226562 -24.109375 18.59375 -24.097656 18.84375 -24.078125 C 22.039062 -23.992188 24.988281 -23.800781 27.6875 -23.5 C 29.070312 -23.382812 29.96875 -23.191406 30.375 -22.921875 C 31.125 -22.472656 31.5 -21.875 31.5 -21.125 C 31.5 -20.988281 31.488281 -20.882812 31.46875 -20.8125 C 31.28125 -20.132812 30.828125 -19.429688 30.109375 -18.703125 L 29.484375 -18.09375 L 28.296875 -17.953125 C 27.710938 -17.910156 27.304688 -17.890625 27.078125 -17.890625 C 26.984375 -17.890625 26.867188 -17.894531 26.734375 -17.90625 C 26.597656 -17.914062 26.484375 -17.921875 26.390625 -17.921875 C 25.328125 -17.921875 24.554688 -17.707031 24.078125 -17.28125 C 23.878906 -17.101562 23.484375 -16.445312 22.890625 -15.3125 C 22.304688 -14.175781 21.863281 -13.210938 21.5625 -12.421875 C 21.5 -12.285156 21.410156 -12.050781 21.296875 -11.71875 C 21.179688 -11.382812 21.09375 -11.144531 21.03125 -11 C 20.976562 -10.851562 20.890625 -10.671875 20.765625 -10.453125 C 20.640625 -10.242188 20.507812 -10.0625 20.375 -9.90625 C 20.144531 -9.625 20.03125 -9.441406 20.03125 -9.359375 C 20.03125 -9.222656 19.832031 -8.660156 19.4375 -7.671875 C 19.039062 -6.679688 18.796875 -6.144531 18.703125 -6.0625 C 18.566406 -5.914062 18.429688 -5.609375 18.296875 -5.140625 C 18.117188 -4.617188 17.972656 -4.265625 17.859375 -4.078125 C 17.722656 -3.828125 17.65625 -3.644531 17.65625 -3.53125 C 17.65625 -3.425781 17.414062 -2.984375 16.9375 -2.203125 C 16.457031 -1.429688 16.0625 -0.832031 15.75 -0.40625 C 15.207031 0.289062 14.753906 0.832031 14.390625 1.21875 C 14.066406 1.582031 13.578125 2.007812 12.921875 2.5 C 12.265625 2.988281 11.742188 3.320312 11.359375 3.5 C 11.085938 3.613281 10.601562 3.671875 9.90625 3.671875 C 9.15625 3.671875 8.460938 3.613281 7.828125 3.5 C 7.597656 3.457031 7.1875 3.390625 6.59375 3.296875 C 5.894531 3.203125 5.097656 2.734375 4.203125 1.890625 C 3.304688 1.054688 2.628906 0.15625 2.171875 -0.8125 C 1.992188 -1.21875 1.90625 -1.863281 1.90625 -2.75 C 1.90625 -3.019531 1.925781 -3.296875 1.96875 -3.578125 C 2.269531 -5.023438 2.5 -5.875 2.65625 -6.125 C 2.851562 -6.46875 3 -6.84375 3.09375 -7.25 C 3.207031 -7.75 3.503906 -8.257812 3.984375 -8.78125 C 5.023438 -10 5.816406 -10.722656 6.359375 -10.953125 C 6.472656 -11.023438 6.6875 -11.160156 7 -11.359375 C 7.320312 -11.566406 7.597656 -11.710938 7.828125 -11.796875 C 8.078125 -11.910156 8.234375 -12.003906 8.296875 -12.078125 C 8.453125 -12.304688 9.085938 -12.546875 10.203125 -12.796875 C 10.773438 -12.898438 11.265625 -12.953125 11.671875 -12.953125 C 12.210938 -12.953125 12.664062 -12.875 13.03125 -12.71875 C 13.84375 -12.3125 14.25 -11.710938 14.25 -10.921875 C 14.25 -10.785156 14.238281 -10.679688 14.21875 -10.609375 C 14.175781 -10.359375 14 -10.070312 13.6875 -9.75 C 13.382812 -9.4375 13.085938 -9.238281 12.796875 -9.15625 C 12.546875 -9.082031 12.363281 -9.015625 12.25 -8.953125 C 12.132812 -8.898438 11.972656 -8.796875 11.765625 -8.640625 C 11.566406 -8.484375 11.375 -8.347656 11.1875 -8.234375 C 10.53125 -7.796875 10.113281 -7.476562 9.9375 -7.28125 C 9.707031 -7.007812 9.535156 -6.875 9.421875 -6.875 C 9.328125 -6.875 9.054688 -6.6875 8.609375 -6.3125 C 8.171875 -5.9375 7.953125 -5.710938 7.953125 -5.640625 C 7.953125 -5.554688 7.898438 -5.398438 7.796875 -5.171875 C 7.585938 -4.671875 7.445312 -4.273438 7.375 -3.984375 L 7.375 -3.734375 C 7.375 -2.785156 7.476562 -2.207031 7.6875 -2 C 7.800781 -1.894531 8.117188 -1.84375 8.640625 -1.84375 L 9.015625 -1.84375 C 9.328125 -1.84375 9.632812 -1.929688 9.9375 -2.109375 C 10.1875 -2.265625 10.734375 -2.765625 11.578125 -3.609375 C 12.429688 -4.460938 12.859375 -4.945312 12.859375 -5.0625 Z M 12.859375 -5.0625 "/></g></g></g><g fill="#ffffff" fill-opacity="1"><g transform="translate(115.316943, 29.891233)"><g><path d="M 6.46875 -10.84375 C 6.550781 -10.84375 6.59375 -10.878906 6.59375 -10.953125 C 6.59375 -11.023438 6.550781 -11.0625 6.46875 -11.0625 C 6.351562 -11.0625 6.296875 -11.023438 6.296875 -10.953125 C 6.296875 -10.878906 6.351562 -10.84375 6.46875 -10.84375 Z M 2.578125 -10.40625 C 2.578125 -10.476562 2.726562 -10.703125 3.03125 -11.078125 C 3.34375 -11.453125 3.5 -11.671875 3.5 -11.734375 C 3.5 -11.773438 3.613281 -11.976562 3.84375 -12.34375 C 4.09375 -12.75 4.25 -13.046875 4.3125 -13.234375 C 4.382812 -13.484375 4.304688 -13.753906 4.078125 -14.046875 C 3.847656 -14.296875 3.679688 -14.671875 3.578125 -15.171875 L 3.40625 -15.84375 L 3.734375 -16.59375 C 4.398438 -18.164062 5.003906 -19.0625 5.546875 -19.28125 C 5.679688 -19.332031 5.816406 -19.359375 5.953125 -19.359375 C 6.316406 -19.359375 6.695312 -19.238281 7.09375 -19 C 7.488281 -18.757812 7.773438 -18.46875 7.953125 -18.125 C 8.160156 -17.71875 9.171875 -17.289062 10.984375 -16.84375 C 11.890625 -16.613281 12.820312 -16.5 13.78125 -16.5 C 15.59375 -16.5 16.625 -16.328125 16.875 -15.984375 C 16.988281 -15.867188 17.046875 -15.65625 17.046875 -15.34375 C 17.046875 -14.414062 16.738281 -13.617188 16.125 -12.953125 C 15.664062 -12.460938 15.03125 -12.066406 14.21875 -11.765625 C 13.851562 -11.609375 13.5 -11.328125 13.15625 -10.921875 C 12.476562 -9.992188 12.140625 -9.289062 12.140625 -8.8125 C 12.140625 -7.96875 12.898438 -7.488281 14.421875 -7.375 C 14.878906 -7.332031 15.203125 -7.257812 15.390625 -7.15625 C 15.585938 -7.050781 15.753906 -6.878906 15.890625 -6.640625 C 16.003906 -6.410156 16.0625 -6.191406 16.0625 -5.984375 C 16.0625 -5.640625 15.898438 -5.164062 15.578125 -4.5625 C 15.515625 -4.394531 15.359375 -4.207031 15.109375 -4 C 14.859375 -3.800781 14.675781 -3.703125 14.5625 -3.703125 C 14.507812 -3.703125 14.332031 -3.609375 14.03125 -3.421875 C 13.726562 -3.242188 13.53125 -3.15625 13.4375 -3.15625 C 13.414062 -3.15625 13.394531 -3.171875 13.375 -3.203125 C 13.28125 -3.242188 13.207031 -3.242188 13.15625 -3.203125 C 13.132812 -3.128906 12.832031 -3.09375 12.25 -3.09375 C 12 -3.09375 11.742188 -3.113281 11.484375 -3.15625 C 11.222656 -3.207031 11 -3.257812 10.8125 -3.3125 C 10.632812 -3.375 10.410156 -3.445312 10.140625 -3.53125 C 9.867188 -3.625 9.675781 -3.691406 9.5625 -3.734375 C 9.488281 -3.765625 9.34375 -3.816406 9.125 -3.890625 C 8.914062 -3.972656 8.734375 -4.015625 8.578125 -4.015625 C 8.460938 -4.015625 8.222656 -4.171875 7.859375 -4.484375 C 7.316406 -4.960938 7.046875 -5.585938 7.046875 -6.359375 C 7.046875 -6.378906 7.050781 -6.4375 7.0625 -6.53125 C 7.070312 -6.625 7.078125 -6.679688 7.078125 -6.703125 C 7.234375 -7.859375 7.570312 -8.910156 8.09375 -9.859375 C 8.25 -10.179688 8.453125 -10.664062 8.703125 -11.3125 C 8.953125 -11.957031 9.101562 -12.328125 9.15625 -12.421875 C 9.40625 -12.941406 9.472656 -13.257812 9.359375 -13.375 C 9.265625 -13.457031 9.113281 -13.5 8.90625 -13.5 C 8.40625 -13.5 8.15625 -13.363281 8.15625 -13.09375 C 8.15625 -13.050781 7.941406 -12.578125 7.515625 -11.671875 C 7.148438 -10.898438 6.84375 -10.195312 6.59375 -9.5625 C 6.375 -8.988281 6.148438 -8.546875 5.921875 -8.234375 C 5.710938 -7.960938 5.429688 -7.722656 5.078125 -7.515625 C 4.734375 -7.316406 4.445312 -7.21875 4.21875 -7.21875 C 4.082031 -7.21875 4.003906 -7.25 3.984375 -7.3125 C 3.929688 -7.40625 3.757812 -7.519531 3.46875 -7.65625 C 3.175781 -7.789062 2.953125 -7.859375 2.796875 -7.859375 C 2.585938 -7.859375 2.484375 -7.890625 2.484375 -7.953125 C 2.484375 -8.046875 2.394531 -8.226562 2.21875 -8.5 L 1.9375 -8.90625 L 2.109375 -9.453125 C 2.203125 -9.773438 2.316406 -9.992188 2.453125 -10.109375 C 2.535156 -10.191406 2.578125 -10.289062 2.578125 -10.40625 Z M 2.578125 -10.40625 "/></g></g></g><g fill="#ffffff" fill-opacity="1"><g transform="translate(132.561027, 29.891233)"><g><path d="M 10.546875 -11.328125 C 10.640625 -11.484375 10.6875 -11.617188 10.6875 -11.734375 C 10.6875 -12.003906 10.300781 -12.1875 9.53125 -12.28125 L 9.359375 -12.28125 C 8.535156 -12.28125 7.785156 -11.992188 7.109375 -11.421875 C 6.972656 -11.316406 6.835938 -11.222656 6.703125 -11.140625 C 6.566406 -11.054688 6.472656 -11 6.421875 -10.96875 C 6.378906 -10.9375 6.320312 -10.859375 6.25 -10.734375 C 6.1875 -10.609375 6.125 -10.410156 6.0625 -10.140625 C 6.007812 -9.953125 5.992188 -9.816406 6.015625 -9.734375 C 6.046875 -9.660156 6.140625 -9.519531 6.296875 -9.3125 C 6.523438 -9.039062 6.679688 -8.90625 6.765625 -8.90625 C 6.859375 -8.90625 7.109375 -8.804688 7.515625 -8.609375 C 7.671875 -8.515625 7.832031 -8.46875 8 -8.46875 C 8.175781 -8.46875 8.390625 -8.546875 8.640625 -8.703125 C 8.890625 -8.835938 9.195312 -9.101562 9.5625 -9.5 C 9.925781 -9.90625 10.128906 -10.195312 10.171875 -10.375 C 10.234375 -10.644531 10.359375 -10.960938 10.546875 -11.328125 Z M 16.015625 -13.234375 C 16.015625 -13.140625 15.941406 -12.957031 15.796875 -12.6875 C 15.648438 -12.414062 15.578125 -12.234375 15.578125 -12.140625 C 15.578125 -12.003906 15.5 -11.734375 15.34375 -11.328125 C 15.1875 -10.921875 15.050781 -10.648438 14.9375 -10.515625 C 14.800781 -10.285156 14.734375 -10.160156 14.734375 -10.140625 C 14.734375 -10.066406 14.6875 -10.007812 14.59375 -9.96875 C 14.550781 -9.945312 14.507812 -9.875 14.46875 -9.75 C 14.4375 -9.625 14.429688 -9.5 14.453125 -9.375 C 14.472656 -9.25 14.503906 -9.1875 14.546875 -9.1875 C 14.597656 -9.1875 14.625 -9.128906 14.625 -9.015625 C 14.625 -8.898438 14.710938 -8.773438 14.890625 -8.640625 C 15.078125 -8.503906 15.238281 -8.4375 15.375 -8.4375 C 15.488281 -8.4375 15.796875 -8.3125 16.296875 -8.0625 C 16.773438 -7.8125 17.035156 -7.617188 17.078125 -7.484375 C 17.097656 -7.460938 17.117188 -7.40625 17.140625 -7.3125 C 17.273438 -6.90625 17.390625 -6.609375 17.484375 -6.421875 C 17.597656 -6.203125 17.65625 -6.046875 17.65625 -5.953125 C 17.65625 -5.859375 17.617188 -5.722656 17.546875 -5.546875 C 17.503906 -5.359375 17.328125 -5.085938 17.015625 -4.734375 C 16.765625 -4.453125 16.375 -4.234375 15.84375 -4.078125 C 15.101562 -3.847656 14.40625 -3.734375 13.75 -3.734375 C 13.5625 -3.734375 13.378906 -3.757812 13.203125 -3.8125 C 12.835938 -3.875 12.4375 -3.984375 12 -4.140625 C 11.570312 -4.304688 11.328125 -4.46875 11.265625 -4.625 C 11.128906 -4.851562 10.945312 -4.96875 10.71875 -4.96875 C 10.394531 -4.96875 10.039062 -4.804688 9.65625 -4.484375 C 9.59375 -4.421875 9.40625 -4.359375 9.09375 -4.296875 C 8.789062 -4.242188 8.601562 -4.195312 8.53125 -4.15625 C 8.488281 -4.125 8.3125 -4.109375 8 -4.109375 C 7.75 -4.109375 7.378906 -4.117188 6.890625 -4.140625 C 6.398438 -4.171875 6.132812 -4.1875 6.09375 -4.1875 C 5.707031 -4.1875 5.207031 -4.4375 4.59375 -4.9375 C 4.320312 -5.1875 4.0625 -5.363281 3.8125 -5.46875 C 3.65625 -5.5625 3.351562 -5.820312 2.90625 -6.25 C 2.46875 -6.6875 2.179688 -6.992188 2.046875 -7.171875 C 1.953125 -7.335938 1.90625 -7.554688 1.90625 -7.828125 C 1.90625 -8.097656 1.914062 -8.347656 1.9375 -8.578125 C 1.957031 -8.984375 1.96875 -9.410156 1.96875 -9.859375 C 1.96875 -10.066406 2.0625 -10.34375 2.25 -10.6875 C 2.445312 -11.039062 2.554688 -11.265625 2.578125 -11.359375 C 2.609375 -11.398438 2.644531 -11.476562 2.6875 -11.59375 C 2.726562 -11.707031 2.765625 -11.773438 2.796875 -11.796875 C 2.816406 -11.867188 2.898438 -12.003906 3.046875 -12.203125 C 3.191406 -12.410156 3.265625 -12.570312 3.265625 -12.6875 C 3.265625 -12.757812 3.367188 -12.941406 3.578125 -13.234375 C 3.796875 -13.523438 4.035156 -13.832031 4.296875 -14.15625 C 4.554688 -14.488281 4.722656 -14.710938 4.796875 -14.828125 C 4.929688 -15.054688 5.101562 -15.238281 5.3125 -15.375 C 5.5625 -15.53125 5.6875 -15.628906 5.6875 -15.671875 C 5.6875 -15.722656 5.769531 -15.820312 5.9375 -15.96875 C 6.101562 -16.113281 6.21875 -16.1875 6.28125 -16.1875 C 6.351562 -16.1875 6.734375 -16.335938 7.421875 -16.640625 C 8.410156 -17.085938 9.382812 -17.3125 10.34375 -17.3125 C 10.570312 -17.3125 10.738281 -17.28125 10.84375 -17.21875 C 10.957031 -17.164062 11.128906 -17.023438 11.359375 -16.796875 C 11.679688 -16.484375 11.910156 -16.328125 12.046875 -16.328125 C 12.109375 -16.328125 12.175781 -16.382812 12.25 -16.5 C 12.363281 -16.726562 12.523438 -16.9375 12.734375 -17.125 C 12.953125 -17.320312 13.128906 -17.421875 13.265625 -17.421875 C 13.398438 -17.421875 13.546875 -17.492188 13.703125 -17.640625 C 13.867188 -17.785156 13.960938 -17.867188 13.984375 -17.890625 C 14.140625 -17.929688 14.25 -17.914062 14.3125 -17.84375 C 14.382812 -17.78125 14.476562 -17.75 14.59375 -17.75 C 14.707031 -17.75 14.828125 -17.703125 14.953125 -17.609375 C 15.078125 -17.523438 15.195312 -17.472656 15.3125 -17.453125 C 15.507812 -17.398438 15.722656 -17.257812 15.953125 -17.03125 C 16.179688 -16.8125 16.304688 -16.507812 16.328125 -16.125 C 16.347656 -15.894531 16.359375 -15.554688 16.359375 -15.109375 C 16.359375 -14.691406 16.335938 -14.460938 16.296875 -14.421875 C 16.242188 -14.328125 16.21875 -14.179688 16.21875 -13.984375 C 16.21875 -13.828125 16.179688 -13.695312 16.109375 -13.59375 C 16.046875 -13.488281 16.015625 -13.367188 16.015625 -13.234375 Z M 16.015625 -13.234375 "/></g></g></g><g fill="#ffffff" fill-opacity="1"><g transform="translate(150.349302, 29.891233)"><g><path d="M 9.015625 -13.328125 C 8.941406 -13.328125 8.863281 -13.332031 8.78125 -13.34375 C 8.707031 -13.363281 8.644531 -13.378906 8.59375 -13.390625 C 8.550781 -13.398438 8.507812 -13.40625 8.46875 -13.40625 C 8.425781 -13.40625 8.378906 -13.40625 8.328125 -13.40625 C 8.171875 -13.40625 7.992188 -13.367188 7.796875 -13.296875 C 6.992188 -13.003906 6.320312 -12.40625 5.78125 -11.5 C 5.625 -11.25 5.546875 -10.960938 5.546875 -10.640625 C 5.546875 -10.097656 5.753906 -9.617188 6.171875 -9.203125 C 6.585938 -8.785156 7.070312 -8.578125 7.625 -8.578125 C 7.707031 -8.578125 7.863281 -8.597656 8.09375 -8.640625 C 8.769531 -8.816406 9.316406 -9.347656 9.734375 -10.234375 C 10.023438 -10.828125 10.171875 -11.316406 10.171875 -11.703125 C 10.171875 -11.972656 10.082031 -12.3125 9.90625 -12.71875 C 9.757812 -12.988281 9.644531 -13.144531 9.5625 -13.1875 C 9.488281 -13.238281 9.304688 -13.285156 9.015625 -13.328125 Z M 12.515625 -19.796875 C 12.515625 -19.867188 12.585938 -20.007812 12.734375 -20.21875 C 12.878906 -20.4375 12.953125 -20.578125 12.953125 -20.640625 C 12.953125 -20.941406 13.21875 -21.632812 13.75 -22.71875 C 13.882812 -22.945312 13.953125 -23.128906 13.953125 -23.265625 C 13.953125 -23.335938 13.992188 -23.414062 14.078125 -23.5 C 14.148438 -23.570312 14.222656 -23.738281 14.296875 -24 C 14.378906 -24.257812 14.457031 -24.550781 14.53125 -24.875 C 14.613281 -25.207031 14.664062 -25.394531 14.6875 -25.4375 C 14.851562 -25.914062 15.003906 -26.40625 15.140625 -26.90625 C 15.253906 -27.40625 15.410156 -27.65625 15.609375 -27.65625 C 15.703125 -27.65625 15.769531 -27.703125 15.8125 -27.796875 C 15.832031 -27.859375 16.101562 -27.921875 16.625 -27.984375 C 17.15625 -28.054688 17.566406 -28.09375 17.859375 -28.09375 L 18.03125 -28.09375 C 18.144531 -28.050781 18.269531 -27.976562 18.40625 -27.875 C 18.539062 -27.769531 18.609375 -27.6875 18.609375 -27.625 C 18.609375 -27.570312 18.6875 -27.445312 18.84375 -27.25 C 19.019531 -27 19.109375 -26.554688 19.109375 -25.921875 C 19.109375 -25.554688 19.054688 -25.285156 18.953125 -25.109375 C 18.878906 -25.015625 18.804688 -24.878906 18.734375 -24.703125 C 18.671875 -24.535156 18.601562 -24.335938 18.53125 -24.109375 C 18.46875 -23.890625 18.425781 -23.742188 18.40625 -23.671875 C 18.382812 -23.609375 18.347656 -23.476562 18.296875 -23.28125 C 18.253906 -23.09375 18.222656 -22.972656 18.203125 -22.921875 C 18.109375 -22.585938 17.9375 -22.082031 17.6875 -21.40625 C 17.4375 -20.738281 17.28125 -20.394531 17.21875 -20.375 C 17.125 -20.332031 17 -20.003906 16.84375 -19.390625 C 16.769531 -19.160156 16.628906 -18.800781 16.421875 -18.3125 C 16.222656 -17.832031 16.085938 -17.421875 16.015625 -17.078125 C 15.992188 -16.804688 15.882812 -16.394531 15.6875 -15.84375 C 15.226562 -14.625 14.957031 -13.851562 14.875 -13.53125 C 14.800781 -13.21875 14.765625 -12.695312 14.765625 -11.96875 L 14.765625 -11.640625 C 14.765625 -10.566406 14.878906 -9.757812 15.109375 -9.21875 C 15.304688 -8.757812 15.460938 -8.53125 15.578125 -8.53125 C 15.710938 -8.53125 16.03125 -8.285156 16.53125 -7.796875 C 17.03125 -7.316406 17.28125 -7.007812 17.28125 -6.875 C 17.28125 -6.851562 17.273438 -6.816406 17.265625 -6.765625 C 17.253906 -6.722656 17.25 -6.691406 17.25 -6.671875 C 17.195312 -6.367188 17.128906 -6.164062 17.046875 -6.0625 C 16.929688 -5.894531 16.875 -5.742188 16.875 -5.609375 C 16.875 -5.515625 16.796875 -5.378906 16.640625 -5.203125 C 16.492188 -5.023438 16.421875 -4.898438 16.421875 -4.828125 C 16.421875 -4.691406 16.117188 -4.445312 15.515625 -4.09375 C 14.921875 -3.75 14.523438 -3.578125 14.328125 -3.578125 L 14.25 -3.578125 C 14.25 -3.597656 14.175781 -3.601562 14.03125 -3.59375 C 13.882812 -3.582031 13.734375 -3.5625 13.578125 -3.53125 C 13.253906 -3.488281 13.082031 -3.46875 13.0625 -3.46875 C 12.925781 -3.46875 12.695312 -3.535156 12.375 -3.671875 C 11.882812 -3.898438 11.546875 -4.035156 11.359375 -4.078125 C 11.203125 -4.128906 10.929688 -4.253906 10.546875 -4.453125 C 10.160156 -4.660156 9.765625 -4.765625 9.359375 -4.765625 C 9.128906 -4.765625 8.945312 -4.753906 8.8125 -4.734375 C 8.019531 -4.640625 7.585938 -4.570312 7.515625 -4.53125 C 7.222656 -4.414062 6.789062 -4.359375 6.21875 -4.359375 C 5.363281 -4.359375 4.617188 -4.484375 3.984375 -4.734375 C 3.484375 -4.929688 2.992188 -5.484375 2.515625 -6.390625 C 2.109375 -7.210938 1.90625 -8.15625 1.90625 -9.21875 C 1.90625 -9.3125 1.910156 -9.453125 1.921875 -9.640625 C 1.929688 -9.835938 1.9375 -9.992188 1.9375 -10.109375 C 2.007812 -11.867188 2.144531 -13.007812 2.34375 -13.53125 C 2.4375 -13.738281 2.664062 -14.035156 3.03125 -14.421875 C 3.394531 -14.804688 3.664062 -15.054688 3.84375 -15.171875 C 3.976562 -15.234375 4.046875 -15.3125 4.046875 -15.40625 C 4.046875 -15.539062 4.210938 -15.726562 4.546875 -15.96875 C 4.890625 -16.207031 5.1875 -16.347656 5.4375 -16.390625 C 5.738281 -16.441406 5.96875 -16.523438 6.125 -16.640625 C 6.28125 -16.773438 7.003906 -16.84375 8.296875 -16.84375 C 9.566406 -16.84375 10.257812 -16.785156 10.375 -16.671875 C 10.445312 -16.554688 10.617188 -16.472656 10.890625 -16.421875 C 11.066406 -16.398438 11.175781 -16.410156 11.21875 -16.453125 C 11.269531 -16.503906 11.304688 -16.617188 11.328125 -16.796875 C 11.367188 -17.003906 11.421875 -17.1875 11.484375 -17.34375 C 11.554688 -17.507812 11.617188 -17.691406 11.671875 -17.890625 C 11.734375 -18.140625 11.820312 -18.351562 11.9375 -18.53125 C 12.050781 -18.695312 12.109375 -18.847656 12.109375 -18.984375 C 12.109375 -19.097656 12.175781 -19.238281 12.3125 -19.40625 C 12.445312 -19.570312 12.515625 -19.703125 12.515625 -19.796875 Z M 12.515625 -19.796875 "/></g></g></g><g fill="#ffffff" fill-opacity="1"><g transform="translate(169.736154, 29.891233)"><g><path d="M 5.921875 -5.4375 C 5.921875 -5.53125 5.882812 -5.59375 5.8125 -5.625 C 5.75 -5.664062 5.691406 -5.660156 5.640625 -5.609375 C 5.578125 -5.546875 5.554688 -5.472656 5.578125 -5.390625 C 5.597656 -5.304688 5.65625 -5.265625 5.75 -5.265625 C 5.863281 -5.265625 5.921875 -5.320312 5.921875 -5.4375 Z M 9.796875 -12.046875 C 9.835938 -12.179688 9.859375 -12.269531 9.859375 -12.3125 C 9.859375 -12.65625 9.628906 -12.960938 9.171875 -13.234375 C 8.722656 -13.503906 8.25 -13.640625 7.75 -13.640625 L 7.109375 -13.640625 L 6.421875 -12.921875 C 5.992188 -12.472656 5.800781 -12.203125 5.84375 -12.109375 C 5.9375 -11.992188 6.695312 -11.90625 8.125 -11.84375 L 9.6875 -11.765625 Z M 3.5 -15 C 3.90625 -15.675781 4.617188 -16.320312 5.640625 -16.9375 C 6.660156 -17.550781 7.648438 -17.859375 8.609375 -17.859375 L 8.640625 -17.859375 C 8.753906 -17.859375 9.066406 -17.765625 9.578125 -17.578125 C 10.085938 -17.398438 10.398438 -17.28125 10.515625 -17.21875 C 10.628906 -17.101562 10.765625 -17.046875 10.921875 -17.046875 C 11.035156 -17.046875 11.226562 -16.898438 11.5 -16.609375 C 11.769531 -16.328125 11.90625 -16.117188 11.90625 -15.984375 C 11.90625 -15.867188 11.960938 -15.78125 12.078125 -15.71875 C 12.503906 -15.351562 12.765625 -14.582031 12.859375 -13.40625 C 12.898438 -12.8125 12.953125 -12.488281 13.015625 -12.4375 C 13.085938 -12.394531 13.125 -12.257812 13.125 -12.03125 C 13.125 -11.8125 13.085938 -11.675781 13.015625 -11.625 C 12.953125 -11.582031 12.921875 -11.503906 12.921875 -11.390625 C 12.921875 -11.273438 12.863281 -11.164062 12.75 -11.0625 C 12.664062 -10.988281 12.625 -10.816406 12.625 -10.546875 C 12.625 -10.046875 12.453125 -9.632812 12.109375 -9.3125 C 11.765625 -9 11.207031 -8.738281 10.4375 -8.53125 C 10.28125 -8.488281 10.125 -8.46875 9.96875 -8.46875 C 9.894531 -8.46875 9.800781 -8.484375 9.6875 -8.515625 C 9.582031 -8.554688 9.472656 -8.578125 9.359375 -8.578125 C 9.191406 -8.578125 9.054688 -8.5625 8.953125 -8.53125 C 8.671875 -8.488281 8.328125 -8.46875 7.921875 -8.46875 C 7.898438 -8.46875 7.703125 -8.476562 7.328125 -8.5 C 6.953125 -8.519531 6.628906 -8.53125 6.359375 -8.53125 L 5.71875 -8.53125 C 5.351562 -8.53125 5.171875 -8.507812 5.171875 -8.46875 C 5.171875 -8.425781 5.179688 -8.394531 5.203125 -8.375 C 5.273438 -8.257812 5.4375 -8.15625 5.6875 -8.0625 C 5.90625 -7.96875 6.015625 -7.898438 6.015625 -7.859375 C 6.015625 -7.765625 6.425781 -7.570312 7.25 -7.28125 C 7.65625 -7.125 8.445312 -7.046875 9.625 -7.046875 C 10.78125 -7.046875 11.484375 -7.007812 11.734375 -6.9375 C 11.941406 -6.875 12.179688 -6.816406 12.453125 -6.765625 C 13.148438 -6.609375 13.5 -6.15625 13.5 -5.40625 C 13.5 -4.769531 13.265625 -4.269531 12.796875 -3.90625 C 12.566406 -3.726562 12.03125 -3.617188 11.1875 -3.578125 C 10.238281 -3.523438 9.570312 -3.5 9.1875 -3.5 C 7.257812 -3.5 5.953125 -3.679688 5.265625 -4.046875 C 3.929688 -4.796875 3.015625 -5.769531 2.515625 -6.96875 C 2.128906 -7.90625 1.9375 -8.722656 1.9375 -9.421875 L 1.9375 -9.828125 C 2.007812 -10.578125 2.207031 -11.503906 2.53125 -12.609375 C 2.863281 -13.722656 3.1875 -14.519531 3.5 -15 Z M 3.5 -15 "/></g></g></g><g fill="#ffffff" fill-opacity="1"><g transform="translate(183.408943, 29.891233)"><g><path d="M 9.765625 -19.90625 C 9.921875 -19.96875 10.125 -20 10.375 -20 C 10.738281 -20 11.019531 -19.929688 11.21875 -19.796875 C 11.382812 -19.703125 11.507812 -19.53125 11.59375 -19.28125 C 11.644531 -19.101562 11.671875 -18.898438 11.671875 -18.671875 C 11.671875 -17.765625 11.519531 -16.753906 11.21875 -15.640625 C 11.0625 -14.941406 10.984375 -14.46875 10.984375 -14.21875 C 10.984375 -13.90625 11.0625 -13.609375 11.21875 -13.328125 C 11.96875 -12.148438 12.398438 -11.28125 12.515625 -10.71875 C 12.554688 -10.46875 12.632812 -10.265625 12.75 -10.109375 C 12.84375 -9.941406 12.863281 -9.800781 12.8125 -9.6875 C 12.769531 -9.582031 12.785156 -9.53125 12.859375 -9.53125 C 13.085938 -9.53125 13.203125 -9.1875 13.203125 -8.5 C 13.203125 -8.269531 13.1875 -8.101562 13.15625 -8 C 13.050781 -6.789062 12.804688 -6.039062 12.421875 -5.75 C 12.347656 -5.675781 12.257812 -5.5625 12.15625 -5.40625 C 12.050781 -5.25 11.945312 -5.148438 11.84375 -5.109375 C 11.613281 -5.015625 11 -4.570312 10 -3.78125 C 9.707031 -3.550781 9.164062 -3.4375 8.375 -3.4375 C 7.894531 -3.4375 7.484375 -3.484375 7.140625 -3.578125 C 7.003906 -3.597656 6.796875 -3.625 6.515625 -3.65625 C 6.234375 -3.6875 5.976562 -3.722656 5.75 -3.765625 C 5.519531 -3.816406 5.359375 -3.890625 5.265625 -3.984375 C 5.128906 -4.117188 4.90625 -4.226562 4.59375 -4.3125 C 3.164062 -4.695312 2.453125 -5.003906 2.453125 -5.234375 C 2.453125 -5.328125 2.382812 -5.40625 2.25 -5.46875 C 2.019531 -5.632812 1.90625 -5.882812 1.90625 -6.21875 C 1.90625 -6.789062 2.109375 -7.28125 2.515625 -7.6875 C 2.671875 -7.84375 2.910156 -7.921875 3.234375 -7.921875 L 3.8125 -7.921875 C 4.757812 -7.859375 5.472656 -7.78125 5.953125 -7.6875 C 6.703125 -7.53125 7.164062 -7.453125 7.34375 -7.453125 L 7.421875 -7.453125 C 7.671875 -7.453125 8.003906 -7.492188 8.421875 -7.578125 C 8.835938 -7.671875 9.082031 -7.753906 9.15625 -7.828125 C 9.257812 -7.941406 9.335938 -8.164062 9.390625 -8.5 C 9.390625 -8.550781 9.394531 -8.609375 9.40625 -8.671875 C 9.414062 -8.742188 9.421875 -8.789062 9.421875 -8.8125 C 9.421875 -8.988281 9.25 -9.257812 8.90625 -9.625 C 8.570312 -9.988281 8.300781 -10.171875 8.09375 -10.171875 C 7.914062 -10.171875 7.691406 -10.023438 7.421875 -9.734375 C 6.710938 -9.023438 6.078125 -8.671875 5.515625 -8.671875 C 4.671875 -8.671875 4 -9.035156 3.5 -9.765625 C 3.34375 -9.992188 3.242188 -10.1875 3.203125 -10.34375 C 3.171875 -10.5 3.144531 -10.914062 3.125 -11.59375 L 3.125 -12.28125 C 3.125 -12.707031 3.21875 -13.046875 3.40625 -13.296875 C 3.601562 -13.546875 3.738281 -13.671875 3.8125 -13.671875 C 3.945312 -13.671875 4.265625 -13.804688 4.765625 -14.078125 C 5.265625 -14.347656 5.941406 -14.90625 6.796875 -15.75 L 8.09375 -16.96875 L 8.203125 -17.71875 C 8.285156 -18.332031 8.445312 -18.796875 8.6875 -19.109375 C 8.925781 -19.429688 9.285156 -19.695312 9.765625 -19.90625 Z M 9.765625 -19.90625 "/></g></g></g><g fill="#ffffff" fill-opacity="1"><g transform="translate(196.741609, 29.891233)"><g/></g></g><g fill="#ffffff" fill-opacity="1"><g transform="translate(206.945153, 29.891233)"><g><path d="M 7.78125 -1.84375 C 7.894531 -1.84375 7.953125 -1.894531 7.953125 -2 C 7.953125 -2.113281 7.894531 -2.171875 7.78125 -2.171875 C 7.675781 -2.171875 7.625 -2.113281 7.625 -2 C 7.625 -1.894531 7.675781 -1.84375 7.78125 -1.84375 Z M 16.734375 -20.609375 C 16.847656 -20.492188 16.941406 -20.519531 17.015625 -20.6875 C 17.097656 -20.863281 17.050781 -20.953125 16.875 -20.953125 C 16.78125 -20.953125 16.71875 -20.910156 16.6875 -20.828125 C 16.65625 -20.753906 16.671875 -20.679688 16.734375 -20.609375 Z M 13.125 -23.875 C 13.8125 -24.21875 14.328125 -24.425781 14.671875 -24.5 C 15.023438 -24.582031 15.679688 -24.625 16.640625 -24.625 C 17.128906 -24.625 17.5 -24.609375 17.75 -24.578125 C 18 -24.546875 18.257812 -24.472656 18.53125 -24.359375 C 18.8125 -24.242188 19.039062 -24.160156 19.21875 -24.109375 C 20.144531 -23.910156 20.78125 -23.640625 21.125 -23.296875 C 22.007812 -22.367188 22.597656 -21.707031 22.890625 -21.3125 C 23.179688 -20.914062 23.46875 -20.390625 23.75 -19.734375 C 24.269531 -18.441406 24.53125 -17.410156 24.53125 -16.640625 C 24.53125 -16.585938 24.519531 -16.507812 24.5 -16.40625 C 24.488281 -16.3125 24.484375 -16.238281 24.484375 -16.1875 C 24.441406 -15.664062 24.195312 -15.066406 23.75 -14.390625 C 23.46875 -13.984375 23.1875 -13.710938 22.90625 -13.578125 C 22.625 -13.441406 22.175781 -13.375 21.5625 -13.375 C 20.976562 -13.375 20.539062 -13.414062 20.25 -13.5 C 19.96875 -13.59375 19.710938 -13.785156 19.484375 -14.078125 C 18.898438 -14.804688 18.5625 -15.703125 18.46875 -16.765625 C 18.375 -17.921875 18.238281 -18.660156 18.0625 -18.984375 C 17.988281 -19.117188 17.800781 -19.265625 17.5 -19.421875 C 17.195312 -19.578125 16.953125 -19.65625 16.765625 -19.65625 C 16.609375 -19.65625 16.519531 -19.6875 16.5 -19.75 C 16.476562 -19.820312 16.34375 -19.859375 16.09375 -19.859375 C 15.6875 -19.859375 15.34375 -19.789062 15.0625 -19.65625 C 14.613281 -19.4375 14.207031 -18.984375 13.84375 -18.296875 C 13.570312 -17.753906 13.4375 -17.359375 13.4375 -17.109375 C 13.4375 -16.859375 13.59375 -16.382812 13.90625 -15.6875 C 13.957031 -15.59375 14.128906 -15.226562 14.421875 -14.59375 C 14.597656 -14.132812 14.925781 -13.703125 15.40625 -13.296875 C 15.882812 -12.867188 16.28125 -12.414062 16.59375 -11.9375 C 16.9375 -11.414062 17.164062 -11.125 17.28125 -11.0625 C 17.644531 -10.78125 18.03125 -10.113281 18.4375 -9.0625 C 18.84375 -8.007812 19.066406 -7.085938 19.109375 -6.296875 C 19.109375 -6.203125 19.117188 -5.972656 19.140625 -5.609375 C 19.171875 -5.242188 19.195312 -4.992188 19.21875 -4.859375 L 19.21875 -4.5625 C 19.21875 -3.519531 18.890625 -2.210938 18.234375 -0.640625 C 18.097656 -0.328125 17.675781 0.179688 16.96875 0.890625 C 15.90625 1.910156 15.125 2.566406 14.625 2.859375 C 14.21875 3.085938 14.003906 3.222656 13.984375 3.265625 C 13.960938 3.335938 13.882812 3.375 13.75 3.375 C 13.632812 3.375 13.328125 3.492188 12.828125 3.734375 C 12.171875 4.054688 11.601562 4.21875 11.125 4.21875 C 11.03125 4.21875 10.644531 4.195312 9.96875 4.15625 C 8.675781 4.0625 7.679688 3.894531 6.984375 3.65625 C 6.296875 3.414062 5.585938 3.015625 4.859375 2.453125 C 4.390625 2.066406 4.117188 1.78125 4.046875 1.59375 C 3.953125 1.394531 3.757812 1.203125 3.46875 1.015625 C 3.195312 0.859375 3.0625 0.734375 3.0625 0.640625 C 3.0625 0.578125 2.9375 0.34375 2.6875 -0.0625 C 2.457031 -0.445312 2.320312 -0.863281 2.28125 -1.3125 C 2.238281 -1.769531 2.160156 -2.09375 2.046875 -2.28125 C 1.953125 -2.4375 1.90625 -2.742188 1.90625 -3.203125 C 1.90625 -3.265625 1.910156 -3.414062 1.921875 -3.65625 C 1.929688 -3.894531 1.9375 -4.09375 1.9375 -4.25 C 2.007812 -5.8125 2.101562 -6.660156 2.21875 -6.796875 L 2.953125 -8.234375 C 4.109375 -10.566406 5.144531 -11.9375 6.0625 -12.34375 C 6.351562 -12.457031 6.691406 -12.515625 7.078125 -12.515625 C 7.460938 -12.515625 7.800781 -12.457031 8.09375 -12.34375 C 8.300781 -12.257812 8.453125 -12.144531 8.546875 -12 C 8.648438 -11.863281 8.816406 -11.5625 9.046875 -11.09375 C 9.179688 -10.789062 9.25 -10.410156 9.25 -9.953125 C 9.25 -9.503906 9.238281 -9.113281 9.21875 -8.78125 C 9.175781 -7.78125 9.109375 -6.769531 9.015625 -5.75 C 8.941406 -5.207031 8.90625 -4.800781 8.90625 -4.53125 C 8.90625 -4.28125 8.941406 -3.984375 9.015625 -3.640625 C 9.328125 -1.734375 9.992188 -0.78125 11.015625 -0.78125 C 11.398438 -0.78125 11.878906 -0.90625 12.453125 -1.15625 C 12.785156 -1.3125 13 -1.445312 13.09375 -1.5625 C 13.1875 -1.675781 13.367188 -1.984375 13.640625 -2.484375 C 14.066406 -3.296875 14.28125 -4.007812 14.28125 -4.625 C 14.28125 -4.988281 14.203125 -5.316406 14.046875 -5.609375 C 13.910156 -5.835938 13.820312 -6.144531 13.78125 -6.53125 C 13.757812 -6.84375 13.566406 -7.25 13.203125 -7.75 C 12.859375 -8.207031 12.628906 -8.550781 12.515625 -8.78125 C 12.492188 -8.820312 12.300781 -9.113281 11.9375 -9.65625 C 11.488281 -10.34375 11 -11.179688 10.46875 -12.171875 C 9.945312 -13.171875 9.617188 -13.929688 9.484375 -14.453125 C 9.398438 -14.835938 9.359375 -15.441406 9.359375 -16.265625 C 9.359375 -17.148438 9.410156 -17.703125 9.515625 -17.921875 C 9.628906 -18.148438 9.710938 -18.4375 9.765625 -18.78125 C 9.804688 -19.09375 10.039062 -19.703125 10.46875 -20.609375 C 10.90625 -21.515625 11.269531 -22.160156 11.5625 -22.546875 C 11.96875 -23.117188 12.488281 -23.5625 13.125 -23.875 Z M 13.125 -23.875 "/></g></g></g><g fill="#ffffff" fill-opacity="1"><g transform="translate(231.637935, 29.891233)"><g><path d="M 16.96875 -11.5 C 16.96875 -11.65625 16.910156 -11.734375 16.796875 -11.734375 C 16.691406 -11.734375 16.640625 -11.65625 16.640625 -11.5 C 16.640625 -11.363281 16.691406 -11.296875 16.796875 -11.296875 C 16.910156 -11.296875 16.96875 -11.363281 16.96875 -11.5 Z M 12.625 -16.90625 C 12.625 -16.925781 12.539062 -16.9375 12.375 -16.9375 C 12.195312 -16.9375 12.164062 -16.90625 12.28125 -16.84375 C 12.457031 -16.769531 12.570312 -16.789062 12.625 -16.90625 Z M 8.703125 -7.953125 C 8.703125 -7.867188 8.628906 -7.65625 8.484375 -7.3125 C 8.335938 -6.96875 8.265625 -6.753906 8.265625 -6.671875 C 8.265625 -6.460938 8.195312 -6.289062 8.0625 -6.15625 C 7.90625 -6 7.828125 -5.875 7.828125 -5.78125 C 7.828125 -5.6875 7.78125 -5.609375 7.6875 -5.546875 C 7.570312 -5.472656 7.492188 -5.300781 7.453125 -5.03125 C 7.429688 -4.894531 7.328125 -4.664062 7.140625 -4.34375 C 6.960938 -4.03125 6.875 -3.796875 6.875 -3.640625 C 6.875 -3.484375 6.789062 -3.34375 6.625 -3.21875 C 6.46875 -3.09375 6.28125 -3.03125 6.0625 -3.03125 C 5.625 -3.03125 5.304688 -2.859375 5.109375 -2.515625 C 4.941406 -2.285156 4.691406 -2.304688 4.359375 -2.578125 C 4.191406 -2.691406 4.003906 -2.765625 3.796875 -2.796875 C 3.597656 -2.835938 3.476562 -2.8125 3.4375 -2.71875 C 3.414062 -2.65625 3.234375 -2.625 2.890625 -2.625 C 2.503906 -2.625 2.265625 -2.664062 2.171875 -2.75 C 2.015625 -2.863281 1.9375 -2.976562 1.9375 -3.09375 C 1.9375 -3.613281 2.222656 -4.441406 2.796875 -5.578125 C 2.898438 -5.753906 2.953125 -5.898438 2.953125 -6.015625 C 2.953125 -6.085938 3.015625 -6.21875 3.140625 -6.40625 C 3.265625 -6.601562 3.328125 -6.769531 3.328125 -6.90625 C 3.328125 -7.0625 3.410156 -7.34375 3.578125 -7.75 C 3.753906 -8.164062 3.851562 -8.414062 3.875 -8.5 C 3.925781 -8.800781 4.070312 -9.222656 4.3125 -9.765625 C 4.59375 -10.347656 4.84375 -10.984375 5.0625 -11.671875 C 5.5625 -13.191406 5.925781 -14.117188 6.15625 -14.453125 C 6.332031 -14.773438 6.421875 -14.957031 6.421875 -15 C 6.421875 -15.113281 6.5625 -15.507812 6.84375 -16.1875 C 7.476562 -17.613281 7.828125 -18.554688 7.890625 -19.015625 C 7.929688 -19.285156 8.007812 -19.566406 8.125 -19.859375 C 8.238281 -20.160156 8.320312 -20.410156 8.375 -20.609375 C 8.457031 -20.992188 8.535156 -21.210938 8.609375 -21.265625 C 8.671875 -21.285156 8.703125 -21.382812 8.703125 -21.5625 C 8.703125 -21.75 8.734375 -21.851562 8.796875 -21.875 C 8.867188 -21.894531 8.90625 -22.097656 8.90625 -22.484375 C 8.90625 -22.734375 8.890625 -22.882812 8.859375 -22.9375 C 8.828125 -23 8.742188 -23.050781 8.609375 -23.09375 C 8.421875 -23.113281 8.257812 -23.273438 8.125 -23.578125 L 7.921875 -24.015625 L 8.234375 -24.421875 C 8.429688 -24.710938 8.578125 -24.859375 8.671875 -24.859375 C 8.765625 -24.859375 8.925781 -24.914062 9.15625 -25.03125 C 9.332031 -25.125 9.59375 -25.191406 9.9375 -25.234375 C 10.1875 -25.265625 10.457031 -25.425781 10.75 -25.71875 C 11.226562 -26.195312 11.660156 -26.4375 12.046875 -26.4375 C 12.085938 -26.4375 12.117188 -26.421875 12.140625 -26.390625 C 12.234375 -26.347656 12.300781 -26.347656 12.34375 -26.390625 C 12.394531 -26.441406 12.453125 -26.507812 12.515625 -26.59375 C 12.585938 -26.6875 12.644531 -26.734375 12.6875 -26.734375 C 12.757812 -26.734375 12.863281 -26.828125 13 -27.015625 C 13.082031 -27.171875 13.207031 -27.25 13.375 -27.25 C 13.664062 -27.25 13.867188 -26.941406 13.984375 -26.328125 C 14.003906 -26.234375 14.035156 -26.054688 14.078125 -25.796875 C 14.128906 -25.535156 14.171875 -25.289062 14.203125 -25.0625 C 14.234375 -24.84375 14.25 -24.640625 14.25 -24.453125 C 14.25 -24.160156 14.191406 -23.925781 14.078125 -23.75 C 13.960938 -23.582031 13.90625 -23.375 13.90625 -23.125 C 13.90625 -22.601562 13.710938 -21.890625 13.328125 -20.984375 C 13.191406 -20.710938 13.054688 -20.273438 12.921875 -19.671875 C 12.785156 -19.078125 12.660156 -18.65625 12.546875 -18.40625 C 12.367188 -18 12.28125 -17.738281 12.28125 -17.625 C 12.28125 -17.53125 12.3125 -17.460938 12.375 -17.421875 C 12.625 -17.253906 13.191406 -17.148438 14.078125 -17.109375 C 14.941406 -17.046875 15.519531 -16.875 15.8125 -16.59375 C 16.789062 -15.757812 17.28125 -15.195312 17.28125 -14.90625 C 17.28125 -14.675781 17.335938 -14.523438 17.453125 -14.453125 C 17.703125 -14.253906 17.828125 -13.800781 17.828125 -13.09375 C 17.828125 -12.726562 17.859375 -12.242188 17.921875 -11.640625 C 17.972656 -11.046875 18 -10.726562 18 -10.6875 C 18 -10.4375 17.960938 -10.207031 17.890625 -10 C 17.503906 -8.84375 17.3125 -7.914062 17.3125 -7.21875 C 17.3125 -7.050781 17.390625 -6.96875 17.546875 -6.96875 C 17.773438 -6.96875 18.195312 -7.148438 18.8125 -7.515625 C 18.90625 -7.554688 18.960938 -7.578125 18.984375 -7.578125 C 19.066406 -7.578125 19.347656 -7.441406 19.828125 -7.171875 C 20.535156 -6.742188 20.890625 -6.242188 20.890625 -5.671875 C 20.890625 -5.109375 20.648438 -4.671875 20.171875 -4.359375 C 19.515625 -3.898438 18.695312 -3.671875 17.71875 -3.671875 C 17.0625 -3.671875 16.425781 -3.582031 15.8125 -3.40625 C 15.207031 -3.238281 14.609375 -3.15625 14.015625 -3.15625 L 13.5 -3.15625 C 13 -3.15625 12.679688 -3.226562 12.546875 -3.375 C 12.429688 -3.507812 12.285156 -3.578125 12.109375 -3.578125 C 11.609375 -3.578125 11.328125 -3.769531 11.265625 -4.15625 C 11.234375 -4.289062 11.207031 -4.445312 11.1875 -4.625 C 11.164062 -4.800781 11.148438 -4.941406 11.140625 -5.046875 C 11.128906 -5.148438 11.125 -5.238281 11.125 -5.3125 C 11.125 -5.46875 11.179688 -5.625 11.296875 -5.78125 C 11.429688 -5.96875 11.53125 -6.296875 11.59375 -6.765625 C 11.625 -7.242188 11.75 -7.695312 11.96875 -8.125 C 12.332031 -8.851562 12.515625 -9.707031 12.515625 -10.6875 C 12.515625 -11.5 12.253906 -11.960938 11.734375 -12.078125 L 11.59375 -12.078125 C 11.03125 -12.078125 10.671875 -11.90625 10.515625 -11.5625 C 9.765625 -10.382812 9.285156 -9.457031 9.078125 -8.78125 C 8.941406 -8.414062 8.851562 -8.222656 8.8125 -8.203125 C 8.738281 -8.171875 8.703125 -8.085938 8.703125 -7.953125 Z M 8.703125 -7.953125 "/></g></g></g><g fill="#ffffff" fill-opacity="1"><g transform="translate(252.65737, 29.891233)"><g><path d="M 10.4375 -13.5 C 10.101562 -13.570312 9.910156 -13.601562 9.859375 -13.59375 C 9.816406 -13.582031 9.738281 -13.519531 9.625 -13.40625 C 9.46875 -13.238281 9.273438 -13.101562 9.046875 -13 C 8.503906 -12.695312 8.003906 -12.128906 7.546875 -11.296875 C 7.347656 -10.910156 7.25 -10.554688 7.25 -10.234375 C 7.25 -10.191406 7.253906 -10.085938 7.265625 -9.921875 C 7.273438 -9.765625 7.28125 -9.644531 7.28125 -9.5625 C 7.28125 -9.445312 7.257812 -9.320312 7.21875 -9.1875 C 7.1875 -9.050781 7.171875 -8.972656 7.171875 -8.953125 C 7.171875 -8.835938 7.304688 -8.753906 7.578125 -8.703125 C 7.804688 -8.660156 8 -8.5625 8.15625 -8.40625 C 8.320312 -8.269531 8.628906 -8.203125 9.078125 -8.203125 C 9.484375 -8.203125 9.847656 -8.269531 10.171875 -8.40625 C 10.398438 -8.519531 10.617188 -8.691406 10.828125 -8.921875 C 11.046875 -9.160156 11.175781 -9.394531 11.21875 -9.625 C 11.25 -9.757812 11.34375 -10.007812 11.5 -10.375 C 11.59375 -10.550781 11.640625 -10.8125 11.640625 -11.15625 C 11.640625 -11.675781 11.5 -12.242188 11.21875 -12.859375 C 11.113281 -13.109375 11.019531 -13.265625 10.9375 -13.328125 C 10.851562 -13.398438 10.6875 -13.457031 10.4375 -13.5 Z M 14.859375 -16.296875 C 15.160156 -15.992188 15.3125 -15.804688 15.3125 -15.734375 C 15.3125 -15.671875 15.445312 -15.53125 15.71875 -15.3125 C 15.988281 -15.101562 16.125 -14.976562 16.125 -14.9375 C 16.125 -14.863281 16.210938 -14.644531 16.390625 -14.28125 C 16.523438 -13.988281 16.648438 -13.4375 16.765625 -12.625 C 16.878906 -11.820312 16.9375 -11.140625 16.9375 -10.578125 C 16.9375 -10.191406 16.914062 -9.96875 16.875 -9.90625 C 16.78125 -9.71875 16.734375 -9.507812 16.734375 -9.28125 C 16.734375 -8.644531 16.53125 -7.898438 16.125 -7.046875 C 15.738281 -6.242188 15.148438 -5.648438 14.359375 -5.265625 C 13.953125 -5.085938 13.664062 -4.921875 13.5 -4.765625 C 13.382812 -4.648438 13.21875 -4.554688 13 -4.484375 C 12.789062 -4.421875 12.507812 -4.351562 12.15625 -4.28125 C 11.8125 -4.21875 11.582031 -4.175781 11.46875 -4.15625 C 10.96875 -4.019531 10.660156 -3.953125 10.546875 -3.953125 C 10.117188 -3.859375 9.539062 -3.8125 8.8125 -3.8125 C 8.351562 -3.8125 8 -3.820312 7.75 -3.84375 C 7.394531 -3.882812 6.90625 -3.972656 6.28125 -4.109375 C 5.65625 -4.242188 5.273438 -4.359375 5.140625 -4.453125 C 5.003906 -4.546875 4.832031 -4.613281 4.625 -4.65625 C 4.394531 -4.726562 4.007812 -5.054688 3.46875 -5.640625 C 2.90625 -6.253906 2.597656 -6.707031 2.546875 -7 C 2.503906 -7.320312 2.378906 -7.707031 2.171875 -8.15625 C 1.992188 -8.59375 1.90625 -8.96875 1.90625 -9.28125 C 1.90625 -9.53125 1.914062 -9.757812 1.9375 -9.96875 C 2.007812 -11.351562 2.191406 -12.257812 2.484375 -12.6875 C 2.617188 -12.84375 2.734375 -13.09375 2.828125 -13.4375 C 2.867188 -13.570312 2.945312 -13.738281 3.0625 -13.9375 C 3.175781 -14.144531 3.300781 -14.363281 3.4375 -14.59375 C 3.570312 -14.820312 3.660156 -14.96875 3.703125 -15.03125 C 4.066406 -15.738281 4.75 -16.304688 5.75 -16.734375 C 6.0625 -16.847656 6.273438 -16.960938 6.390625 -17.078125 L 6.5625 -17.21875 C 6.851562 -17.21875 7.253906 -17.320312 7.765625 -17.53125 C 8.273438 -17.75 8.566406 -17.867188 8.640625 -17.890625 L 9.109375 -18.03125 C 9.140625 -18.03125 9.453125 -17.96875 10.046875 -17.84375 C 10.648438 -17.71875 10.972656 -17.65625 11.015625 -17.65625 C 11.703125 -17.65625 12.171875 -17.550781 12.421875 -17.34375 C 12.523438 -17.226562 12.71875 -17.148438 13 -17.109375 C 13.90625 -16.898438 14.523438 -16.628906 14.859375 -16.296875 Z M 14.859375 -16.296875 "/></g></g></g><g fill="#ffffff" fill-opacity="1"><g transform="translate(269.765398, 29.891233)"><g><path d="M 3.953125 -9.390625 C 4.054688 -9.273438 4.132812 -9.3125 4.1875 -9.5 C 4.25 -9.695312 4.203125 -9.796875 4.046875 -9.796875 C 3.953125 -9.796875 3.894531 -9.742188 3.875 -9.640625 C 3.851562 -9.535156 3.878906 -9.453125 3.953125 -9.390625 Z M 12.953125 -11.796875 C 12.953125 -11.910156 12.882812 -11.96875 12.75 -11.96875 C 12.613281 -11.96875 12.546875 -11.910156 12.546875 -11.796875 C 12.546875 -11.710938 12.613281 -11.671875 12.75 -11.671875 C 12.882812 -11.671875 12.953125 -11.710938 12.953125 -11.796875 Z M 20.71875 -13.234375 C 20.488281 -12.984375 20.375 -12.832031 20.375 -12.78125 C 20.375 -12.738281 20.207031 -12.492188 19.875 -12.046875 C 19.550781 -11.609375 19.390625 -11.378906 19.390625 -11.359375 C 19.390625 -11.265625 19.296875 -11.109375 19.109375 -10.890625 C 19.085938 -10.835938 19.035156 -10.753906 18.953125 -10.640625 C 18.878906 -10.535156 18.804688 -10.4375 18.734375 -10.34375 C 18.671875 -10.25 18.617188 -10.15625 18.578125 -10.0625 C 18.390625 -9.675781 18.0625 -9.15625 17.59375 -8.5 C 17.0625 -7.820312 16.726562 -7.367188 16.59375 -7.140625 C 16.238281 -6.617188 15.695312 -6.023438 14.96875 -5.359375 C 14.238281 -4.691406 13.691406 -4.289062 13.328125 -4.15625 C 13.109375 -4.0625 12.953125 -3.992188 12.859375 -3.953125 C 12.285156 -3.585938 11.671875 -3.40625 11.015625 -3.40625 C 10.722656 -3.40625 10.488281 -3.445312 10.3125 -3.53125 C 9.945312 -3.71875 9.734375 -3.945312 9.671875 -4.21875 C 9.617188 -4.488281 9.59375 -5.335938 9.59375 -6.765625 C 9.59375 -8.460938 9.570312 -9.335938 9.53125 -9.390625 L 9.484375 -9.390625 C 9.398438 -9.390625 9.257812 -9.226562 9.0625 -8.90625 C 8.875 -8.59375 8.679688 -8.25 8.484375 -7.875 C 8.296875 -7.5 8.175781 -7.28125 8.125 -7.21875 C 8.007812 -7.050781 7.894531 -6.847656 7.78125 -6.609375 C 7.675781 -6.378906 7.585938 -6.207031 7.515625 -6.09375 C 7.359375 -5.863281 7.179688 -5.535156 6.984375 -5.109375 C 6.796875 -4.691406 6.703125 -4.445312 6.703125 -4.375 C 6.703125 -4.3125 6.585938 -4.148438 6.359375 -3.890625 C 6.128906 -3.628906 6.015625 -3.488281 6.015625 -3.46875 C 5.878906 -3.21875 5.40625 -3.09375 4.59375 -3.09375 C 4.09375 -3.09375 3.726562 -3.148438 3.5 -3.265625 C 2.882812 -3.554688 2.5 -3.875 2.34375 -4.21875 C 2.113281 -4.695312 1.976562 -5.785156 1.9375 -7.484375 C 1.894531 -8.503906 1.863281 -9.046875 1.84375 -9.109375 C 1.789062 -9.222656 1.8125 -9.335938 1.90625 -9.453125 C 1.96875 -9.546875 2 -9.832031 2 -10.3125 C 2 -10.394531 1.992188 -10.570312 1.984375 -10.84375 C 1.972656 -11.125 1.96875 -11.363281 1.96875 -11.5625 L 1.96875 -12.3125 C 1.96875 -12.738281 1.984375 -13.207031 2.015625 -13.71875 C 2.054688 -14.226562 2.078125 -14.644531 2.078125 -14.96875 C 2.078125 -15.3125 2.125 -15.484375 2.21875 -15.484375 C 2.238281 -15.484375 2.316406 -15.601562 2.453125 -15.84375 C 2.628906 -16.375 3.070312 -16.640625 3.78125 -16.640625 C 4.113281 -16.640625 4.40625 -16.554688 4.65625 -16.390625 C 4.90625 -16.234375 5.03125 -16.125 5.03125 -16.0625 C 5.03125 -15.945312 5.125 -15.796875 5.3125 -15.609375 C 5.445312 -15.472656 5.5625 -15.1875 5.65625 -14.75 C 5.757812 -14.320312 5.820312 -14.078125 5.84375 -14.015625 C 5.9375 -13.765625 6.007812 -13.410156 6.0625 -12.953125 C 6.125 -12.078125 6.234375 -11.582031 6.390625 -11.46875 C 6.523438 -11.375 6.59375 -11.289062 6.59375 -11.21875 C 6.59375 -11.132812 6.613281 -11.09375 6.65625 -11.09375 C 6.707031 -11.09375 6.804688 -11.1875 6.953125 -11.375 C 7.097656 -11.570312 7.171875 -11.710938 7.171875 -11.796875 C 7.171875 -11.910156 7.285156 -12.15625 7.515625 -12.53125 C 7.742188 -12.90625 7.957031 -13.207031 8.15625 -13.4375 C 8.476562 -13.75 8.8125 -14.132812 9.15625 -14.59375 C 9.445312 -14.9375 9.867188 -15.367188 10.421875 -15.890625 C 10.984375 -16.410156 11.304688 -16.671875 11.390625 -16.671875 C 11.410156 -16.671875 11.445312 -16.644531 11.5 -16.59375 L 11.640625 -16.5 C 11.703125 -16.425781 11.789062 -16.359375 11.90625 -16.296875 C 12.019531 -16.242188 12.109375 -16.175781 12.171875 -16.09375 C 12.242188 -16.019531 12.300781 -15.90625 12.34375 -15.75 C 12.394531 -15.59375 12.625 -15.019531 13.03125 -14.03125 C 13.4375 -13.039062 13.675781 -12.378906 13.75 -12.046875 C 13.851562 -11.523438 13.925781 -11.21875 13.96875 -11.125 C 14.019531 -11.03125 14.101562 -10.984375 14.21875 -10.984375 C 14.5625 -10.984375 15.003906 -11.585938 15.546875 -12.796875 C 15.722656 -13.179688 15.878906 -13.414062 16.015625 -13.5 C 16.179688 -13.613281 16.265625 -13.738281 16.265625 -13.875 C 16.265625 -13.925781 16.503906 -14.210938 16.984375 -14.734375 C 17.472656 -15.253906 17.71875 -15.535156 17.71875 -15.578125 C 17.71875 -15.648438 17.773438 -15.6875 17.890625 -15.6875 C 17.960938 -15.6875 18.097656 -15.832031 18.296875 -16.125 C 18.503906 -16.414062 18.628906 -16.570312 18.671875 -16.59375 C 18.722656 -16.625 19.085938 -16.640625 19.765625 -16.640625 C 20.421875 -16.609375 20.851562 -16.515625 21.0625 -16.359375 C 21.445312 -16.046875 21.546875 -15.773438 21.359375 -15.546875 C 21.296875 -15.429688 21.285156 -15.257812 21.328125 -15.03125 C 21.347656 -14.945312 21.359375 -14.800781 21.359375 -14.59375 C 21.359375 -14.25 21.300781 -14.019531 21.1875 -13.90625 C 21.101562 -13.820312 21.0625 -13.742188 21.0625 -13.671875 C 21.0625 -13.628906 20.945312 -13.484375 20.71875 -13.234375 Z M 20.71875 -13.234375 "/></g></g></g></svg>