<svg xmlns="http://www.w3.org/2000/svg" xmlns:xlink="http://www.w3.org/1999/xlink" width="500" zoomAndPan="magnify" viewBox="0 0 375 135.12" height="170" preserveAspectRatio="xMidYMid meet" version="1.0"><defs><g/><clipPath id="c50a4a8e01"><path d="M 1.214844 0 L 373.785156 0 L 373.785156 126.675781 L 1.214844 126.675781 Z M 1.214844 0 " clip-rule="nonzero"/></clipPath><clipPath id="cd72dc2e4d"><path d="M 1.214844 31 L 373.785156 31 L 373.785156 94 L 1.214844 94 Z M 1.214844 31 " clip-rule="nonzero"/></clipPath><clipPath id="7ecf087d1d"><path d="M 57 0.476562 L 108 0.476562 L 108 49 L 57 49 Z M 57 0.476562 " clip-rule="nonzero"/></clipPath><clipPath id="74e63fdce6"><rect x="0" width="373" y="0" height="63"/></clipPath></defs><g clip-path="url(#c50a4a8e01)"><path fill="#ffffff" d="M 1.214844 0 L 373.785156 0 L 373.785156 126.675781 L 1.214844 126.675781 Z M 1.214844 0 " fill-opacity="1" fill-rule="nonzero"/><path fill="#000000" d="M 1.214844 0 L 373.785156 0 L 373.785156 126.675781 L 1.214844 126.675781 Z M 1.214844 0 " fill-opacity="1" fill-rule="nonzero"/></g><g clip-path="url(#cd72dc2e4d)"><g transform="matrix(1, 0, 0, 1, 1, 31)"><g clip-path="url(#74e63fdce6)"><g fill="#ffffff" fill-opacity="1"><g transform="translate(0.213235, 60.511989)"><g><path d="M 26.140625 -14.96875 C 26.140625 -15.21875 26.046875 -15.34375 25.859375 -15.34375 C 25.679688 -15.34375 25.59375 -15.21875 25.59375 -14.96875 C 25.59375 -14.789062 25.679688 -14.703125 25.859375 -14.703125 C 26.046875 -14.703125 26.140625 -14.789062 26.140625 -14.96875 Z M 29.140625 -53.875 C 28.773438 -53.539062 28.59375 -53.039062 28.59375 -52.375 C 28.59375 -51.707031 28.5 -51.160156 28.3125 -50.734375 C 28.132812 -50.316406 28.046875 -49.742188 28.046875 -49.015625 C 28.046875 -47.984375 28.132812 -47.46875 28.3125 -47.46875 C 28.5 -47.46875 28.59375 -47.253906 28.59375 -46.828125 C 28.59375 -46.472656 28.5 -46.296875 28.3125 -46.296875 C 28.132812 -46.296875 28.046875 -45.867188 28.046875 -45.015625 C 28.046875 -44.234375 28.132812 -43.84375 28.3125 -43.84375 C 28.5 -43.84375 28.59375 -40.570312 28.59375 -34.03125 C 28.59375 -27.5625 28.5 -24.234375 28.3125 -24.046875 C 28.070312 -23.929688 28.132812 -23.628906 28.5 -23.140625 C 28.800781 -22.773438 28.953125 -21.382812 28.953125 -18.96875 L 28.953125 -17.703125 C 28.953125 -16.367188 29.070312 -15.578125 29.3125 -15.328125 C 29.5625 -15.085938 30.289062 -14.847656 31.5 -14.609375 C 32.945312 -14.367188 33.894531 -14.171875 34.34375 -14.015625 C 34.800781 -13.867188 35.03125 -13.613281 35.03125 -13.25 C 35.03125 -12.945312 34.03125 -12.796875 32.03125 -12.796875 C 30.039062 -12.796875 28.984375 -12.703125 28.859375 -12.515625 C 28.742188 -12.335938 26.234375 -12.25 21.328125 -12.25 C 19.328125 -12.25 18.296875 -12.28125 18.234375 -12.34375 C 18.179688 -12.40625 18.210938 -12.617188 18.328125 -12.984375 C 18.453125 -13.285156 18.910156 -13.4375 19.703125 -13.4375 C 21.453125 -13.4375 22.78125 -14.3125 23.6875 -16.0625 C 24.113281 -16.789062 24.328125 -18.210938 24.328125 -20.328125 C 24.328125 -22.328125 24.207031 -23.8125 23.96875 -24.78125 C 23.601562 -26.832031 23.421875 -34.332031 23.421875 -47.28125 L 23.421875 -53.921875 L 21.328125 -54.09375 C 19.328125 -54.28125 17.179688 -54.398438 14.890625 -54.453125 C 13.921875 -54.515625 12.890625 -54.546875 11.796875 -54.546875 C 10.890625 -54.546875 10.253906 -54.363281 9.890625 -54 C 9.410156 -53.519531 9.046875 -53.28125 8.796875 -53.28125 C 8.617188 -53.28125 8.4375 -52.851562 8.25 -52 C 8.070312 -51.15625 7.925781 -50.703125 7.8125 -50.640625 C 7.5625 -50.523438 7.4375 -50.195312 7.4375 -49.65625 C 7.4375 -48.988281 7.253906 -48.625 6.890625 -48.5625 C 6.773438 -48.5 6.625 -48.46875 6.4375 -48.46875 C 5.894531 -48.46875 5.625 -49.222656 5.625 -50.734375 C 5.625 -52.003906 5.535156 -52.703125 5.359375 -52.828125 C 5.109375 -53.003906 4.984375 -53.640625 4.984375 -54.734375 C 4.984375 -56.242188 5.164062 -57.179688 5.53125 -57.546875 L 6.078125 -58.1875 L 24.78125 -58.09375 C 37.1875 -57.96875 43.84375 -57.847656 44.75 -57.734375 C 45.53125 -57.609375 46.039062 -57.332031 46.28125 -56.90625 C 46.53125 -56.488281 46.65625 -55.582031 46.65625 -54.1875 L 46.65625 -52.828125 L 46.5625 -49.46875 C 45.414062 -49.34375 44.84375 -49.492188 44.84375 -49.921875 C 44.84375 -50.347656 44.75 -50.5625 44.5625 -50.5625 C 44.382812 -50.5625 44.296875 -50.800781 44.296875 -51.28125 C 44.296875 -51.820312 44.175781 -52.09375 43.9375 -52.09375 C 43.75 -52.09375 43.65625 -52.304688 43.65625 -52.734375 C 43.65625 -53.097656 43.566406 -53.28125 43.390625 -53.28125 C 43.140625 -53.28125 43.015625 -53.492188 43.015625 -53.921875 C 43.015625 -54.160156 42.9375 -54.382812 42.78125 -54.59375 C 42.632812 -54.800781 42.472656 -54.9375 42.296875 -55 C 42.117188 -55.0625 41.96875 -55.03125 41.84375 -54.90625 C 41.664062 -54.726562 40.609375 -54.640625 38.671875 -54.640625 C 36.972656 -54.640625 35.941406 -54.726562 35.578125 -54.90625 C 35.273438 -55.09375 35.0625 -55.066406 34.9375 -54.828125 C 34.882812 -54.640625 34.070312 -54.546875 32.5 -54.546875 L 32.3125 -54.546875 C 31.34375 -54.546875 30.660156 -54.515625 30.265625 -54.453125 C 29.878906 -54.398438 29.503906 -54.207031 29.140625 -53.875 Z M 29.140625 -53.875 "/></g></g></g><g clip-path="url(#7ecf087d1d)"><g fill="#ffffff" fill-opacity="1"><g transform="translate(51.937115, 60.511989)"><g><path d="M 44.203125 -52.921875 C 44.203125 -53.222656 44.09375 -53.492188 43.875 -53.734375 C 43.664062 -53.972656 43.5625 -54.273438 43.5625 -54.640625 C 43.5625 -55.117188 43.46875 -55.359375 43.28125 -55.359375 C 43.101562 -55.359375 42.957031 -55.664062 42.84375 -56.28125 C 42.65625 -56.9375 42.316406 -57.265625 41.828125 -57.265625 C 41.347656 -57.265625 41.109375 -57.351562 41.109375 -57.53125 C 41.109375 -57.71875 40.894531 -57.8125 40.46875 -57.8125 C 40.050781 -57.8125 39.84375 -58.023438 39.84375 -58.453125 C 39.84375 -58.753906 40.007812 -58.9375 40.34375 -59 C 40.675781 -59.0625 41.628906 -59.09375 43.203125 -59.09375 C 45.503906 -59.09375 46.6875 -59.179688 46.75 -59.359375 C 46.863281 -59.597656 47.195312 -59.71875 47.75 -59.71875 C 48.226562 -59.71875 48.46875 -59.597656 48.46875 -59.359375 C 48.46875 -59.179688 48.800781 -59.09375 49.46875 -59.09375 C 50.25 -59.09375 50.671875 -59.179688 50.734375 -59.359375 C 50.859375 -59.597656 51.191406 -59.71875 51.734375 -59.71875 C 52.222656 -59.71875 52.46875 -59.597656 52.46875 -59.359375 C 52.46875 -59.179688 52.644531 -59.09375 53 -59.09375 C 53.726562 -59.09375 54.09375 -58.847656 54.09375 -58.359375 C 54.09375 -57.628906 53.519531 -57.265625 52.375 -57.265625 C 51.582031 -57.265625 51.1875 -57.085938 51.1875 -56.734375 C 51.1875 -56.484375 50.941406 -56.085938 50.453125 -55.546875 C 49.972656 -55.003906 49.613281 -54.734375 49.375 -54.734375 C 49.25 -54.734375 49.1875 -52.128906 49.1875 -46.921875 C 49.1875 -31.316406 49.367188 -23.332031 49.734375 -22.96875 C 49.921875 -22.78125 50.015625 -21.660156 50.015625 -19.609375 C 50.015625 -17.609375 50.285156 -16.304688 50.828125 -15.703125 C 51.316406 -15.097656 51.710938 -14.796875 52.015625 -14.796875 C 52.191406 -14.796875 52.429688 -14.582031 52.734375 -14.15625 C 52.972656 -13.738281 53.519531 -13.53125 54.375 -13.53125 C 55.15625 -13.53125 55.546875 -13.347656 55.546875 -12.984375 C 55.546875 -12.617188 55.273438 -12.3125 54.734375 -12.0625 C 54.191406 -11.820312 53.78125 -11.6875 53.5 -11.65625 C 53.226562 -11.632812 53.09375 -11.742188 53.09375 -11.984375 C 53.09375 -12.160156 52.25 -12.25 50.5625 -12.25 C 50.257812 -12.25 49.679688 -12.234375 48.828125 -12.203125 C 47.984375 -12.171875 47.257812 -12.15625 46.65625 -12.15625 C 46.113281 -12.15625 45.429688 -12.140625 44.609375 -12.109375 C 43.796875 -12.085938 43.238281 -12.078125 42.9375 -12.078125 C 40.03125 -12.078125 38.578125 -12.347656 38.578125 -12.890625 C 38.578125 -13.734375 39.363281 -14.15625 40.9375 -14.15625 C 41.84375 -14.15625 42.296875 -14.25 42.296875 -14.4375 C 42.296875 -14.675781 42.535156 -14.796875 43.015625 -14.796875 C 43.378906 -14.796875 43.847656 -14.988281 44.421875 -15.375 C 45.003906 -15.769531 45.351562 -16 45.46875 -16.0625 C 45.832031 -16.1875 46.015625 -18.09375 46.015625 -21.78125 C 46.015625 -25.476562 45.894531 -27.382812 45.65625 -27.5 C 45.476562 -27.5625 45.390625 -28.769531 45.390625 -31.125 C 45.390625 -33.363281 45.234375 -34.695312 44.921875 -35.125 C 44.566406 -35.550781 42.085938 -35.765625 37.484375 -35.765625 L 23.515625 -35.765625 L 16.421875 -35.671875 L 16.421875 -25.6875 C 16.421875 -23.144531 16.421875 -21.253906 16.421875 -20.015625 C 16.421875 -18.773438 16.453125 -17.789062 16.515625 -17.0625 C 16.578125 -16.332031 16.640625 -15.90625 16.703125 -15.78125 C 16.765625 -15.664062 16.882812 -15.578125 17.0625 -15.515625 C 17.488281 -15.398438 17.703125 -15.25 17.703125 -15.0625 C 17.703125 -14.882812 18.304688 -14.796875 19.515625 -14.796875 C 20.785156 -14.796875 21.421875 -14.675781 21.421875 -14.4375 C 21.421875 -14.25 21.601562 -14.15625 21.96875 -14.15625 C 22.144531 -14.15625 22.351562 -14.078125 22.59375 -13.921875 C 22.84375 -13.773438 23.023438 -13.59375 23.140625 -13.375 C 23.265625 -13.164062 23.265625 -13.035156 23.140625 -12.984375 C 22.960938 -12.796875 22.453125 -12.765625 21.609375 -12.890625 L 21.234375 -12.890625 C 18.453125 -12.890625 16.695312 -12.585938 15.96875 -11.984375 C 15.726562 -11.742188 15.394531 -11.742188 14.96875 -11.984375 C 14.488281 -12.222656 13.066406 -12.34375 10.703125 -12.34375 C 8.222656 -12.34375 6.925781 -12.40625 6.8125 -12.53125 C 6.625 -12.707031 6.617188 -12.914062 6.796875 -13.15625 C 6.984375 -13.40625 7.226562 -13.53125 7.53125 -13.53125 C 7.957031 -13.53125 8.171875 -13.648438 8.171875 -13.890625 C 8.171875 -14.066406 8.472656 -14.15625 9.078125 -14.15625 C 9.679688 -14.15625 9.984375 -14.25 9.984375 -14.4375 C 9.984375 -14.675781 10.285156 -14.796875 10.890625 -14.796875 L 11.890625 -14.796875 L 11.890625 -34.125 C 11.890625 -47.070312 11.769531 -53.546875 11.53125 -53.546875 C 11.34375 -53.546875 11.25 -53.820312 11.25 -54.375 C 11.25 -54.976562 10.976562 -55.429688 10.4375 -55.734375 C 9.894531 -56.035156 8.65625 -56.425781 6.71875 -56.90625 C 5.625 -57.144531 5.078125 -57.476562 5.078125 -57.90625 C 5.078125 -58.144531 5.289062 -58.296875 5.71875 -58.359375 C 6.144531 -58.421875 7.351562 -58.453125 9.34375 -58.453125 C 12.3125 -58.453125 13.828125 -58.539062 13.890625 -58.71875 C 14.003906 -58.96875 14.457031 -59.09375 15.25 -59.09375 C 16.09375 -59.09375 16.546875 -59.179688 16.609375 -59.359375 C 16.671875 -59.597656 17.125 -59.71875 17.96875 -59.71875 C 19.539062 -59.71875 20.660156 -59.445312 21.328125 -58.90625 C 21.390625 -58.84375 21.296875 -58.675781 21.046875 -58.40625 C 20.804688 -58.132812 20.503906 -57.875 20.140625 -57.625 C 19.785156 -57.382812 19.546875 -57.265625 19.421875 -57.265625 C 19.117188 -57.265625 18.96875 -57.175781 18.96875 -57 C 18.96875 -56.820312 18.664062 -56.609375 18.0625 -56.359375 C 16.96875 -55.878906 16.421875 -54.882812 16.421875 -53.375 C 16.421875 -52.644531 16.332031 -52.25 16.15625 -52.1875 C 15.976562 -52.125 15.890625 -51.546875 15.890625 -50.453125 C 15.890625 -49.367188 15.976562 -48.796875 16.15625 -48.734375 C 16.332031 -48.679688 16.421875 -46.898438 16.421875 -43.390625 L 16.421875 -38.125 C 19.566406 -38.125 24.300781 -38.148438 30.625 -38.203125 C 36.957031 -38.265625 41.695312 -38.296875 44.84375 -38.296875 L 44.84375 -40.578125 C 44.84375 -42.023438 44.898438 -42.75 45.015625 -42.75 C 45.265625 -42.75 45.390625 -43.050781 45.390625 -43.65625 C 45.390625 -44.257812 45.296875 -44.625 45.109375 -44.75 C 44.867188 -44.863281 44.75 -46.164062 44.75 -48.65625 C 44.75 -51.070312 44.65625 -52.28125 44.46875 -52.28125 C 44.289062 -52.28125 44.203125 -52.492188 44.203125 -52.921875 Z M 44.203125 -52.921875 "/></g></g></g></g><g fill="#ffffff" fill-opacity="1"><g transform="translate(112.55386, 60.511989)"><g><path d="M 41.65625 -16.796875 C 41.476562 -16.492188 41.390625 -16.191406 41.390625 -15.890625 C 41.390625 -15.585938 41.28125 -15.296875 41.0625 -15.015625 C 40.851562 -14.742188 40.75 -14.425781 40.75 -14.0625 C 40.75 -13.757812 40.597656 -13.367188 40.296875 -12.890625 C 39.816406 -12.285156 39.125 -11.984375 38.21875 -11.984375 C 37.488281 -11.984375 36.851562 -12.015625 36.3125 -12.078125 C 35.394531 -12.191406 29.945312 -12.25 19.96875 -12.25 L 5.625 -12.25 C 5.257812 -12.25 5.078125 -12.398438 5.078125 -12.703125 C 5.078125 -13.003906 5.300781 -13.320312 5.75 -13.65625 C 6.207031 -13.988281 6.679688 -14.15625 7.171875 -14.15625 C 7.710938 -14.15625 8.378906 -14.488281 9.171875 -15.15625 C 9.890625 -15.820312 10.25 -16.546875 10.25 -17.328125 C 10.25 -18.117188 10.191406 -18.515625 10.078125 -18.515625 C 9.835938 -18.515625 9.71875 -19.0625 9.71875 -20.15625 C 9.71875 -20.875 9.804688 -21.296875 9.984375 -21.421875 C 10.160156 -21.546875 10.25 -22 10.25 -22.78125 C 10.25 -23.570312 10.160156 -24.023438 9.984375 -24.140625 C 9.742188 -24.265625 9.625 -29.132812 9.625 -38.75 C 9.625 -48.375 9.53125 -53.242188 9.34375 -53.359375 C 9.164062 -53.484375 9.078125 -53.757812 9.078125 -54.1875 C 9.078125 -54.613281 8.863281 -54.828125 8.4375 -54.828125 C 8.019531 -54.828125 7.8125 -54.914062 7.8125 -55.09375 C 7.8125 -55.269531 7.414062 -55.359375 6.625 -55.359375 C 5.84375 -55.359375 5.328125 -55.632812 5.078125 -56.1875 C 4.597656 -57.269531 4.898438 -57.8125 5.984375 -57.8125 C 6.410156 -57.8125 6.625 -57.9375 6.625 -58.1875 C 6.625 -58.363281 6.710938 -58.453125 6.890625 -58.453125 C 7.078125 -58.453125 7.171875 -58.359375 7.171875 -58.171875 C 7.171875 -57.992188 7.710938 -57.90625 8.796875 -57.90625 C 10.316406 -57.90625 11.195312 -58.023438 11.4375 -58.265625 C 11.675781 -58.515625 12.066406 -58.488281 12.609375 -58.1875 C 13.160156 -57.882812 13.617188 -57.851562 13.984375 -58.09375 C 14.285156 -58.332031 15.429688 -58.453125 17.421875 -58.453125 C 18.878906 -58.453125 19.640625 -58.363281 19.703125 -58.1875 C 19.816406 -57.9375 20.054688 -57.8125 20.421875 -57.8125 C 20.847656 -57.8125 21.0625 -57.9375 21.0625 -58.1875 C 21.0625 -58.300781 21.253906 -58.390625 21.640625 -58.453125 C 22.035156 -58.515625 22.445312 -58.5 22.875 -58.40625 C 23.300781 -58.3125 23.539062 -58.207031 23.59375 -58.09375 C 23.65625 -57.851562 23.835938 -57.851562 24.140625 -58.09375 C 24.265625 -58.207031 24.535156 -58.3125 24.953125 -58.40625 C 25.378906 -58.5 25.757812 -58.515625 26.09375 -58.453125 C 26.425781 -58.390625 26.59375 -58.300781 26.59375 -58.1875 C 26.59375 -57.9375 26.710938 -57.8125 26.953125 -57.8125 C 27.140625 -57.8125 27.503906 -57.898438 28.046875 -58.078125 C 28.585938 -58.265625 28.914062 -58.359375 29.03125 -58.359375 C 29.15625 -58.359375 29.21875 -58.328125 29.21875 -58.265625 C 29.34375 -57.960938 30.613281 -57.8125 33.03125 -57.8125 C 35.519531 -57.8125 36.765625 -57.71875 36.765625 -57.53125 C 36.765625 -57.351562 36.882812 -57.265625 37.125 -57.265625 C 37.363281 -57.265625 37.617188 -56.976562 37.890625 -56.40625 C 38.160156 -55.832031 38.296875 -55.273438 38.296875 -54.734375 C 38.296875 -54.066406 38.476562 -53.644531 38.84375 -53.46875 C 39.269531 -53.21875 39.484375 -52.519531 39.484375 -51.375 C 39.484375 -50.164062 39.601562 -49.5 39.84375 -49.375 C 40.082031 -49.25 40.1875 -48.945312 40.15625 -48.46875 C 40.132812 -47.988281 39.96875 -47.75 39.65625 -47.75 C 39.351562 -47.75 38.882812 -48.066406 38.25 -48.703125 C 37.625 -49.335938 37.3125 -49.773438 37.3125 -50.015625 C 37.3125 -50.316406 37.097656 -50.90625 36.671875 -51.78125 C 36.242188 -52.65625 35.941406 -53.125 35.765625 -53.1875 C 35.523438 -53.3125 35.070312 -53.707031 34.40625 -54.375 L 33.40625 -55.359375 L 29.5 -55.359375 C 26.894531 -55.359375 25.5625 -55.269531 25.5 -55.09375 C 25.445312 -54.914062 24.992188 -54.828125 24.140625 -54.828125 C 22.992188 -54.828125 22.269531 -54.945312 21.96875 -55.1875 C 21.78125 -55.425781 21.367188 -55.425781 20.734375 -55.1875 C 20.097656 -54.945312 19.722656 -54.828125 19.609375 -54.828125 C 19.242188 -54.828125 18.695312 -54.6875 17.96875 -54.40625 C 17.238281 -54.132812 16.753906 -53.878906 16.515625 -53.640625 C 16.273438 -53.398438 16.035156 -53.28125 15.796875 -53.28125 C 15.609375 -53.28125 15.457031 -52.976562 15.34375 -52.375 C 15.28125 -52.132812 15.003906 -51.679688 14.515625 -51.015625 C 14.160156 -50.585938 13.984375 -48.4375 13.984375 -44.5625 C 13.984375 -41.71875 14.007812 -40.035156 14.0625 -39.515625 C 14.125 -39.003906 14.273438 -38.75 14.515625 -38.75 C 15.003906 -38.75 15.28125 -38.660156 15.34375 -38.484375 C 15.40625 -38.304688 17.367188 -38.21875 21.234375 -38.21875 C 26.378906 -38.21875 29.222656 -38.335938 29.765625 -38.578125 C 30.316406 -38.816406 30.710938 -39.207031 30.953125 -39.75 C 31.191406 -40.351562 31.40625 -40.65625 31.59375 -40.65625 C 31.707031 -40.65625 31.765625 -40.867188 31.765625 -41.296875 C 31.765625 -41.597656 31.945312 -42.019531 32.3125 -42.5625 C 32.675781 -43.113281 32.976562 -43.390625 33.21875 -43.390625 C 33.582031 -43.390625 33.867188 -43.097656 34.078125 -42.515625 C 34.296875 -41.941406 34.253906 -41.566406 33.953125 -41.390625 C 33.765625 -41.265625 33.671875 -40.804688 33.671875 -40.015625 C 33.671875 -39.234375 33.765625 -38.785156 33.953125 -38.671875 C 34.191406 -38.546875 34.3125 -38.117188 34.3125 -37.390625 C 34.3125 -36.671875 34.191406 -36.25 33.953125 -36.125 C 33.765625 -36 33.671875 -35.0625 33.671875 -33.3125 L 33.671875 -31.3125 C 33.671875 -29.976562 33.519531 -29.3125 33.21875 -29.3125 L 33.125 -29.3125 C 32.882812 -29.375 32.503906 -29.828125 31.984375 -30.671875 C 31.472656 -31.523438 31.21875 -32.160156 31.21875 -32.578125 C 31.21875 -33.003906 31.097656 -33.21875 30.859375 -33.21875 C 30.679688 -33.21875 30.59375 -33.398438 30.59375 -33.765625 C 30.59375 -34.367188 30.210938 -34.726562 29.453125 -34.84375 C 28.691406 -34.96875 26.46875 -35.03125 22.78125 -35.03125 C 18.238281 -35.03125 15.632812 -34.941406 14.96875 -34.765625 C 14.488281 -34.578125 14.203125 -34.394531 14.109375 -34.21875 C 14.023438 -34.039062 13.984375 -33.585938 13.984375 -32.859375 C 13.984375 -31.890625 14.070312 -31.40625 14.25 -31.40625 C 14.488281 -31.40625 14.609375 -29.316406 14.609375 -25.140625 C 14.609375 -20.847656 14.695312 -18.671875 14.875 -18.609375 C 15.0625 -18.546875 15.15625 -18.300781 15.15625 -17.875 C 15.15625 -17.269531 15.59375 -16.710938 16.46875 -16.203125 C 17.351562 -15.691406 18.304688 -15.4375 19.328125 -15.4375 C 19.816406 -15.4375 20.117188 -15.3125 20.234375 -15.0625 C 20.484375 -14.820312 22.96875 -14.703125 27.6875 -14.703125 C 32.46875 -14.703125 34.859375 -14.820312 34.859375 -15.0625 C 34.859375 -15.3125 35.066406 -15.4375 35.484375 -15.4375 C 35.910156 -15.4375 36.125 -15.523438 36.125 -15.703125 C 36.125 -15.878906 36.335938 -15.96875 36.765625 -15.96875 C 37.128906 -15.96875 37.3125 -16.09375 37.3125 -16.34375 C 37.3125 -16.457031 37.78125 -17 38.71875 -17.96875 C 39.65625 -18.9375 40.125 -19.515625 40.125 -19.703125 C 40.125 -19.941406 40.210938 -20.0625 40.390625 -20.0625 C 40.628906 -20.0625 40.75 -20.242188 40.75 -20.609375 C 40.75 -21.023438 40.84375 -21.234375 41.03125 -21.234375 C 41.269531 -21.234375 41.390625 -21.382812 41.390625 -21.6875 C 41.390625 -22.175781 41.539062 -22.523438 41.84375 -22.734375 C 42.144531 -22.941406 42.507812 -22.867188 42.9375 -22.515625 C 43.351562 -22.085938 43.472656 -21.570312 43.296875 -20.96875 C 43.171875 -20.363281 43.015625 -20.0625 42.828125 -20.0625 C 42.648438 -20.0625 42.5625 -19.847656 42.5625 -19.421875 C 42.5625 -19.117188 42.457031 -18.832031 42.25 -18.5625 C 42.039062 -18.289062 41.9375 -18.003906 41.9375 -17.703125 C 41.9375 -17.398438 41.84375 -17.097656 41.65625 -16.796875 Z M 41.65625 -16.796875 "/></g></g></g><g fill="#ffffff" fill-opacity="1"><g transform="translate(161.101714, 60.511989)"><g/></g></g><g fill="#ffffff" fill-opacity="1"><g transform="translate(183.787628, 60.511989)"><g><path d="M 15.15625 -56.359375 C 15.15625 -56.609375 15.0625 -56.734375 14.875 -56.734375 C 14.695312 -56.734375 14.609375 -56.609375 14.609375 -56.359375 C 14.609375 -56.179688 14.695312 -56.09375 14.875 -56.09375 C 15.0625 -56.09375 15.15625 -56.179688 15.15625 -56.359375 Z M 13.984375 -51.1875 C 13.984375 -51.488281 13.875 -51.757812 13.65625 -52 C 13.445312 -52.25 13.34375 -52.554688 13.34375 -52.921875 C 13.34375 -53.398438 13.175781 -53.640625 12.84375 -53.640625 C 12.507812 -53.640625 12.3125 -53.425781 12.25 -53 C 12.1875 -52.882812 12.15625 -52.34375 12.15625 -51.375 C 12.15625 -48.101562 12.335938 -44.171875 12.703125 -39.578125 C 12.941406 -36.304688 13.0625 -34.457031 13.0625 -34.03125 C 13.007812 -32.15625 12.984375 -29.796875 12.984375 -26.953125 C 12.984375 -26.472656 12.992188 -25.882812 13.015625 -25.1875 C 13.046875 -24.488281 13.0625 -24.109375 13.0625 -24.046875 C 13.0625 -23.203125 13.109375 -22.175781 13.203125 -20.96875 C 13.296875 -19.757812 13.382812 -18.710938 13.46875 -17.828125 C 13.5625 -16.953125 13.640625 -16.515625 13.703125 -16.515625 C 13.890625 -16.515625 13.984375 -16.304688 13.984375 -15.890625 C 13.984375 -15.523438 14.191406 -15.34375 14.609375 -15.34375 C 14.972656 -15.34375 15.15625 -15.21875 15.15625 -14.96875 C 15.15625 -14.789062 15.488281 -14.703125 16.15625 -14.703125 C 16.757812 -14.703125 17.0625 -14.613281 17.0625 -14.4375 C 17.0625 -14.3125 17.195312 -14.21875 17.46875 -14.15625 C 17.738281 -14.09375 18.039062 -14.09375 18.375 -14.15625 C 18.707031 -14.21875 18.9375 -14.3125 19.0625 -14.4375 C 19.300781 -14.613281 19.628906 -14.488281 20.046875 -14.0625 C 20.472656 -13.644531 20.671875 -13.34375 20.640625 -13.15625 C 20.617188 -12.976562 20.332031 -12.890625 19.78125 -12.890625 C 19.175781 -12.890625 18.816406 -12.769531 18.703125 -12.53125 C 18.578125 -12.34375 18.164062 -12.25 17.46875 -12.25 C 16.769531 -12.25 16.421875 -12.34375 16.421875 -12.53125 C 16.421875 -12.769531 15.03125 -12.890625 12.25 -12.890625 C 9.53125 -12.890625 8.171875 -12.769531 8.171875 -12.53125 C 8.171875 -12.34375 7.867188 -12.25 7.265625 -12.25 C 6.835938 -12.25 6.578125 -12.296875 6.484375 -12.390625 C 6.398438 -12.484375 6.359375 -12.738281 6.359375 -13.15625 C 6.359375 -13.457031 6.367188 -13.65625 6.390625 -13.75 C 6.421875 -13.84375 6.507812 -13.914062 6.65625 -13.96875 C 6.8125 -14.03125 7.101562 -14.0625 7.53125 -14.0625 C 8.375 -14.0625 8.796875 -14.1875 8.796875 -14.4375 C 8.796875 -14.613281 8.953125 -14.703125 9.265625 -14.703125 C 9.503906 -14.703125 9.863281 -14.945312 10.34375 -15.4375 C 10.707031 -15.914062 10.890625 -17.910156 10.890625 -21.421875 C 10.890625 -25.046875 10.859375 -28.375 10.796875 -31.40625 C 10.679688 -41.570312 10.5 -46.835938 10.25 -47.203125 C 10.070312 -47.441406 9.984375 -49.015625 9.984375 -51.921875 L 9.984375 -56.09375 L 9.265625 -56.09375 C 8.773438 -56.09375 8.46875 -56.179688 8.34375 -56.359375 C 8.226562 -56.484375 7.894531 -56.585938 7.34375 -56.671875 C 6.800781 -56.765625 6.285156 -56.882812 5.796875 -57.03125 C 5.316406 -57.1875 5.078125 -57.390625 5.078125 -57.640625 C 5.078125 -58.054688 5.316406 -58.265625 5.796875 -58.265625 C 6.285156 -58.265625 6.625 -58.359375 6.8125 -58.546875 C 7.050781 -58.785156 9.378906 -58.90625 13.796875 -58.90625 C 14.460938 -58.90625 15.351562 -58.921875 16.46875 -58.953125 C 17.59375 -58.984375 18.335938 -59 18.703125 -59 C 19.066406 -59 19.425781 -59 19.78125 -59 C 20.144531 -59 20.445312 -59 20.6875 -59 L 20.96875 -58.90625 C 21.207031 -58.84375 21.328125 -58.691406 21.328125 -58.453125 C 21.328125 -58.148438 21.113281 -57.832031 20.6875 -57.5 C 20.269531 -57.164062 19.816406 -57 19.328125 -57 C 19.023438 -57 18.570312 -56.695312 17.96875 -56.09375 C 17.363281 -55.488281 17.0625 -55.035156 17.0625 -54.734375 C 17.0625 -54.429688 17.148438 -54.28125 17.328125 -54.28125 C 17.515625 -54.28125 17.671875 -53.976562 17.796875 -53.375 C 17.910156 -52.882812 18.179688 -52.367188 18.609375 -51.828125 C 18.847656 -51.585938 19.191406 -51.007812 19.640625 -50.09375 C 20.097656 -49.1875 20.421875 -48.644531 20.609375 -48.46875 C 20.785156 -48.226562 21.144531 -47.5625 21.6875 -46.46875 C 22.238281 -45.382812 22.539062 -44.78125 22.59375 -44.65625 C 22.78125 -44.414062 22.875 -44.023438 22.875 -43.484375 C 22.875 -43.117188 22.960938 -42.9375 23.140625 -42.9375 C 23.390625 -42.9375 23.515625 -42.753906 23.515625 -42.390625 C 23.515625 -42.148438 23.816406 -41.632812 24.421875 -40.84375 C 25.023438 -40.0625 25.328125 -39.515625 25.328125 -39.203125 C 25.328125 -38.960938 25.519531 -38.507812 25.90625 -37.84375 C 26.300781 -37.175781 26.5 -36.691406 26.5 -36.390625 C 26.5 -36.210938 26.816406 -35.503906 27.453125 -34.265625 C 28.085938 -33.023438 28.40625 -32.285156 28.40625 -32.046875 C 28.40625 -31.742188 28.5 -31.59375 28.6875 -31.59375 C 28.925781 -31.59375 29.046875 -31.4375 29.046875 -31.125 C 29.046875 -30.46875 29.46875 -29.65625 30.3125 -28.6875 C 30.675781 -28.195312 30.859375 -27.863281 30.859375 -27.6875 C 30.859375 -27.382812 30.945312 -27.234375 31.125 -27.234375 C 31.375 -27.234375 31.5 -27.050781 31.5 -26.6875 C 31.5 -26.257812 31.554688 -26.046875 31.671875 -26.046875 C 31.859375 -26.046875 32.285156 -24.804688 32.953125 -22.328125 L 33.40625 -20.875 L 34.125 -21.609375 C 34.613281 -22.085938 34.859375 -22.535156 34.859375 -22.953125 C 34.859375 -23.378906 34.945312 -23.59375 35.125 -23.59375 C 35.3125 -23.59375 35.40625 -23.894531 35.40625 -24.5 C 35.40625 -25.113281 35.523438 -25.421875 35.765625 -25.421875 C 35.941406 -25.421875 36.03125 -25.628906 36.03125 -26.046875 C 36.03125 -26.472656 36.148438 -26.6875 36.390625 -26.6875 C 36.578125 -26.6875 36.671875 -26.988281 36.671875 -27.59375 C 36.671875 -28.195312 36.757812 -28.5 36.9375 -28.5 C 37.1875 -28.5 37.3125 -28.710938 37.3125 -29.140625 C 37.3125 -29.503906 37.398438 -29.6875 37.578125 -29.6875 C 37.753906 -29.6875 37.84375 -29.894531 37.84375 -30.3125 C 37.84375 -30.738281 37.96875 -30.953125 38.21875 -30.953125 C 38.394531 -30.953125 38.484375 -31.253906 38.484375 -31.859375 C 38.484375 -32.460938 38.601562 -32.765625 38.84375 -32.765625 C 39.03125 -32.765625 39.125 -32.972656 39.125 -33.390625 C 39.125 -33.816406 39.210938 -34.03125 39.390625 -34.03125 C 39.628906 -34.03125 39.75 -34.179688 39.75 -34.484375 C 39.75 -34.785156 39.84375 -34.9375 40.03125 -34.9375 C 40.269531 -34.9375 40.390625 -35.179688 40.390625 -35.671875 C 40.390625 -36.035156 40.476562 -36.335938 40.65625 -36.578125 C 40.84375 -36.816406 40.9375 -37.085938 40.9375 -37.390625 C 40.9375 -37.816406 41.054688 -38.03125 41.296875 -38.03125 C 41.484375 -38.03125 41.578125 -38.210938 41.578125 -38.578125 C 41.578125 -38.992188 41.664062 -39.203125 41.84375 -39.203125 C 42.082031 -39.203125 42.203125 -39.503906 42.203125 -40.109375 C 42.203125 -40.722656 42.296875 -41.03125 42.484375 -41.03125 C 42.722656 -41.03125 42.84375 -41.238281 42.84375 -41.65625 C 42.84375 -42.082031 42.929688 -42.296875 43.109375 -42.296875 C 43.296875 -42.296875 43.390625 -42.445312 43.390625 -42.75 C 43.390625 -43.050781 43.507812 -43.425781 43.75 -43.875 C 43.988281 -44.332031 44.226562 -44.625 44.46875 -44.75 C 44.53125 -44.8125 44.664062 -45.351562 44.875 -46.375 C 45.09375 -47.40625 45.234375 -47.953125 45.296875 -48.015625 C 45.472656 -48.078125 45.5625 -48.316406 45.5625 -48.734375 C 45.5625 -48.921875 45.863281 -49.769531 46.46875 -51.28125 C 46.53125 -51.40625 46.617188 -51.660156 46.734375 -52.046875 C 46.859375 -52.441406 46.953125 -52.703125 47.015625 -52.828125 C 47.378906 -53.671875 47.5625 -54.363281 47.5625 -54.90625 C 47.5625 -56.125 46.65625 -56.757812 44.84375 -56.8125 C 43.445312 -56.875 42.75 -57.148438 42.75 -57.640625 C 42.75 -57.816406 42.898438 -58.023438 43.203125 -58.265625 C 43.628906 -58.628906 45.050781 -58.8125 47.46875 -58.8125 C 49.882812 -58.8125 51.09375 -58.722656 51.09375 -58.546875 C 51.09375 -58.421875 51.195312 -58.328125 51.40625 -58.265625 C 51.625 -58.210938 51.867188 -58.226562 52.140625 -58.3125 C 52.410156 -58.40625 52.671875 -58.515625 52.921875 -58.640625 C 53.335938 -58.878906 53.664062 -58.875 53.90625 -58.625 C 54.15625 -58.382812 55.335938 -58.265625 57.453125 -58.265625 C 58.847656 -58.265625 59.710938 -58.234375 60.046875 -58.171875 C 60.378906 -58.117188 60.546875 -57.941406 60.546875 -57.640625 C 60.546875 -57.210938 60.363281 -57 60 -57 C 59.570312 -57 59.269531 -56.847656 59.09375 -56.546875 C 58.789062 -56.242188 58.003906 -56.09375 56.734375 -56.09375 L 54.734375 -56.09375 L 54.734375 -54.09375 C 54.734375 -52.820312 54.613281 -51.945312 54.375 -51.46875 C 54.125 -51.039062 54.117188 -50.707031 54.359375 -50.46875 C 54.609375 -50.226562 54.734375 -49.257812 54.734375 -47.5625 C 54.734375 -45.988281 54.613281 -44.957031 54.375 -44.46875 C 54.125 -44.050781 54.125 -43.75 54.375 -43.5625 C 54.976562 -43.144531 55.304688 -39.609375 55.359375 -32.953125 C 55.484375 -28.171875 55.609375 -25.71875 55.734375 -25.59375 C 55.910156 -25.414062 56 -23.691406 56 -20.421875 C 56 -17.273438 56.09375 -15.519531 56.28125 -15.15625 C 56.394531 -14.914062 56.828125 -14.671875 57.578125 -14.421875 C 58.335938 -14.179688 58.960938 -14.0625 59.453125 -14.0625 C 59.878906 -14.0625 60.210938 -13.957031 60.453125 -13.75 C 60.691406 -13.539062 60.992188 -13.4375 61.359375 -13.4375 C 62.023438 -13.4375 62.175781 -13.132812 61.8125 -12.53125 C 61.632812 -12.28125 60.578125 -12.15625 58.640625 -12.15625 L 55.90625 -12.15625 C 52.09375 -12.28125 50.097656 -12.429688 49.921875 -12.609375 C 49.679688 -12.859375 49.5 -12.832031 49.375 -12.53125 C 49.25 -12.34375 48.582031 -12.25 47.375 -12.25 C 46.164062 -12.25 45.5625 -12.398438 45.5625 -12.703125 C 45.5625 -13.609375 46.410156 -14.0625 48.109375 -14.0625 C 49.253906 -14.0625 49.828125 -14.1875 49.828125 -14.4375 C 49.828125 -14.613281 50.035156 -14.703125 50.453125 -14.703125 C 50.878906 -14.703125 51.09375 -15.1875 51.09375 -16.15625 C 51.09375 -17.1875 50.972656 -17.757812 50.734375 -17.875 C 50.554688 -17.9375 50.46875 -21.414062 50.46875 -28.3125 C 50.46875 -33.644531 50.40625 -36.789062 50.28125 -37.75 C 50.164062 -38.71875 49.800781 -39.203125 49.1875 -39.203125 C 48.832031 -39.203125 48.65625 -39.414062 48.65625 -39.84375 C 48.65625 -40.269531 48.832031 -40.484375 49.1875 -40.484375 C 49.5 -40.484375 49.773438 -40.738281 50.015625 -41.25 C 50.253906 -41.769531 50.375 -42.359375 50.375 -43.015625 L 50.375 -43.484375 C 50.070312 -45.296875 49.921875 -46.441406 49.921875 -46.921875 C 49.921875 -47.285156 49.984375 -47.46875 50.109375 -47.46875 C 50.347656 -47.46875 50.46875 -48.132812 50.46875 -49.46875 C 50.46875 -50.738281 50.347656 -51.492188 50.109375 -51.734375 C 49.492188 -52.335938 49.1875 -52.21875 49.1875 -51.375 C 49.1875 -51.007812 49.097656 -50.691406 48.921875 -50.421875 C 48.742188 -50.148438 48.65625 -49.832031 48.65625 -49.46875 C 48.65625 -48.976562 48.53125 -48.734375 48.28125 -48.734375 C 48.101562 -48.734375 48.015625 -48.429688 48.015625 -47.828125 C 48.015625 -47.523438 47.800781 -46.875 47.375 -45.875 C 46.957031 -44.882812 46.75 -44.265625 46.75 -44.015625 C 46.75 -43.660156 46.65625 -43.484375 46.46875 -43.484375 C 46.289062 -43.484375 46.203125 -43.238281 46.203125 -42.75 C 46.203125 -42.445312 46.09375 -42.175781 45.875 -41.9375 C 45.664062 -41.695312 45.5625 -41.394531 45.5625 -41.03125 C 45.5625 -40.664062 45.472656 -40.484375 45.296875 -40.484375 C 45.046875 -40.484375 44.921875 -40.269531 44.921875 -39.84375 C 44.921875 -39.601562 44.769531 -39.269531 44.46875 -38.84375 C 44.164062 -38.425781 44.015625 -38.066406 44.015625 -37.765625 C 44.015625 -37.460938 43.910156 -37.171875 43.703125 -36.890625 C 43.492188 -36.617188 43.390625 -36.273438 43.390625 -35.859375 C 43.390625 -35.242188 43.296875 -34.9375 43.109375 -34.9375 C 42.929688 -34.9375 42.84375 -34.785156 42.84375 -34.484375 C 42.84375 -34.179688 42.722656 -34.03125 42.484375 -34.03125 C 42.296875 -34.03125 42.203125 -33.789062 42.203125 -33.3125 C 42.203125 -33.007812 41.988281 -32.523438 41.5625 -31.859375 C 41.144531 -31.191406 40.9375 -30.707031 40.9375 -30.40625 C 40.9375 -29.925781 40.84375 -29.6875 40.65625 -29.6875 C 40.476562 -29.6875 40.390625 -29.472656 40.390625 -29.046875 C 40.390625 -28.804688 40.175781 -28.320312 39.75 -27.59375 C 39.332031 -26.863281 39.125 -26.378906 39.125 -26.140625 C 39.125 -25.660156 39.03125 -25.421875 38.84375 -25.421875 C 38.664062 -25.421875 38.363281 -24.890625 37.9375 -23.828125 C 37.519531 -22.765625 37.3125 -22.113281 37.3125 -21.875 C 37.3125 -21.695312 37.097656 -21.195312 36.671875 -20.375 C 36.242188 -19.5625 36.03125 -19.0625 36.03125 -18.875 C 36.03125 -18.507812 35.941406 -18.328125 35.765625 -18.328125 C 35.523438 -18.328125 35.40625 -18.148438 35.40625 -17.796875 C 35.40625 -17.367188 35.3125 -17.15625 35.125 -17.15625 C 34.945312 -17.15625 34.859375 -17.003906 34.859375 -16.703125 C 34.859375 -16.335938 34.644531 -15.941406 34.21875 -15.515625 C 33.789062 -15.097656 33.515625 -14.554688 33.390625 -13.890625 C 33.273438 -13.222656 32.972656 -12.890625 32.484375 -12.890625 C 32.003906 -12.890625 31.707031 -13.070312 31.59375 -13.4375 C 31.46875 -13.851562 31.3125 -14.0625 31.125 -14.0625 C 30.945312 -14.0625 30.859375 -14.273438 30.859375 -14.703125 C 30.859375 -15.128906 30.738281 -15.34375 30.5 -15.34375 C 30.3125 -15.34375 30.21875 -15.523438 30.21875 -15.890625 C 30.21875 -16.191406 30.113281 -16.460938 29.90625 -16.703125 C 29.695312 -16.941406 29.59375 -17.242188 29.59375 -17.609375 C 29.59375 -18.085938 29.5 -18.328125 29.3125 -18.328125 C 29.132812 -18.328125 29.046875 -18.539062 29.046875 -18.96875 C 29.046875 -19.394531 28.925781 -19.609375 28.6875 -19.609375 C 28.5 -19.609375 28.40625 -19.726562 28.40625 -19.96875 C 28.40625 -20.269531 28.269531 -20.691406 28 -21.234375 C 27.726562 -21.785156 27.53125 -22.0625 27.40625 -22.0625 C 27.226562 -22.0625 27.140625 -22.269531 27.140625 -22.6875 C 27.140625 -23.050781 27.046875 -23.234375 26.859375 -23.234375 C 26.617188 -23.234375 26.5 -23.414062 26.5 -23.78125 C 26.5 -24.082031 26.40625 -24.234375 26.21875 -24.234375 C 26.039062 -24.234375 25.953125 -24.351562 25.953125 -24.59375 C 25.953125 -24.832031 25.707031 -25.40625 25.21875 -26.3125 C 24.738281 -27.226562 24.441406 -27.71875 24.328125 -27.78125 C 24.140625 -27.894531 24.046875 -28.132812 24.046875 -28.5 C 24.046875 -28.925781 23.957031 -29.140625 23.78125 -29.140625 C 23.601562 -29.140625 23.515625 -29.320312 23.515625 -29.6875 C 23.515625 -30.101562 23.390625 -30.3125 23.140625 -30.3125 C 22.960938 -30.3125 22.875 -30.523438 22.875 -30.953125 C 22.875 -31.378906 22.78125 -31.617188 22.59375 -31.671875 C 22.476562 -31.734375 22.328125 -32.1875 22.140625 -33.03125 C 21.960938 -33.882812 21.78125 -34.3125 21.59375 -34.3125 C 21.414062 -34.3125 21.328125 -34.613281 21.328125 -35.21875 C 21.328125 -35.820312 21.238281 -36.125 21.0625 -36.125 C 20.8125 -36.125 20.6875 -36.363281 20.6875 -36.84375 C 20.6875 -37.207031 20.597656 -37.523438 20.421875 -37.796875 C 20.242188 -38.078125 20.15625 -38.367188 20.15625 -38.671875 C 20.15625 -39.023438 20.03125 -39.203125 19.78125 -39.203125 C 19.601562 -39.203125 19.515625 -39.414062 19.515625 -39.84375 C 19.515625 -40.269531 19.394531 -40.484375 19.15625 -40.484375 C 18.96875 -40.484375 18.875 -40.664062 18.875 -41.03125 C 18.875 -41.445312 18.785156 -41.65625 18.609375 -41.65625 C 18.367188 -41.65625 18.25 -41.867188 18.25 -42.296875 C 18.25 -42.722656 18.15625 -42.9375 17.96875 -42.9375 C 17.789062 -42.9375 17.703125 -43.238281 17.703125 -43.84375 C 17.703125 -44.445312 17.609375 -44.75 17.421875 -44.75 C 17.304688 -44.75 17.066406 -45.109375 16.703125 -45.828125 C 16.335938 -46.554688 16.125 -46.921875 16.0625 -46.921875 C 15.882812 -46.921875 15.796875 -47.101562 15.796875 -47.46875 C 15.796875 -47.894531 15.703125 -48.109375 15.515625 -48.109375 C 15.273438 -48.109375 15.15625 -48.316406 15.15625 -48.734375 C 15.15625 -49.160156 15.0625 -49.375 14.875 -49.375 C 14.695312 -49.375 14.609375 -49.554688 14.609375 -49.921875 C 14.609375 -50.347656 14.488281 -50.5625 14.25 -50.5625 C 14.070312 -50.5625 13.984375 -50.769531 13.984375 -51.1875 Z M 13.984375 -51.1875 "/></g></g></g><g fill="#ffffff" fill-opacity="1"><g transform="translate(250.937929, 60.511989)"><g><path d="M 31.125 -51.921875 C 31.125 -52.285156 30.910156 -52.753906 30.484375 -53.328125 C 30.066406 -53.898438 29.675781 -54.1875 29.3125 -54.1875 C 29.007812 -54.1875 28.722656 -54.003906 28.453125 -53.640625 C 28.179688 -53.273438 28.046875 -52.910156 28.046875 -52.546875 C 28.046875 -52.242188 27.953125 -52.09375 27.765625 -52.09375 C 27.585938 -52.09375 27.441406 -51.640625 27.328125 -50.734375 C 27.140625 -49.703125 26.5625 -48.191406 25.59375 -46.203125 C 25.414062 -45.898438 25.328125 -45.566406 25.328125 -45.203125 C 25.328125 -44.898438 25.203125 -44.75 24.953125 -44.75 C 24.773438 -44.75 24.6875 -44.535156 24.6875 -44.109375 C 24.6875 -43.691406 24.597656 -43.484375 24.421875 -43.484375 C 24.171875 -43.484375 24.046875 -43.238281 24.046875 -42.75 C 24.046875 -42.507812 23.847656 -42.085938 23.453125 -41.484375 C 23.066406 -40.878906 22.875 -40.425781 22.875 -40.125 C 22.875 -39.695312 22.753906 -39.484375 22.515625 -39.484375 C 22.328125 -39.484375 22.234375 -39.300781 22.234375 -38.9375 C 22.234375 -38.507812 22.144531 -38.296875 21.96875 -38.296875 C 21.726562 -38.296875 21.609375 -38.082031 21.609375 -37.65625 C 21.609375 -37.238281 21.515625 -37.03125 21.328125 -37.03125 C 21.085938 -37.03125 20.96875 -36.878906 20.96875 -36.578125 C 20.96875 -36.335938 20.769531 -35.789062 20.375 -34.9375 C 19.976562 -34.09375 19.78125 -33.578125 19.78125 -33.390625 C 19.78125 -33.210938 19.660156 -32.957031 19.421875 -32.625 C 19.179688 -32.289062 19.125 -32.035156 19.25 -31.859375 C 19.488281 -31.617188 20.117188 -31.5 21.140625 -31.5 C 22.296875 -31.5 22.875 -31.617188 22.875 -31.859375 C 22.875 -32.035156 23.566406 -32.125 24.953125 -32.125 C 26.410156 -32.125 27.140625 -32.035156 27.140625 -31.859375 C 27.140625 -31.617188 27.59375 -31.5 28.5 -31.5 C 29.40625 -31.5 29.859375 -31.617188 29.859375 -31.859375 C 29.859375 -32.035156 31.644531 -32.125 35.21875 -32.125 C 36.550781 -32.125 37.546875 -32.125 38.203125 -32.125 C 38.867188 -32.125 39.398438 -32.15625 39.796875 -32.21875 C 40.191406 -32.28125 40.429688 -32.34375 40.515625 -32.40625 C 40.609375 -32.46875 40.65625 -32.585938 40.65625 -32.765625 C 40.65625 -33.003906 40.566406 -33.21875 40.390625 -33.40625 C 40.210938 -33.46875 39.894531 -33.953125 39.4375 -34.859375 C 38.976562 -35.765625 38.75 -36.367188 38.75 -36.671875 C 38.75 -36.910156 38.660156 -37.03125 38.484375 -37.03125 C 38.359375 -37.03125 38.207031 -37.4375 38.03125 -38.25 C 37.851562 -39.070312 37.671875 -39.484375 37.484375 -39.484375 C 37.304688 -39.484375 37.21875 -39.695312 37.21875 -40.125 C 37.21875 -40.601562 37.035156 -41.023438 36.671875 -41.390625 C 36.242188 -41.816406 36.03125 -42.179688 36.03125 -42.484375 C 36.03125 -42.597656 35.816406 -43.078125 35.390625 -43.921875 C 34.972656 -44.773438 34.765625 -45.289062 34.765625 -45.46875 C 34.765625 -45.769531 34.671875 -45.921875 34.484375 -45.921875 C 34.304688 -45.921875 34.21875 -46.132812 34.21875 -46.5625 C 34.21875 -46.800781 34.128906 -47.015625 33.953125 -47.203125 C 33.765625 -47.316406 33.097656 -48.492188 31.953125 -50.734375 C 31.710938 -51.222656 31.53125 -51.46875 31.40625 -51.46875 C 31.21875 -51.46875 31.125 -51.617188 31.125 -51.921875 Z M 22.875 -45.921875 C 22.875 -46.222656 22.960938 -46.492188 23.140625 -46.734375 C 23.328125 -46.984375 23.421875 -47.289062 23.421875 -47.65625 C 23.421875 -48.132812 23.539062 -48.375 23.78125 -48.375 C 23.957031 -48.375 24.046875 -48.644531 24.046875 -49.1875 C 24.046875 -49.738281 24.257812 -50.222656 24.6875 -50.640625 C 25.113281 -51.066406 25.328125 -51.398438 25.328125 -51.640625 C 25.328125 -51.890625 25.597656 -52.554688 26.140625 -53.640625 C 26.742188 -54.910156 27.109375 -55.96875 27.234375 -56.8125 C 27.347656 -57.84375 27.53125 -58.476562 27.78125 -58.71875 C 27.957031 -58.96875 28.769531 -59.09375 30.21875 -59.09375 C 31.25 -59.09375 31.765625 -59 31.765625 -58.8125 C 31.765625 -58.632812 32.035156 -58.546875 32.578125 -58.546875 C 33.191406 -58.546875 33.648438 -58.242188 33.953125 -57.640625 C 34.191406 -56.972656 34.398438 -56.640625 34.578125 -56.640625 C 34.703125 -56.640625 34.765625 -56.457031 34.765625 -56.09375 C 34.765625 -55.664062 34.882812 -55.453125 35.125 -55.453125 C 35.3125 -55.453125 35.40625 -55.238281 35.40625 -54.8125 C 35.40625 -54.394531 35.523438 -54.1875 35.765625 -54.1875 C 35.941406 -54.1875 36.03125 -54.066406 36.03125 -53.828125 C 36.03125 -53.640625 36.226562 -53.273438 36.625 -52.734375 C 37.019531 -52.191406 37.21875 -51.859375 37.21875 -51.734375 C 37.21875 -51.554688 37.304688 -51.46875 37.484375 -51.46875 C 37.546875 -51.46875 37.878906 -50.554688 38.484375 -48.734375 C 38.546875 -48.679688 38.617188 -48.546875 38.703125 -48.328125 C 38.796875 -48.117188 38.898438 -47.863281 39.015625 -47.5625 C 39.140625 -47.257812 39.265625 -47.015625 39.390625 -46.828125 C 39.515625 -46.585938 39.710938 -46.222656 39.984375 -45.734375 C 40.253906 -45.253906 40.421875 -44.957031 40.484375 -44.84375 C 40.722656 -44.351562 40.898438 -44.109375 41.015625 -44.109375 C 41.140625 -44.109375 41.203125 -43.957031 41.203125 -43.65625 C 41.203125 -43.476562 41.414062 -43.085938 41.84375 -42.484375 C 42.269531 -41.878906 42.484375 -41.484375 42.484375 -41.296875 C 42.484375 -40.929688 42.570312 -40.75 42.75 -40.75 C 42.988281 -40.75 43.109375 -40.535156 43.109375 -40.109375 C 43.109375 -39.691406 43.195312 -39.484375 43.375 -39.484375 C 43.5625 -39.484375 43.65625 -39.300781 43.65625 -38.9375 C 43.65625 -38.507812 43.773438 -38.296875 44.015625 -38.296875 C 44.203125 -38.296875 44.296875 -38.082031 44.296875 -37.65625 C 44.296875 -37.238281 44.414062 -37.03125 44.65625 -37.03125 C 44.832031 -37.03125 44.921875 -36.847656 44.921875 -36.484375 C 44.921875 -36.117188 45.015625 -35.878906 45.203125 -35.765625 C 45.328125 -35.765625 45.628906 -35.28125 46.109375 -34.3125 C 46.835938 -32.851562 47.382812 -31.820312 47.75 -31.21875 C 47.863281 -30.914062 48.101562 -30.476562 48.46875 -29.90625 C 48.832031 -29.332031 49.046875 -28.953125 49.109375 -28.765625 C 49.410156 -28.285156 49.5625 -27.863281 49.5625 -27.5 C 49.5625 -27.257812 49.648438 -27.015625 49.828125 -26.765625 C 50.015625 -26.523438 50.109375 -26.226562 50.109375 -25.875 C 50.109375 -25.320312 50.226562 -25.046875 50.46875 -25.046875 C 50.644531 -25.046875 50.734375 -24.894531 50.734375 -24.59375 C 50.734375 -24.414062 51.035156 -23.828125 51.640625 -22.828125 C 52.242188 -21.828125 52.546875 -21.265625 52.546875 -21.140625 C 52.546875 -21.023438 52.851562 -20.484375 53.46875 -19.515625 C 53.882812 -18.785156 54.304688 -18.03125 54.734375 -17.25 C 55.035156 -16.582031 55.367188 -16.25 55.734375 -16.25 C 56.097656 -16.25 56.398438 -16.035156 56.640625 -15.609375 C 56.878906 -15.179688 57.484375 -14.96875 58.453125 -14.96875 C 59.421875 -14.96875 59.96875 -14.878906 60.09375 -14.703125 C 60.207031 -14.460938 60.535156 -14.34375 61.078125 -14.34375 C 61.566406 -14.34375 61.867188 -14.191406 61.984375 -13.890625 C 62.109375 -13.585938 62.019531 -13.285156 61.71875 -12.984375 C 61.414062 -12.679688 60.023438 -12.53125 57.546875 -12.53125 C 55.066406 -12.53125 53.828125 -12.40625 53.828125 -12.15625 C 53.828125 -11.976562 53.523438 -11.890625 52.921875 -11.890625 C 52.316406 -11.890625 52.015625 -12.007812 52.015625 -12.25 C 52.015625 -12.4375 51.53125 -12.53125 50.5625 -12.53125 C 49.644531 -12.53125 49.1875 -12.4375 49.1875 -12.25 C 49.1875 -12.070312 48.882812 -11.984375 48.28125 -11.984375 C 47.675781 -11.984375 47.3125 -12.070312 47.1875 -12.25 C 47.070312 -12.4375 46.648438 -12.53125 45.921875 -12.53125 C 45.253906 -12.53125 44.921875 -12.707031 44.921875 -13.0625 C 44.921875 -13.914062 45.378906 -14.34375 46.296875 -14.34375 C 46.597656 -14.34375 46.882812 -14.445312 47.15625 -14.65625 C 47.425781 -14.863281 47.710938 -14.96875 48.015625 -14.96875 C 48.441406 -14.96875 48.65625 -15.242188 48.65625 -15.796875 C 48.65625 -16.515625 48.109375 -17.9375 47.015625 -20.0625 C 44.410156 -24.90625 43.109375 -27.628906 43.109375 -28.234375 C 43.109375 -28.585938 43.015625 -28.765625 42.828125 -28.765625 C 42.648438 -28.765625 42.5 -29.003906 42.375 -29.484375 C 42.257812 -29.972656 41.992188 -30.25 41.578125 -30.3125 L 40.75 -30.3125 C 39.96875 -30.3125 36.1875 -30.253906 29.40625 -30.140625 C 26.5625 -30.078125 24.425781 -30.03125 23 -30 C 21.582031 -29.96875 20.460938 -29.921875 19.640625 -29.859375 C 18.828125 -29.796875 18.34375 -29.734375 18.1875 -29.671875 C 18.039062 -29.617188 17.96875 -29.5 17.96875 -29.3125 C 17.96875 -29.070312 17.863281 -28.84375 17.65625 -28.625 C 17.445312 -28.414062 17.34375 -28.160156 17.34375 -27.859375 C 17.34375 -27.503906 17.21875 -27.082031 16.96875 -26.59375 C 16.601562 -25.75 16.253906 -24.765625 15.921875 -23.640625 C 15.597656 -22.523438 15.222656 -21.570312 14.796875 -20.78125 C 14.609375 -20.476562 14.515625 -20.085938 14.515625 -19.609375 C 14.515625 -19.179688 14.425781 -18.96875 14.25 -18.96875 C 14.070312 -18.96875 13.984375 -18.664062 13.984375 -18.0625 C 13.984375 -17.394531 14.085938 -16.710938 14.296875 -16.015625 C 14.503906 -15.316406 14.757812 -14.96875 15.0625 -14.96875 C 15.25 -14.96875 15.507812 -14.753906 15.84375 -14.328125 C 16.175781 -13.910156 16.460938 -13.703125 16.703125 -13.703125 C 16.941406 -13.703125 17.148438 -13.566406 17.328125 -13.296875 C 17.515625 -13.023438 17.546875 -12.828125 17.421875 -12.703125 C 17.304688 -12.585938 15.3125 -12.53125 11.4375 -12.53125 C 8.65625 -12.53125 6.972656 -12.554688 6.390625 -12.609375 C 5.816406 -12.671875 5.472656 -12.820312 5.359375 -13.0625 C 5.054688 -13.550781 4.976562 -13.882812 5.125 -14.0625 C 5.28125 -14.25 5.660156 -14.34375 6.265625 -14.34375 C 6.742188 -14.34375 7.148438 -14.445312 7.484375 -14.65625 C 7.816406 -14.863281 8.132812 -14.96875 8.4375 -14.96875 C 8.675781 -14.96875 8.914062 -15.117188 9.15625 -15.421875 C 9.40625 -15.734375 9.648438 -16.097656 9.890625 -16.515625 C 10.128906 -16.941406 10.28125 -17.1875 10.34375 -17.25 C 10.707031 -17.726562 10.890625 -18.0625 10.890625 -18.25 C 10.890625 -18.550781 10.984375 -18.703125 11.171875 -18.703125 C 11.410156 -18.703125 11.53125 -18.789062 11.53125 -18.96875 C 11.53125 -19.15625 11.722656 -19.535156 12.109375 -20.109375 C 12.503906 -20.679688 12.703125 -21.085938 12.703125 -21.328125 C 12.703125 -21.816406 12.820312 -22.0625 13.0625 -22.0625 C 13.25 -22.0625 13.34375 -22.238281 13.34375 -22.59375 C 13.34375 -23.019531 13.429688 -23.234375 13.609375 -23.234375 C 13.859375 -23.234375 13.984375 -23.441406 13.984375 -23.859375 C 13.984375 -24.285156 14.070312 -24.5 14.25 -24.5 C 14.425781 -24.5 14.515625 -24.804688 14.515625 -25.421875 C 14.515625 -25.773438 14.617188 -26.085938 14.828125 -26.359375 C 15.046875 -26.640625 15.15625 -26.929688 15.15625 -27.234375 C 15.15625 -27.535156 15.304688 -28.0625 15.609375 -28.8125 C 15.910156 -29.570312 16.0625 -30.164062 16.0625 -30.59375 C 16.0625 -31.195312 16.148438 -31.5 16.328125 -31.5 C 16.515625 -31.5 16.925781 -32.132812 17.5625 -33.40625 C 18.195312 -34.675781 18.515625 -35.460938 18.515625 -35.765625 C 18.515625 -36.003906 18.722656 -36.546875 19.140625 -37.390625 C 19.566406 -38.242188 19.78125 -38.847656 19.78125 -39.203125 C 19.78125 -39.816406 19.875 -40.125 20.0625 -40.125 C 20.300781 -40.125 20.421875 -40.273438 20.421875 -40.578125 C 20.421875 -40.878906 20.484375 -41.03125 20.609375 -41.03125 C 20.785156 -41.03125 20.992188 -41.316406 21.234375 -41.890625 C 21.484375 -42.460938 21.609375 -42.960938 21.609375 -43.390625 C 21.609375 -43.867188 21.726562 -44.109375 21.96875 -44.109375 C 22.144531 -44.109375 22.234375 -44.320312 22.234375 -44.75 C 22.234375 -45.113281 22.328125 -45.296875 22.515625 -45.296875 C 22.753906 -45.296875 22.875 -45.503906 22.875 -45.921875 Z M 22.875 -45.921875 "/></g></g></g><g fill="#ffffff" fill-opacity="1"><g transform="translate(317.906726, 60.511989)"><g><path d="M 12.984375 -22.515625 C 13.160156 -22.515625 13.25 -22.601562 13.25 -22.78125 C 13.25 -22.957031 13.160156 -23.046875 12.984375 -23.046875 C 12.734375 -23.046875 12.609375 -22.957031 12.609375 -22.78125 C 12.609375 -22.601562 12.734375 -22.515625 12.984375 -22.515625 Z M 18.0625 -56.640625 C 18.425781 -56.640625 18.742188 -56.742188 19.015625 -56.953125 C 19.285156 -57.160156 19.570312 -57.265625 19.875 -57.265625 C 20.300781 -57.265625 20.570312 -57.359375 20.6875 -57.546875 C 20.75 -57.671875 21.3125 -57.804688 22.375 -57.953125 C 23.4375 -58.109375 24.523438 -58.242188 25.640625 -58.359375 C 26.765625 -58.484375 27.351562 -58.546875 27.40625 -58.546875 C 27.707031 -58.722656 28.160156 -58.753906 28.765625 -58.640625 C 28.953125 -58.640625 29.421875 -58.578125 30.171875 -58.453125 C 30.929688 -58.328125 31.492188 -58.238281 31.859375 -58.1875 C 33.304688 -57.9375 34.304688 -57.507812 34.859375 -56.90625 C 35.460938 -56.300781 35.945312 -56 36.3125 -56 C 36.726562 -56 37.539062 -55.394531 38.75 -54.1875 C 40.019531 -52.914062 40.6875 -52.28125 40.75 -52.28125 C 40.875 -52.28125 40.9375 -53.21875 40.9375 -55.09375 C 40.9375 -57.15625 41.300781 -58.1875 42.03125 -58.1875 C 42.144531 -58.1875 42.503906 -58.125 43.109375 -58 C 43.535156 -57.9375 43.789062 -57.796875 43.875 -57.578125 C 43.96875 -57.367188 44.015625 -56.722656 44.015625 -55.640625 L 44.015625 -52.375 C 44.015625 -45.71875 43.894531 -42.328125 43.65625 -42.203125 C 43.476562 -42.140625 43.390625 -41.804688 43.390625 -41.203125 C 43.390625 -40.597656 43.238281 -40.296875 42.9375 -40.296875 C 42.03125 -40.296875 41.578125 -41.265625 41.578125 -43.203125 C 41.578125 -44.535156 41.484375 -45.203125 41.296875 -45.203125 C 41.054688 -45.203125 40.9375 -45.320312 40.9375 -45.5625 C 40.9375 -45.75 40.722656 -46.171875 40.296875 -46.828125 C 39.878906 -47.492188 39.578125 -47.859375 39.390625 -47.921875 C 39.210938 -48.046875 39.125 -48.226562 39.125 -48.46875 C 39.125 -48.832031 38.488281 -49.648438 37.21875 -50.921875 C 35.582031 -52.554688 34.582031 -53.582031 34.21875 -54 C 33.550781 -54.726562 33.035156 -55.03125 32.671875 -54.90625 C 32.253906 -54.789062 32.046875 -54.851562 32.046875 -55.09375 C 32.046875 -55.269531 31.738281 -55.359375 31.125 -55.359375 C 30.582031 -55.359375 30.191406 -55.484375 29.953125 -55.734375 C 29.890625 -55.796875 29.707031 -55.828125 29.40625 -55.828125 C 27.351562 -55.828125 25.84375 -55.582031 24.875 -55.09375 C 24.570312 -54.914062 24.238281 -54.828125 23.875 -54.828125 C 23.382812 -54.828125 22.566406 -54.460938 21.421875 -53.734375 C 20.273438 -53.003906 19.671875 -52.640625 19.609375 -52.640625 C 18.878906 -52.273438 17.847656 -51.394531 16.515625 -50 C 15.179688 -48.613281 14.515625 -47.707031 14.515625 -47.28125 C 14.515625 -47.101562 14.300781 -46.878906 13.875 -46.609375 C 13.457031 -46.335938 13.25 -46.082031 13.25 -45.84375 C 13.25 -45.414062 13.035156 -44.835938 12.609375 -44.109375 C 12.191406 -43.328125 11.921875 -42.300781 11.796875 -41.03125 C 11.679688 -39.757812 11.53125 -39.125 11.34375 -39.125 C 11.164062 -39.125 11.078125 -37.941406 11.078125 -35.578125 C 11.078125 -33.222656 11.164062 -32.046875 11.34375 -32.046875 C 11.40625 -32.046875 11.507812 -31.726562 11.65625 -31.09375 C 11.8125 -30.457031 11.960938 -29.804688 12.109375 -29.140625 C 12.265625 -28.472656 12.34375 -28.109375 12.34375 -28.046875 C 12.945312 -26.835938 13.25 -26.109375 13.25 -25.859375 C 13.25 -25.617188 13.519531 -25.179688 14.0625 -24.546875 C 14.613281 -23.910156 15.234375 -23.210938 15.921875 -22.453125 C 16.617188 -21.703125 17.0625 -21.207031 17.25 -20.96875 C 18.695312 -19.09375 19.664062 -18.15625 20.15625 -18.15625 C 20.457031 -18.15625 20.609375 -18.0625 20.609375 -17.875 C 20.609375 -17.757812 20.925781 -17.519531 21.5625 -17.15625 C 22.195312 -16.789062 22.515625 -16.578125 22.515625 -16.515625 C 22.628906 -16.335938 22.972656 -16.367188 23.546875 -16.609375 C 24.128906 -16.847656 24.445312 -16.878906 24.5 -16.703125 C 24.625 -16.460938 24.925781 -16.34375 25.40625 -16.34375 C 25.894531 -16.34375 26.203125 -16.21875 26.328125 -15.96875 C 26.441406 -15.789062 26.90625 -15.703125 27.71875 -15.703125 C 28.539062 -15.703125 28.953125 -15.789062 28.953125 -15.96875 C 28.953125 -16.21875 29.4375 -16.34375 30.40625 -16.34375 C 31.4375 -16.34375 32.070312 -16.460938 32.3125 -16.703125 C 32.4375 -16.816406 32.617188 -16.828125 32.859375 -16.734375 C 33.097656 -16.648438 33.273438 -16.5625 33.390625 -16.46875 C 33.515625 -16.382812 33.640625 -16.429688 33.765625 -16.609375 C 33.890625 -16.847656 34.191406 -16.96875 34.671875 -16.96875 C 35.160156 -16.96875 35.40625 -17.054688 35.40625 -17.234375 C 35.40625 -17.421875 35.554688 -17.515625 35.859375 -17.515625 C 36.160156 -17.515625 36.78125 -17.984375 37.71875 -18.921875 C 38.65625 -19.859375 39.125 -20.476562 39.125 -20.78125 C 39.125 -21.082031 39.210938 -21.234375 39.390625 -21.234375 C 39.628906 -21.234375 39.75 -21.476562 39.75 -21.96875 C 39.75 -22.570312 39.835938 -22.898438 40.015625 -22.953125 C 40.203125 -23.015625 40.296875 -24.378906 40.296875 -27.046875 C 40.296875 -29.410156 40.191406 -30.832031 39.984375 -31.3125 C 39.773438 -31.800781 39.1875 -32.046875 38.21875 -32.046875 C 37.550781 -32.046875 36.957031 -32.207031 36.4375 -32.53125 C 35.925781 -32.863281 35.671875 -33.273438 35.671875 -33.765625 C 35.671875 -34.003906 35.703125 -34.1875 35.765625 -34.3125 C 36.179688 -35.28125 36.632812 -35.429688 37.125 -34.765625 C 37.1875 -34.578125 38.671875 -34.484375 41.578125 -34.484375 C 44.359375 -34.484375 45.867188 -34.363281 46.109375 -34.125 C 46.472656 -33.882812 46.6875 -33.882812 46.75 -34.125 C 46.863281 -34.363281 47.222656 -34.484375 47.828125 -34.484375 C 48.191406 -34.484375 48.597656 -34.332031 49.046875 -34.03125 C 49.503906 -33.726562 49.734375 -33.394531 49.734375 -33.03125 C 49.734375 -32.851562 49.644531 -32.675781 49.46875 -32.5 C 49.164062 -32.195312 48.710938 -32.046875 48.109375 -32.046875 C 47.554688 -32.046875 46.84375 -31.632812 45.96875 -30.8125 C 45.09375 -30 44.65625 -29.316406 44.65625 -28.765625 C 44.65625 -28.460938 44.535156 -28.3125 44.296875 -28.3125 C 44.109375 -28.3125 44.015625 -26.800781 44.015625 -23.78125 C 44.015625 -19.601562 43.59375 -17.515625 42.75 -17.515625 C 42.570312 -17.515625 42.238281 -17.210938 41.75 -16.609375 C 41.269531 -16.003906 40.90625 -15.703125 40.65625 -15.703125 C 40.414062 -15.703125 40.007812 -15.488281 39.4375 -15.0625 C 38.863281 -14.644531 38.484375 -14.4375 38.296875 -14.4375 C 37.992188 -14.4375 37.84375 -14.34375 37.84375 -14.15625 C 37.84375 -13.976562 37.539062 -13.890625 36.9375 -13.890625 C 36.332031 -13.890625 35.972656 -13.769531 35.859375 -13.53125 C 35.796875 -13.34375 35.28125 -13.25 34.3125 -13.25 C 33.34375 -13.25 32.828125 -13.15625 32.765625 -12.96875 C 32.703125 -12.789062 32.066406 -12.703125 30.859375 -12.703125 C 29.285156 -12.703125 28.347656 -12.820312 28.046875 -13.0625 C 27.617188 -13.3125 27.316406 -13.3125 27.140625 -13.0625 C 26.953125 -12.757812 26.164062 -12.734375 24.78125 -12.984375 C 23.019531 -13.222656 21.628906 -13.613281 20.609375 -14.15625 C 20.304688 -14.34375 19.910156 -14.4375 19.421875 -14.4375 C 18.992188 -14.4375 18.78125 -14.554688 18.78125 -14.796875 C 18.78125 -14.972656 18.570312 -15.0625 18.15625 -15.0625 C 17.789062 -15.0625 17.609375 -15.1875 17.609375 -15.4375 C 17.609375 -15.613281 17.457031 -15.703125 17.15625 -15.703125 C 17.03125 -15.703125 16.570312 -16.003906 15.78125 -16.609375 C 15 -17.210938 14.519531 -17.515625 14.34375 -17.515625 C 14.039062 -17.515625 13.890625 -17.632812 13.890625 -17.875 C 13.890625 -18.0625 13.765625 -18.15625 13.515625 -18.15625 C 13.273438 -18.15625 12.910156 -18.378906 12.421875 -18.828125 C 11.941406 -19.285156 11.703125 -19.632812 11.703125 -19.875 C 11.703125 -20.238281 11.398438 -20.722656 10.796875 -21.328125 C 10.191406 -22.054688 9.890625 -22.453125 9.890625 -22.515625 C 9.890625 -22.628906 9.769531 -22.867188 9.53125 -23.234375 C 8.5 -24.265625 7.984375 -24.992188 7.984375 -25.421875 C 7.984375 -25.722656 7.890625 -25.875 7.703125 -25.875 C 7.523438 -25.875 7.4375 -26.082031 7.4375 -26.5 C 7.4375 -26.863281 7.316406 -27.046875 7.078125 -27.046875 C 6.898438 -27.046875 6.8125 -27.316406 6.8125 -27.859375 C 6.8125 -28.347656 6.6875 -28.648438 6.4375 -28.765625 C 6.257812 -28.828125 6.171875 -29.40625 6.171875 -30.5 C 6.171875 -31.53125 6.078125 -32.046875 5.890625 -32.046875 C 5.710938 -32.046875 5.53125 -32.390625 5.34375 -33.078125 C 5.164062 -33.773438 5.078125 -34.394531 5.078125 -34.9375 C 5.078125 -35.25 5.109375 -35.429688 5.171875 -35.484375 C 5.410156 -35.972656 5.53125 -37.210938 5.53125 -39.203125 C 5.53125 -39.929688 5.546875 -40.492188 5.578125 -40.890625 C 5.609375 -41.285156 5.65625 -41.660156 5.71875 -42.015625 C 5.78125 -42.378906 5.835938 -42.632812 5.890625 -42.78125 C 5.953125 -42.9375 6.085938 -43.226562 6.296875 -43.65625 C 6.515625 -44.082031 6.6875 -44.445312 6.8125 -44.75 C 7.289062 -45.832031 7.625 -46.375 7.8125 -46.375 C 7.925781 -46.5 7.984375 -46.679688 7.984375 -46.921875 C 7.984375 -47.222656 8.078125 -47.40625 8.265625 -47.46875 C 8.316406 -47.53125 8.734375 -48.03125 9.515625 -48.96875 C 10.304688 -49.90625 10.734375 -50.40625 10.796875 -50.46875 C 10.859375 -50.53125 10.992188 -50.769531 11.203125 -51.1875 C 11.421875 -51.613281 11.664062 -52.007812 11.9375 -52.375 C 12.207031 -52.738281 12.429688 -52.921875 12.609375 -52.921875 C 12.859375 -52.921875 13.375 -53.253906 14.15625 -53.921875 C 16.21875 -55.734375 17.519531 -56.640625 18.0625 -56.640625 Z M 18.0625 -56.640625 "/></g></g></g></g></g></g></svg>