<svg xmlns="http://www.w3.org/2000/svg" xmlns:xlink="http://www.w3.org/1999/xlink" width="500" zoomAndPan="magnify" viewBox="0 0 375 135.12" height="170" preserveAspectRatio="xMidYMid meet" version="1.0"><defs><g/><clipPath id="c2873d7247"><path d="M 1.214844 0 L 373.785156 0 L 373.785156 126.675781 L 1.214844 126.675781 Z M 1.214844 0 " clip-rule="nonzero"/></clipPath><clipPath id="b3cc78145c"><path d="M 1.214844 21 L 373.785156 21 L 373.785156 105 L 1.214844 105 Z M 1.214844 21 " clip-rule="nonzero"/></clipPath><clipPath id="1a7e4fbbe2"><rect x="0" width="373" y="0" height="84"/></clipPath></defs><g clip-path="url(#c2873d7247)"><path fill="#ffffff" d="M 1.214844 0 L 373.785156 0 L 373.785156 126.675781 L 1.214844 126.675781 Z M 1.214844 0 " fill-opacity="1" fill-rule="nonzero"/><path fill="#000000" d="M 1.214844 0 L 373.785156 0 L 373.785156 126.675781 L 1.214844 126.675781 Z M 1.214844 0 " fill-opacity="1" fill-rule="nonzero"/></g><g clip-path="url(#b3cc78145c)"><g transform="matrix(1, 0, 0, 1, 1, 21)"><g clip-path="url(#1a7e4fbbe2)"><g fill="#ffffff" fill-opacity="1"><g transform="translate(0.213235, 61.015319)"><g><path d="M 12.109375 2.96875 C 12.253906 2.675781 12.273438 2.492188 12.171875 2.421875 C 12.078125 2.359375 11.929688 2.328125 11.734375 2.328125 C 11.546875 2.328125 11.453125 2.347656 11.453125 2.390625 C 11.453125 2.585938 11.523438 2.789062 11.671875 3 C 11.816406 3.21875 11.960938 3.207031 12.109375 2.96875 Z M 21.828125 -16.890625 C 21.828125 -17.085938 21.726562 -17.1875 21.53125 -17.1875 C 21.289062 -17.1875 21.171875 -17.085938 21.171875 -16.890625 C 21.171875 -16.648438 21.289062 -16.53125 21.53125 -16.53125 C 21.726562 -16.53125 21.828125 -16.648438 21.828125 -16.890625 Z M 27.40625 -10.8125 C 27.40625 -10.90625 27.753906 -11.335938 28.453125 -12.109375 C 29.160156 -12.878906 29.515625 -13.289062 29.515625 -13.34375 C 29.515625 -13.488281 29.925781 -13.972656 30.75 -14.796875 C 32.394531 -16.535156 33.21875 -17.9375 33.21875 -19 C 33.21875 -19.332031 33.75 -20.035156 34.8125 -21.109375 C 35.675781 -21.921875 36.226562 -22.59375 36.46875 -23.125 C 36.71875 -23.664062 37.179688 -25.046875 37.859375 -27.265625 C 38.046875 -27.941406 38.476562 -29.140625 39.15625 -30.859375 C 39.832031 -32.578125 40.21875 -34.085938 40.3125 -35.390625 L 40.46875 -37.5625 L 39.515625 -38.078125 C 38.941406 -38.460938 37.300781 -38.703125 34.59375 -38.796875 C 33.957031 -38.847656 33.035156 -38.875 31.828125 -38.875 C 30.472656 -38.875 29.675781 -38.847656 29.4375 -38.796875 C 29.25 -38.742188 28.789062 -38.71875 28.0625 -38.71875 C 27.289062 -38.71875 26.710938 -38.742188 26.328125 -38.796875 C 25.984375 -38.796875 25.519531 -38.816406 24.9375 -38.859375 C 24.363281 -38.910156 23.703125 -38.972656 22.953125 -39.046875 C 22.203125 -39.117188 21.609375 -39.179688 21.171875 -39.234375 C 18.171875 -39.421875 16.191406 -39.976562 15.234375 -40.90625 C 14.796875 -41.289062 14.359375 -41.867188 13.921875 -42.640625 C 13.484375 -43.410156 13.265625 -43.988281 13.265625 -44.375 C 13.265625 -44.757812 13.484375 -45.316406 13.921875 -46.046875 C 14.359375 -46.773438 14.769531 -47.304688 15.15625 -47.640625 C 16.269531 -48.609375 17.890625 -49.210938 20.015625 -49.453125 C 21.128906 -49.597656 22.953125 -49.863281 25.484375 -50.25 C 28.023438 -50.632812 30.25 -50.921875 32.15625 -51.109375 C 34.070312 -51.304688 35.972656 -51.40625 37.859375 -51.40625 C 38.867188 -51.40625 39.640625 -51.382812 40.171875 -51.34375 C 46.984375 -51.144531 53.269531 -50.734375 59.03125 -50.109375 C 61.976562 -49.867188 63.882812 -49.457031 64.75 -48.875 C 66.351562 -47.90625 67.15625 -46.625 67.15625 -45.03125 C 67.15625 -44.738281 67.128906 -44.519531 67.078125 -44.375 C 66.691406 -42.925781 65.722656 -41.429688 64.171875 -39.890625 L 62.875 -38.578125 L 60.328125 -38.28125 C 59.078125 -38.1875 58.207031 -38.140625 57.71875 -38.140625 C 57.53125 -38.140625 57.289062 -38.148438 57 -38.171875 C 56.707031 -38.203125 56.460938 -38.21875 56.265625 -38.21875 C 53.992188 -38.21875 52.351562 -37.757812 51.34375 -36.84375 C 50.90625 -36.457031 50.054688 -35.050781 48.796875 -32.625 C 47.546875 -30.207031 46.601562 -28.15625 45.96875 -26.46875 C 45.820312 -26.175781 45.628906 -25.679688 45.390625 -24.984375 C 45.148438 -24.285156 44.96875 -23.773438 44.84375 -23.453125 C 44.726562 -23.140625 44.535156 -22.753906 44.265625 -22.296875 C 44.003906 -21.835938 43.726562 -21.441406 43.4375 -21.109375 C 42.957031 -20.523438 42.71875 -20.132812 42.71875 -19.9375 C 42.71875 -19.644531 42.289062 -18.445312 41.4375 -16.34375 C 40.59375 -14.25 40.078125 -13.101562 39.890625 -12.90625 C 39.597656 -12.613281 39.304688 -11.960938 39.015625 -10.953125 C 38.628906 -9.835938 38.316406 -9.085938 38.078125 -8.703125 C 37.785156 -8.171875 37.640625 -7.78125 37.640625 -7.53125 C 37.640625 -7.289062 37.128906 -6.347656 36.109375 -4.703125 C 35.097656 -3.066406 34.253906 -1.789062 33.578125 -0.875 C 32.410156 0.625 31.441406 1.785156 30.671875 2.609375 C 29.992188 3.378906 28.953125 4.285156 27.546875 5.328125 C 26.148438 6.367188 25.039062 7.082031 24.21875 7.46875 C 23.632812 7.707031 22.597656 7.828125 21.109375 7.828125 C 19.503906 7.828125 18.023438 7.707031 16.671875 7.46875 C 16.191406 7.375 15.320312 7.226562 14.0625 7.03125 C 12.5625 6.84375 10.859375 5.851562 8.953125 4.0625 C 7.046875 2.269531 5.609375 0.335938 4.640625 -1.734375 C 4.253906 -2.609375 4.0625 -3.988281 4.0625 -5.875 C 4.0625 -6.457031 4.109375 -7.035156 4.203125 -7.609375 C 4.835938 -10.703125 5.320312 -12.515625 5.65625 -13.046875 C 6.09375 -13.773438 6.40625 -14.578125 6.59375 -15.453125 C 6.84375 -16.515625 7.472656 -17.597656 8.484375 -18.703125 C 10.703125 -21.316406 12.394531 -22.863281 13.5625 -23.34375 C 13.800781 -23.488281 14.257812 -23.78125 14.9375 -24.21875 C 15.613281 -24.65625 16.191406 -24.96875 16.671875 -25.15625 C 17.203125 -25.40625 17.539062 -25.601562 17.6875 -25.75 C 18.03125 -26.226562 19.382812 -26.734375 21.75 -27.265625 C 22.957031 -27.503906 24 -27.625 24.875 -27.625 C 26.03125 -27.625 27 -27.457031 27.78125 -27.125 C 29.519531 -26.25 30.390625 -24.96875 30.390625 -23.28125 C 30.390625 -22.988281 30.363281 -22.769531 30.3125 -22.625 C 30.21875 -22.09375 29.84375 -21.488281 29.1875 -20.8125 C 28.53125 -20.132812 27.890625 -19.695312 27.265625 -19.5 C 26.734375 -19.363281 26.347656 -19.234375 26.109375 -19.109375 C 25.867188 -18.984375 25.53125 -18.75 25.09375 -18.40625 C 24.65625 -18.070312 24.242188 -17.785156 23.859375 -17.546875 C 22.453125 -16.628906 21.554688 -15.953125 21.171875 -15.515625 C 20.691406 -14.929688 20.332031 -14.640625 20.09375 -14.640625 C 19.894531 -14.640625 19.320312 -14.238281 18.375 -13.4375 C 17.4375 -12.644531 16.96875 -12.175781 16.96875 -12.03125 C 16.96875 -11.84375 16.847656 -11.503906 16.609375 -11.015625 C 16.171875 -9.953125 15.878906 -9.109375 15.734375 -8.484375 L 15.734375 -7.984375 C 15.734375 -5.953125 15.953125 -4.71875 16.390625 -4.28125 C 16.628906 -4.039062 17.304688 -3.921875 18.421875 -3.921875 L 19.21875 -3.921875 C 19.894531 -3.921875 20.546875 -4.113281 21.171875 -4.5 C 21.703125 -4.832031 22.875 -5.90625 24.6875 -7.71875 C 26.5 -9.53125 27.40625 -10.5625 27.40625 -10.8125 Z M 27.40625 -10.8125 "/></g></g></g><g fill="#ffffff" fill-opacity="1"><g transform="translate(71.572363, 61.015319)"><g><path d="M 36.1875 -24.515625 C 36.1875 -24.847656 36.0625 -25.015625 35.8125 -25.015625 C 35.570312 -25.015625 35.453125 -24.847656 35.453125 -24.515625 C 35.453125 -24.222656 35.570312 -24.078125 35.8125 -24.078125 C 36.0625 -24.078125 36.1875 -24.222656 36.1875 -24.515625 Z M 26.90625 -36.046875 C 26.90625 -36.085938 26.734375 -36.109375 26.390625 -36.109375 C 26.003906 -36.109375 25.929688 -36.035156 26.171875 -35.890625 C 26.566406 -35.742188 26.8125 -35.796875 26.90625 -36.046875 Z M 18.5625 -16.96875 C 18.5625 -16.769531 18.40625 -16.304688 18.09375 -15.578125 C 17.78125 -14.859375 17.625 -14.40625 17.625 -14.21875 C 17.625 -13.78125 17.476562 -13.414062 17.1875 -13.125 C 16.84375 -12.789062 16.671875 -12.523438 16.671875 -12.328125 C 16.671875 -12.128906 16.578125 -11.957031 16.390625 -11.8125 C 16.148438 -11.675781 15.976562 -11.316406 15.875 -10.734375 C 15.832031 -10.441406 15.613281 -9.957031 15.21875 -9.28125 C 14.832031 -8.601562 14.640625 -8.09375 14.640625 -7.75 C 14.640625 -7.414062 14.472656 -7.113281 14.140625 -6.84375 C 13.804688 -6.582031 13.394531 -6.453125 12.90625 -6.453125 C 11.988281 -6.453125 11.3125 -6.085938 10.875 -5.359375 C 10.539062 -4.878906 10.007812 -4.929688 9.28125 -5.515625 C 8.945312 -5.753906 8.5625 -5.910156 8.125 -5.984375 C 7.6875 -6.054688 7.421875 -5.992188 7.328125 -5.796875 C 7.273438 -5.648438 6.882812 -5.578125 6.15625 -5.578125 C 5.34375 -5.578125 4.835938 -5.675781 4.640625 -5.875 C 4.304688 -6.113281 4.140625 -6.351562 4.140625 -6.59375 C 4.140625 -7.707031 4.742188 -9.472656 5.953125 -11.890625 C 6.191406 -12.273438 6.3125 -12.585938 6.3125 -12.828125 C 6.3125 -12.972656 6.441406 -13.25 6.703125 -13.65625 C 6.972656 -14.070312 7.109375 -14.425781 7.109375 -14.71875 C 7.109375 -15.0625 7.285156 -15.664062 7.640625 -16.53125 C 8.003906 -17.40625 8.210938 -17.9375 8.265625 -18.125 C 8.359375 -18.757812 8.671875 -19.65625 9.203125 -20.8125 C 9.785156 -22.070312 10.320312 -23.425781 10.8125 -24.875 C 11.875 -28.113281 12.644531 -30.09375 13.125 -30.8125 C 13.507812 -31.488281 13.703125 -31.878906 13.703125 -31.984375 C 13.703125 -32.222656 13.992188 -33.066406 14.578125 -34.515625 C 15.929688 -37.566406 16.679688 -39.570312 16.828125 -40.53125 C 16.921875 -41.113281 17.085938 -41.71875 17.328125 -42.34375 C 17.566406 -42.976562 17.738281 -43.507812 17.84375 -43.9375 C 18.03125 -44.757812 18.195312 -45.222656 18.34375 -45.328125 C 18.488281 -45.367188 18.5625 -45.582031 18.5625 -45.96875 C 18.5625 -46.363281 18.632812 -46.582031 18.78125 -46.625 C 18.925781 -46.675781 19 -47.113281 19 -47.9375 C 19 -48.46875 18.960938 -48.789062 18.890625 -48.90625 C 18.816406 -49.03125 18.632812 -49.140625 18.34375 -49.234375 C 17.957031 -49.285156 17.617188 -49.625 17.328125 -50.25 L 16.890625 -51.203125 L 17.546875 -52.0625 C 17.984375 -52.695312 18.296875 -53.015625 18.484375 -53.015625 C 18.679688 -53.015625 19.019531 -53.132812 19.5 -53.375 C 19.894531 -53.5625 20.453125 -53.707031 21.171875 -53.8125 C 21.703125 -53.851562 22.285156 -54.191406 22.921875 -54.828125 C 23.929688 -55.835938 24.847656 -56.34375 25.671875 -56.34375 C 25.765625 -56.34375 25.835938 -56.316406 25.890625 -56.265625 C 26.078125 -56.171875 26.21875 -56.171875 26.3125 -56.265625 C 26.414062 -56.367188 26.539062 -56.515625 26.6875 -56.703125 C 26.832031 -56.898438 26.953125 -57 27.046875 -57 C 27.191406 -57 27.410156 -57.191406 27.703125 -57.578125 C 27.890625 -57.910156 28.15625 -58.078125 28.5 -58.078125 C 29.125 -58.078125 29.554688 -57.425781 29.796875 -56.125 C 29.847656 -55.9375 29.921875 -55.5625 30.015625 -55 C 30.117188 -54.445312 30.207031 -53.925781 30.28125 -53.4375 C 30.351562 -52.957031 30.390625 -52.523438 30.390625 -52.140625 C 30.390625 -51.515625 30.265625 -51.003906 30.015625 -50.609375 C 29.773438 -50.273438 29.65625 -49.84375 29.65625 -49.3125 C 29.65625 -48.195312 29.242188 -46.675781 28.421875 -44.75 C 28.128906 -44.164062 27.835938 -43.234375 27.546875 -41.953125 C 27.265625 -40.671875 27.003906 -39.765625 26.765625 -39.234375 C 26.367188 -38.359375 26.171875 -37.800781 26.171875 -37.5625 C 26.171875 -37.363281 26.242188 -37.21875 26.390625 -37.125 C 26.921875 -36.789062 28.128906 -36.570312 30.015625 -36.46875 C 31.859375 -36.332031 33.09375 -35.972656 33.71875 -35.390625 C 35.800781 -33.597656 36.84375 -32.390625 36.84375 -31.765625 C 36.84375 -31.273438 36.960938 -30.957031 37.203125 -30.8125 C 37.734375 -30.382812 38 -29.421875 38 -27.921875 C 38 -27.148438 38.070312 -26.109375 38.21875 -24.796875 C 38.3125 -23.546875 38.359375 -22.867188 38.359375 -22.765625 C 38.359375 -22.234375 38.285156 -21.75 38.140625 -21.3125 C 37.316406 -18.851562 36.90625 -16.875 36.90625 -15.375 C 36.90625 -15.03125 37.078125 -14.859375 37.421875 -14.859375 C 37.898438 -14.859375 38.789062 -15.25 40.09375 -16.03125 C 40.289062 -16.125 40.414062 -16.171875 40.46875 -16.171875 C 40.65625 -16.171875 41.257812 -15.878906 42.28125 -15.296875 C 43.78125 -14.378906 44.53125 -13.316406 44.53125 -12.109375 C 44.53125 -10.898438 44.019531 -9.957031 43 -9.28125 C 41.601562 -8.3125 39.863281 -7.828125 37.78125 -7.828125 C 36.375 -7.828125 35.019531 -7.644531 33.71875 -7.28125 C 32.414062 -6.925781 31.132812 -6.75 29.875 -6.75 L 28.78125 -6.75 C 27.71875 -6.75 27.046875 -6.890625 26.765625 -7.171875 C 26.515625 -7.460938 26.195312 -7.609375 25.8125 -7.609375 C 24.75 -7.609375 24.144531 -8.019531 24 -8.84375 C 23.957031 -9.132812 23.910156 -9.472656 23.859375 -9.859375 C 23.804688 -10.242188 23.769531 -10.546875 23.75 -10.765625 C 23.726562 -10.984375 23.71875 -11.164062 23.71875 -11.3125 C 23.71875 -11.644531 23.835938 -11.984375 24.078125 -12.328125 C 24.367188 -12.710938 24.585938 -13.414062 24.734375 -14.4375 C 24.773438 -15.445312 25.039062 -16.410156 25.53125 -17.328125 C 26.300781 -18.878906 26.6875 -20.691406 26.6875 -22.765625 C 26.6875 -24.503906 26.128906 -25.5 25.015625 -25.75 L 24.734375 -25.75 C 23.523438 -25.75 22.75 -25.382812 22.40625 -24.65625 C 20.8125 -22.144531 19.796875 -20.160156 19.359375 -18.703125 C 19.066406 -17.929688 18.875 -17.519531 18.78125 -17.46875 C 18.632812 -17.425781 18.5625 -17.257812 18.5625 -16.96875 Z M 18.5625 -16.96875 "/></g></g></g><g fill="#ffffff" fill-opacity="1"><g transform="translate(120.015344, 61.015319)"><g><path d="M 12.625 -11.609375 C 12.625 -11.796875 12.550781 -11.925781 12.40625 -12 C 12.257812 -12.070312 12.132812 -12.0625 12.03125 -11.96875 C 11.882812 -11.820312 11.835938 -11.660156 11.890625 -11.484375 C 11.941406 -11.316406 12.0625 -11.234375 12.25 -11.234375 C 12.5 -11.234375 12.625 -11.359375 12.625 -11.609375 Z M 20.890625 -25.671875 C 20.984375 -25.960938 21.03125 -26.15625 21.03125 -26.25 C 21.03125 -26.976562 20.546875 -27.628906 19.578125 -28.203125 C 18.609375 -28.785156 17.59375 -29.078125 16.53125 -29.078125 L 15.15625 -29.078125 L 13.703125 -27.5625 C 12.785156 -26.59375 12.375 -26.007812 12.46875 -25.8125 C 12.664062 -25.570312 14.285156 -25.378906 17.328125 -25.234375 L 20.671875 -25.09375 Z M 7.46875 -31.984375 C 8.34375 -33.429688 9.863281 -34.804688 12.03125 -36.109375 C 14.207031 -37.421875 16.3125 -38.078125 18.34375 -38.078125 L 18.421875 -38.078125 C 18.660156 -38.078125 19.320312 -37.878906 20.40625 -37.484375 C 21.5 -37.097656 22.164062 -36.832031 22.40625 -36.6875 C 22.644531 -36.445312 22.9375 -36.328125 23.28125 -36.328125 C 23.519531 -36.328125 23.925781 -36.023438 24.5 -35.421875 C 25.082031 -34.816406 25.375 -34.367188 25.375 -34.078125 C 25.375 -33.835938 25.5 -33.644531 25.75 -33.5 C 26.664062 -32.726562 27.21875 -31.085938 27.40625 -28.578125 C 27.507812 -27.316406 27.628906 -26.632812 27.765625 -26.53125 C 27.910156 -26.4375 27.984375 -26.148438 27.984375 -25.671875 C 27.984375 -25.191406 27.910156 -24.898438 27.765625 -24.796875 C 27.628906 -24.703125 27.5625 -24.535156 27.5625 -24.296875 C 27.5625 -24.054688 27.4375 -23.8125 27.1875 -23.5625 C 27 -23.414062 26.90625 -23.054688 26.90625 -22.484375 C 26.90625 -21.421875 26.539062 -20.550781 25.8125 -19.875 C 25.09375 -19.195312 23.910156 -18.640625 22.265625 -18.203125 C 21.921875 -18.109375 21.582031 -18.0625 21.25 -18.0625 C 21.101562 -18.0625 20.90625 -18.097656 20.65625 -18.171875 C 20.414062 -18.242188 20.175781 -18.28125 19.9375 -18.28125 C 19.601562 -18.28125 19.316406 -18.253906 19.078125 -18.203125 C 18.492188 -18.109375 17.765625 -18.0625 16.890625 -18.0625 C 16.847656 -18.0625 16.425781 -18.082031 15.625 -18.125 C 14.832031 -18.175781 14.144531 -18.203125 13.5625 -18.203125 L 12.1875 -18.203125 C 11.40625 -18.203125 11.015625 -18.148438 11.015625 -18.046875 C 11.015625 -17.953125 11.039062 -17.882812 11.09375 -17.84375 C 11.238281 -17.59375 11.578125 -17.375 12.109375 -17.1875 C 12.585938 -16.988281 12.828125 -16.84375 12.828125 -16.75 C 12.828125 -16.5625 13.703125 -16.148438 15.453125 -15.515625 C 16.316406 -15.179688 18.003906 -15.015625 20.515625 -15.015625 C 22.984375 -15.015625 24.484375 -14.941406 25.015625 -14.796875 C 25.453125 -14.648438 25.960938 -14.53125 26.546875 -14.4375 C 28.035156 -14.09375 28.78125 -13.125 28.78125 -11.53125 C 28.78125 -10.175781 28.273438 -9.113281 27.265625 -8.34375 C 26.785156 -7.957031 25.648438 -7.710938 23.859375 -7.609375 C 21.828125 -7.515625 20.398438 -7.46875 19.578125 -7.46875 C 15.472656 -7.46875 12.691406 -7.851562 11.234375 -8.625 C 8.390625 -10.21875 6.429688 -12.296875 5.359375 -14.859375 C 4.546875 -16.847656 4.140625 -18.59375 4.140625 -20.09375 L 4.140625 -20.953125 C 4.273438 -22.546875 4.691406 -24.523438 5.390625 -26.890625 C 6.097656 -29.265625 6.789062 -30.960938 7.46875 -31.984375 Z M 7.46875 -31.984375 "/></g></g></g><g fill="#ffffff" fill-opacity="1"><g transform="translate(152.794124, 61.015319)"><g/></g></g><g fill="#ffffff" fill-opacity="1"><g transform="translate(178.175923, 61.015319)"><g><path d="M 16.609375 -3.921875 C 16.847656 -3.921875 16.96875 -4.039062 16.96875 -4.28125 C 16.96875 -4.519531 16.847656 -4.640625 16.609375 -4.640625 C 16.367188 -4.640625 16.25 -4.519531 16.25 -4.28125 C 16.25 -4.039062 16.367188 -3.921875 16.609375 -3.921875 Z M 35.671875 -43.9375 C 35.921875 -43.695312 36.128906 -43.757812 36.296875 -44.125 C 36.460938 -44.488281 36.351562 -44.671875 35.96875 -44.671875 C 35.769531 -44.671875 35.632812 -44.582031 35.5625 -44.40625 C 35.488281 -44.238281 35.523438 -44.082031 35.671875 -43.9375 Z M 27.984375 -50.90625 C 29.441406 -51.632812 30.546875 -52.082031 31.296875 -52.25 C 32.046875 -52.414062 33.429688 -52.5 35.453125 -52.5 C 36.523438 -52.5 37.328125 -52.460938 37.859375 -52.390625 C 38.390625 -52.316406 38.941406 -52.160156 39.515625 -51.921875 C 40.097656 -51.679688 40.582031 -51.507812 40.96875 -51.40625 C 42.945312 -50.976562 44.300781 -50.398438 45.03125 -49.671875 C 46.914062 -47.691406 48.171875 -46.273438 48.796875 -45.421875 C 49.429688 -44.578125 50.035156 -43.457031 50.609375 -42.0625 C 51.722656 -39.300781 52.28125 -37.097656 52.28125 -35.453125 C 52.28125 -35.359375 52.269531 -35.203125 52.25 -34.984375 C 52.226562 -34.765625 52.21875 -34.609375 52.21875 -34.515625 C 52.113281 -33.398438 51.578125 -32.117188 50.609375 -30.671875 C 50.035156 -29.804688 49.445312 -29.226562 48.84375 -28.9375 C 48.238281 -28.644531 47.28125 -28.5 45.96875 -28.5 C 44.71875 -28.5 43.789062 -28.59375 43.1875 -28.78125 C 42.582031 -28.976562 42.035156 -29.390625 41.546875 -30.015625 C 40.296875 -31.566406 39.570312 -33.476562 39.375 -35.75 C 39.1875 -38.21875 38.894531 -39.789062 38.5 -40.46875 C 38.351562 -40.757812 37.953125 -41.070312 37.296875 -41.40625 C 36.648438 -41.75 36.132812 -41.921875 35.75 -41.921875 C 35.414062 -41.921875 35.222656 -41.988281 35.171875 -42.125 C 35.117188 -42.269531 34.828125 -42.34375 34.296875 -42.34375 C 33.429688 -42.34375 32.707031 -42.203125 32.125 -41.921875 C 31.15625 -41.429688 30.285156 -40.460938 29.515625 -39.015625 C 28.929688 -37.847656 28.640625 -37 28.640625 -36.46875 C 28.640625 -35.9375 28.976562 -34.925781 29.65625 -33.4375 C 29.75 -33.238281 30.113281 -32.460938 30.75 -31.109375 C 31.132812 -30.140625 31.832031 -29.222656 32.84375 -28.359375 C 33.863281 -27.429688 34.710938 -26.460938 35.390625 -25.453125 C 36.109375 -24.335938 36.59375 -23.707031 36.84375 -23.5625 C 37.613281 -22.988281 38.429688 -21.578125 39.296875 -19.328125 C 40.171875 -17.078125 40.65625 -15.109375 40.75 -13.421875 C 40.75 -13.222656 40.773438 -12.738281 40.828125 -11.96875 C 40.878906 -11.195312 40.925781 -10.664062 40.96875 -10.375 L 40.96875 -9.71875 C 40.96875 -7.488281 40.269531 -4.707031 38.875 -1.375 C 38.582031 -0.695312 37.6875 0.390625 36.1875 1.890625 C 33.914062 4.066406 32.25 5.46875 31.1875 6.09375 C 30.3125 6.570312 29.847656 6.863281 29.796875 6.96875 C 29.753906 7.101562 29.585938 7.171875 29.296875 7.171875 C 29.054688 7.171875 28.40625 7.441406 27.34375 7.984375 C 25.9375 8.648438 24.726562 8.984375 23.71875 8.984375 C 23.519531 8.984375 22.695312 8.9375 21.25 8.84375 C 18.488281 8.65625 16.367188 8.304688 14.890625 7.796875 C 13.421875 7.285156 11.914062 6.425781 10.375 5.21875 C 9.351562 4.394531 8.769531 3.789062 8.625 3.40625 C 8.4375 2.96875 8.023438 2.554688 7.390625 2.171875 C 6.816406 1.835938 6.53125 1.570312 6.53125 1.375 C 6.53125 1.226562 6.265625 0.722656 5.734375 -0.140625 C 5.242188 -0.960938 4.953125 -1.859375 4.859375 -2.828125 C 4.765625 -3.796875 4.59375 -4.472656 4.34375 -4.859375 C 4.15625 -5.191406 4.0625 -5.84375 4.0625 -6.8125 C 4.0625 -6.957031 4.070312 -7.285156 4.09375 -7.796875 C 4.125 -8.304688 4.140625 -8.726562 4.140625 -9.0625 C 4.273438 -12.394531 4.46875 -14.207031 4.71875 -14.5 L 6.3125 -17.546875 C 8.769531 -22.523438 10.96875 -25.453125 12.90625 -26.328125 C 13.53125 -26.566406 14.253906 -26.6875 15.078125 -26.6875 C 15.898438 -26.6875 16.628906 -26.566406 17.265625 -26.328125 C 17.691406 -26.128906 18.015625 -25.882812 18.234375 -25.59375 C 18.453125 -25.300781 18.804688 -24.648438 19.296875 -23.640625 C 19.578125 -23.015625 19.71875 -22.21875 19.71875 -21.25 C 19.71875 -20.28125 19.695312 -19.429688 19.65625 -18.703125 C 19.550781 -16.578125 19.40625 -14.425781 19.21875 -12.25 C 19.070312 -11.09375 19 -10.222656 19 -9.640625 C 19 -9.109375 19.070312 -8.484375 19.21875 -7.765625 C 19.894531 -3.703125 21.320312 -1.671875 23.5 -1.671875 C 24.320312 -1.671875 25.335938 -1.9375 26.546875 -2.46875 C 27.265625 -2.800781 27.71875 -3.085938 27.90625 -3.328125 C 28.101562 -3.578125 28.492188 -4.234375 29.078125 -5.296875 C 29.992188 -7.035156 30.453125 -8.554688 30.453125 -9.859375 C 30.453125 -10.628906 30.285156 -11.332031 29.953125 -11.96875 C 29.660156 -12.445312 29.46875 -13.097656 29.375 -13.921875 C 29.320312 -14.597656 28.910156 -15.46875 28.140625 -16.53125 C 27.410156 -17.5 26.925781 -18.222656 26.6875 -18.703125 C 26.632812 -18.804688 26.222656 -19.4375 25.453125 -20.59375 C 24.484375 -22.039062 23.441406 -23.828125 22.328125 -25.953125 C 21.222656 -28.085938 20.523438 -29.707031 20.234375 -30.8125 C 20.035156 -31.632812 19.9375 -32.914062 19.9375 -34.65625 C 19.9375 -36.539062 20.054688 -37.722656 20.296875 -38.203125 C 20.546875 -38.691406 20.71875 -39.300781 20.8125 -40.03125 C 20.90625 -40.707031 21.410156 -42.007812 22.328125 -43.9375 C 23.253906 -45.875 24.03125 -47.253906 24.65625 -48.078125 C 25.519531 -49.285156 26.628906 -50.226562 27.984375 -50.90625 Z M 27.984375 -50.90625 "/></g></g></g><g fill="#ffffff" fill-opacity="1"><g transform="translate(234.450994, 61.015319)"><g><path d="M 36.1875 -24.515625 C 36.1875 -24.847656 36.0625 -25.015625 35.8125 -25.015625 C 35.570312 -25.015625 35.453125 -24.847656 35.453125 -24.515625 C 35.453125 -24.222656 35.570312 -24.078125 35.8125 -24.078125 C 36.0625 -24.078125 36.1875 -24.222656 36.1875 -24.515625 Z M 26.90625 -36.046875 C 26.90625 -36.085938 26.734375 -36.109375 26.390625 -36.109375 C 26.003906 -36.109375 25.929688 -36.035156 26.171875 -35.890625 C 26.566406 -35.742188 26.8125 -35.796875 26.90625 -36.046875 Z M 18.5625 -16.96875 C 18.5625 -16.769531 18.40625 -16.304688 18.09375 -15.578125 C 17.78125 -14.859375 17.625 -14.40625 17.625 -14.21875 C 17.625 -13.78125 17.476562 -13.414062 17.1875 -13.125 C 16.84375 -12.789062 16.671875 -12.523438 16.671875 -12.328125 C 16.671875 -12.128906 16.578125 -11.957031 16.390625 -11.8125 C 16.148438 -11.675781 15.976562 -11.316406 15.875 -10.734375 C 15.832031 -10.441406 15.613281 -9.957031 15.21875 -9.28125 C 14.832031 -8.601562 14.640625 -8.09375 14.640625 -7.75 C 14.640625 -7.414062 14.472656 -7.113281 14.140625 -6.84375 C 13.804688 -6.582031 13.394531 -6.453125 12.90625 -6.453125 C 11.988281 -6.453125 11.3125 -6.085938 10.875 -5.359375 C 10.539062 -4.878906 10.007812 -4.929688 9.28125 -5.515625 C 8.945312 -5.753906 8.5625 -5.910156 8.125 -5.984375 C 7.6875 -6.054688 7.421875 -5.992188 7.328125 -5.796875 C 7.273438 -5.648438 6.882812 -5.578125 6.15625 -5.578125 C 5.34375 -5.578125 4.835938 -5.675781 4.640625 -5.875 C 4.304688 -6.113281 4.140625 -6.351562 4.140625 -6.59375 C 4.140625 -7.707031 4.742188 -9.472656 5.953125 -11.890625 C 6.191406 -12.273438 6.3125 -12.585938 6.3125 -12.828125 C 6.3125 -12.972656 6.441406 -13.25 6.703125 -13.65625 C 6.972656 -14.070312 7.109375 -14.425781 7.109375 -14.71875 C 7.109375 -15.0625 7.285156 -15.664062 7.640625 -16.53125 C 8.003906 -17.40625 8.210938 -17.9375 8.265625 -18.125 C 8.359375 -18.757812 8.671875 -19.65625 9.203125 -20.8125 C 9.785156 -22.070312 10.320312 -23.425781 10.8125 -24.875 C 11.875 -28.113281 12.644531 -30.09375 13.125 -30.8125 C 13.507812 -31.488281 13.703125 -31.878906 13.703125 -31.984375 C 13.703125 -32.222656 13.992188 -33.066406 14.578125 -34.515625 C 15.929688 -37.566406 16.679688 -39.570312 16.828125 -40.53125 C 16.921875 -41.113281 17.085938 -41.71875 17.328125 -42.34375 C 17.566406 -42.976562 17.738281 -43.507812 17.84375 -43.9375 C 18.03125 -44.757812 18.195312 -45.222656 18.34375 -45.328125 C 18.488281 -45.367188 18.5625 -45.582031 18.5625 -45.96875 C 18.5625 -46.363281 18.632812 -46.582031 18.78125 -46.625 C 18.925781 -46.675781 19 -47.113281 19 -47.9375 C 19 -48.46875 18.960938 -48.789062 18.890625 -48.90625 C 18.816406 -49.03125 18.632812 -49.140625 18.34375 -49.234375 C 17.957031 -49.285156 17.617188 -49.625 17.328125 -50.25 L 16.890625 -51.203125 L 17.546875 -52.0625 C 17.984375 -52.695312 18.296875 -53.015625 18.484375 -53.015625 C 18.679688 -53.015625 19.019531 -53.132812 19.5 -53.375 C 19.894531 -53.5625 20.453125 -53.707031 21.171875 -53.8125 C 21.703125 -53.851562 22.285156 -54.191406 22.921875 -54.828125 C 23.929688 -55.835938 24.847656 -56.34375 25.671875 -56.34375 C 25.765625 -56.34375 25.835938 -56.316406 25.890625 -56.265625 C 26.078125 -56.171875 26.21875 -56.171875 26.3125 -56.265625 C 26.414062 -56.367188 26.539062 -56.515625 26.6875 -56.703125 C 26.832031 -56.898438 26.953125 -57 27.046875 -57 C 27.191406 -57 27.410156 -57.191406 27.703125 -57.578125 C 27.890625 -57.910156 28.15625 -58.078125 28.5 -58.078125 C 29.125 -58.078125 29.554688 -57.425781 29.796875 -56.125 C 29.847656 -55.9375 29.921875 -55.5625 30.015625 -55 C 30.117188 -54.445312 30.207031 -53.925781 30.28125 -53.4375 C 30.351562 -52.957031 30.390625 -52.523438 30.390625 -52.140625 C 30.390625 -51.515625 30.265625 -51.003906 30.015625 -50.609375 C 29.773438 -50.273438 29.65625 -49.84375 29.65625 -49.3125 C 29.65625 -48.195312 29.242188 -46.675781 28.421875 -44.75 C 28.128906 -44.164062 27.835938 -43.234375 27.546875 -41.953125 C 27.265625 -40.671875 27.003906 -39.765625 26.765625 -39.234375 C 26.367188 -38.359375 26.171875 -37.800781 26.171875 -37.5625 C 26.171875 -37.363281 26.242188 -37.21875 26.390625 -37.125 C 26.921875 -36.789062 28.128906 -36.570312 30.015625 -36.46875 C 31.859375 -36.332031 33.09375 -35.972656 33.71875 -35.390625 C 35.800781 -33.597656 36.84375 -32.390625 36.84375 -31.765625 C 36.84375 -31.273438 36.960938 -30.957031 37.203125 -30.8125 C 37.734375 -30.382812 38 -29.421875 38 -27.921875 C 38 -27.148438 38.070312 -26.109375 38.21875 -24.796875 C 38.3125 -23.546875 38.359375 -22.867188 38.359375 -22.765625 C 38.359375 -22.234375 38.285156 -21.75 38.140625 -21.3125 C 37.316406 -18.851562 36.90625 -16.875 36.90625 -15.375 C 36.90625 -15.03125 37.078125 -14.859375 37.421875 -14.859375 C 37.898438 -14.859375 38.789062 -15.25 40.09375 -16.03125 C 40.289062 -16.125 40.414062 -16.171875 40.46875 -16.171875 C 40.65625 -16.171875 41.257812 -15.878906 42.28125 -15.296875 C 43.78125 -14.378906 44.53125 -13.316406 44.53125 -12.109375 C 44.53125 -10.898438 44.019531 -9.957031 43 -9.28125 C 41.601562 -8.3125 39.863281 -7.828125 37.78125 -7.828125 C 36.375 -7.828125 35.019531 -7.644531 33.71875 -7.28125 C 32.414062 -6.925781 31.132812 -6.75 29.875 -6.75 L 28.78125 -6.75 C 27.71875 -6.75 27.046875 -6.890625 26.765625 -7.171875 C 26.515625 -7.460938 26.195312 -7.609375 25.8125 -7.609375 C 24.75 -7.609375 24.144531 -8.019531 24 -8.84375 C 23.957031 -9.132812 23.910156 -9.472656 23.859375 -9.859375 C 23.804688 -10.242188 23.769531 -10.546875 23.75 -10.765625 C 23.726562 -10.984375 23.71875 -11.164062 23.71875 -11.3125 C 23.71875 -11.644531 23.835938 -11.984375 24.078125 -12.328125 C 24.367188 -12.710938 24.585938 -13.414062 24.734375 -14.4375 C 24.773438 -15.445312 25.039062 -16.410156 25.53125 -17.328125 C 26.300781 -18.878906 26.6875 -20.691406 26.6875 -22.765625 C 26.6875 -24.503906 26.128906 -25.5 25.015625 -25.75 L 24.734375 -25.75 C 23.523438 -25.75 22.75 -25.382812 22.40625 -24.65625 C 20.8125 -22.144531 19.796875 -20.160156 19.359375 -18.703125 C 19.066406 -17.929688 18.875 -17.519531 18.78125 -17.46875 C 18.632812 -17.425781 18.5625 -17.257812 18.5625 -16.96875 Z M 18.5625 -16.96875 "/></g></g></g><g fill="#ffffff" fill-opacity="1"><g transform="translate(282.893988, 61.015319)"><g><path d="M 22.265625 -28.78125 C 21.535156 -28.925781 21.125 -28.988281 21.03125 -28.96875 C 20.9375 -28.945312 20.765625 -28.816406 20.515625 -28.578125 C 20.179688 -28.234375 19.773438 -27.941406 19.296875 -27.703125 C 18.128906 -27.078125 17.0625 -25.867188 16.09375 -24.078125 C 15.664062 -23.253906 15.453125 -22.503906 15.453125 -21.828125 C 15.453125 -21.734375 15.460938 -21.515625 15.484375 -21.171875 C 15.503906 -20.835938 15.515625 -20.570312 15.515625 -20.375 C 15.515625 -20.132812 15.476562 -19.867188 15.40625 -19.578125 C 15.332031 -19.285156 15.296875 -19.117188 15.296875 -19.078125 C 15.296875 -18.828125 15.585938 -18.65625 16.171875 -18.5625 C 16.648438 -18.46875 17.0625 -18.25 17.40625 -17.90625 C 17.738281 -17.613281 18.390625 -17.46875 19.359375 -17.46875 C 20.234375 -17.46875 21.007812 -17.613281 21.6875 -17.90625 C 22.164062 -18.15625 22.632812 -18.53125 23.09375 -19.03125 C 23.550781 -19.539062 23.832031 -20.035156 23.9375 -20.515625 C 23.976562 -20.804688 24.171875 -21.34375 24.515625 -22.125 C 24.703125 -22.507812 24.796875 -23.0625 24.796875 -23.78125 C 24.796875 -24.894531 24.507812 -26.101562 23.9375 -27.40625 C 23.6875 -27.9375 23.476562 -28.273438 23.3125 -28.421875 C 23.144531 -28.566406 22.796875 -28.6875 22.265625 -28.78125 Z M 31.6875 -34.734375 C 32.3125 -34.109375 32.625 -33.722656 32.625 -33.578125 C 32.625 -33.429688 32.914062 -33.128906 33.5 -32.671875 C 34.082031 -32.210938 34.375 -31.929688 34.375 -31.828125 C 34.375 -31.679688 34.566406 -31.222656 34.953125 -30.453125 C 35.242188 -29.828125 35.507812 -28.65625 35.75 -26.9375 C 35.988281 -25.21875 36.109375 -23.753906 36.109375 -22.546875 C 36.109375 -21.722656 36.0625 -21.242188 35.96875 -21.109375 C 35.769531 -20.710938 35.671875 -20.273438 35.671875 -19.796875 C 35.671875 -18.441406 35.238281 -16.847656 34.375 -15.015625 C 33.550781 -13.316406 32.296875 -12.054688 30.609375 -11.234375 C 29.734375 -10.847656 29.125 -10.488281 28.78125 -10.15625 C 28.539062 -9.914062 28.191406 -9.722656 27.734375 -9.578125 C 27.273438 -9.429688 26.671875 -9.285156 25.921875 -9.140625 C 25.171875 -8.992188 24.675781 -8.894531 24.4375 -8.84375 C 23.375 -8.550781 22.722656 -8.40625 22.484375 -8.40625 C 21.566406 -8.21875 20.332031 -8.125 18.78125 -8.125 C 17.8125 -8.125 17.0625 -8.144531 16.53125 -8.1875 C 15.757812 -8.289062 14.707031 -8.484375 13.375 -8.765625 C 12.050781 -9.054688 11.242188 -9.300781 10.953125 -9.5 C 10.660156 -9.695312 10.296875 -9.84375 9.859375 -9.9375 C 9.378906 -10.082031 8.554688 -10.78125 7.390625 -12.03125 C 6.179688 -13.34375 5.53125 -14.3125 5.4375 -14.9375 C 5.34375 -15.613281 5.078125 -16.4375 4.640625 -17.40625 C 4.253906 -18.320312 4.0625 -19.117188 4.0625 -19.796875 C 4.0625 -20.328125 4.085938 -20.8125 4.140625 -21.25 C 4.273438 -24.195312 4.660156 -26.128906 5.296875 -27.046875 C 5.585938 -27.390625 5.828125 -27.921875 6.015625 -28.640625 C 6.109375 -28.929688 6.273438 -29.296875 6.515625 -29.734375 C 6.765625 -30.171875 7.035156 -30.628906 7.328125 -31.109375 C 7.617188 -31.585938 7.8125 -31.898438 7.90625 -32.046875 C 8.675781 -33.546875 10.125 -34.753906 12.25 -35.671875 C 12.925781 -35.921875 13.390625 -36.164062 13.640625 -36.40625 L 14 -36.6875 C 14.625 -36.6875 15.476562 -36.914062 16.5625 -37.375 C 17.65625 -37.84375 18.273438 -38.097656 18.421875 -38.140625 L 19.4375 -38.4375 C 19.476562 -38.4375 20.140625 -38.300781 21.421875 -38.03125 C 22.703125 -37.769531 23.394531 -37.640625 23.5 -37.640625 C 24.945312 -37.640625 25.9375 -37.421875 26.46875 -36.984375 C 26.707031 -36.742188 27.117188 -36.570312 27.703125 -36.46875 C 29.640625 -36.039062 30.96875 -35.460938 31.6875 -34.734375 Z M 31.6875 -34.734375 "/></g></g></g><g fill="#ffffff" fill-opacity="1"><g transform="translate(322.997229, 61.015319)"><g><path d="M 8.40625 -20.015625 C 8.65625 -19.773438 8.835938 -19.859375 8.953125 -20.265625 C 9.078125 -20.679688 8.96875 -20.890625 8.625 -20.890625 C 8.4375 -20.890625 8.316406 -20.78125 8.265625 -20.5625 C 8.210938 -20.34375 8.257812 -20.160156 8.40625 -20.015625 Z M 27.625 -25.15625 C 27.625 -25.40625 27.476562 -25.53125 27.1875 -25.53125 C 26.90625 -25.53125 26.765625 -25.40625 26.765625 -25.15625 C 26.765625 -24.96875 26.90625 -24.875 27.1875 -24.875 C 27.476562 -24.875 27.625 -24.96875 27.625 -25.15625 Z M 44.15625 -28.203125 C 43.675781 -27.671875 43.4375 -27.359375 43.4375 -27.265625 C 43.4375 -27.171875 43.082031 -26.648438 42.375 -25.703125 C 41.675781 -24.765625 41.328125 -24.269531 41.328125 -24.21875 C 41.328125 -24.03125 41.132812 -23.691406 40.75 -23.203125 C 40.707031 -23.109375 40.597656 -22.9375 40.421875 -22.6875 C 40.253906 -22.445312 40.097656 -22.226562 39.953125 -22.03125 C 39.804688 -21.84375 39.6875 -21.65625 39.59375 -21.46875 C 39.207031 -20.644531 38.503906 -19.53125 37.484375 -18.125 C 36.378906 -16.675781 35.679688 -15.710938 35.390625 -15.234375 C 34.617188 -14.117188 33.457031 -12.847656 31.90625 -11.421875 C 30.363281 -9.992188 29.203125 -9.132812 28.421875 -8.84375 C 27.941406 -8.65625 27.601562 -8.507812 27.40625 -8.40625 C 26.195312 -7.632812 24.894531 -7.25 23.5 -7.25 C 22.863281 -7.25 22.351562 -7.347656 21.96875 -7.546875 C 21.195312 -7.929688 20.75 -8.410156 20.625 -8.984375 C 20.507812 -9.566406 20.453125 -11.382812 20.453125 -14.4375 C 20.453125 -18.0625 20.398438 -19.921875 20.296875 -20.015625 L 20.234375 -20.015625 C 20.035156 -20.015625 19.726562 -19.675781 19.3125 -19 C 18.90625 -18.320312 18.492188 -17.582031 18.078125 -16.78125 C 17.671875 -15.988281 17.421875 -15.519531 17.328125 -15.375 C 17.085938 -15.03125 16.847656 -14.601562 16.609375 -14.09375 C 16.367188 -13.59375 16.175781 -13.222656 16.03125 -12.984375 C 15.6875 -12.492188 15.304688 -11.800781 14.890625 -10.90625 C 14.484375 -10.019531 14.28125 -9.503906 14.28125 -9.359375 C 14.28125 -9.210938 14.035156 -8.859375 13.546875 -8.296875 C 13.066406 -7.742188 12.828125 -7.441406 12.828125 -7.390625 C 12.546875 -6.859375 11.535156 -6.59375 9.796875 -6.59375 C 8.722656 -6.59375 7.945312 -6.71875 7.46875 -6.96875 C 6.164062 -7.59375 5.34375 -8.265625 5 -8.984375 C 4.519531 -10.003906 4.234375 -12.328125 4.140625 -15.953125 C 4.035156 -18.128906 3.960938 -19.289062 3.921875 -19.4375 C 3.816406 -19.675781 3.863281 -19.914062 4.0625 -20.15625 C 4.207031 -20.351562 4.28125 -20.957031 4.28125 -21.96875 C 4.28125 -22.164062 4.265625 -22.550781 4.234375 -23.125 C 4.210938 -23.707031 4.203125 -24.21875 4.203125 -24.65625 L 4.203125 -26.25 C 4.203125 -27.164062 4.238281 -28.164062 4.3125 -29.25 C 4.382812 -30.34375 4.421875 -31.226562 4.421875 -31.90625 C 4.421875 -32.632812 4.519531 -33 4.71875 -33 C 4.757812 -33 4.925781 -33.265625 5.21875 -33.796875 C 5.601562 -34.898438 6.546875 -35.453125 8.046875 -35.453125 C 8.773438 -35.453125 9.40625 -35.28125 9.9375 -34.9375 C 10.46875 -34.601562 10.734375 -34.367188 10.734375 -34.234375 C 10.734375 -33.984375 10.925781 -33.664062 11.3125 -33.28125 C 11.601562 -32.988281 11.859375 -32.382812 12.078125 -31.46875 C 12.296875 -30.550781 12.425781 -30.019531 12.46875 -29.875 C 12.664062 -29.34375 12.8125 -28.59375 12.90625 -27.625 C 13.050781 -25.738281 13.296875 -24.675781 13.640625 -24.4375 C 13.921875 -24.238281 14.0625 -24.070312 14.0625 -23.9375 C 14.0625 -23.738281 14.109375 -23.640625 14.203125 -23.640625 C 14.304688 -23.640625 14.515625 -23.84375 14.828125 -24.25 C 15.140625 -24.664062 15.296875 -24.96875 15.296875 -25.15625 C 15.296875 -25.40625 15.535156 -25.925781 16.015625 -26.71875 C 16.503906 -27.519531 16.96875 -28.160156 17.40625 -28.640625 C 18.082031 -29.316406 18.78125 -30.140625 19.5 -31.109375 C 20.132812 -31.835938 21.039062 -32.753906 22.21875 -33.859375 C 23.40625 -34.972656 24.097656 -35.53125 24.296875 -35.53125 C 24.335938 -35.53125 24.410156 -35.484375 24.515625 -35.390625 L 24.796875 -35.171875 C 24.941406 -35.023438 25.132812 -34.890625 25.375 -34.765625 C 25.625 -34.648438 25.816406 -34.503906 25.953125 -34.328125 C 26.097656 -34.160156 26.21875 -33.90625 26.3125 -33.5625 C 26.414062 -33.226562 26.898438 -32.007812 27.765625 -29.90625 C 28.640625 -27.8125 29.148438 -26.398438 29.296875 -25.671875 C 29.535156 -24.554688 29.703125 -23.898438 29.796875 -23.703125 C 29.898438 -23.515625 30.070312 -23.421875 30.3125 -23.421875 C 31.039062 -23.421875 31.984375 -24.703125 33.140625 -27.265625 C 33.523438 -28.085938 33.863281 -28.59375 34.15625 -28.78125 C 34.488281 -29.03125 34.65625 -29.300781 34.65625 -29.59375 C 34.65625 -29.6875 35.175781 -30.285156 36.21875 -31.390625 C 37.257812 -32.503906 37.78125 -33.113281 37.78125 -33.21875 C 37.78125 -33.363281 37.898438 -33.4375 38.140625 -33.4375 C 38.285156 -33.4375 38.578125 -33.75 39.015625 -34.375 C 39.453125 -35 39.71875 -35.332031 39.8125 -35.375 C 39.90625 -35.425781 40.675781 -35.453125 42.125 -35.453125 C 43.53125 -35.410156 44.453125 -35.21875 44.890625 -34.875 C 45.710938 -34.195312 45.929688 -33.617188 45.546875 -33.140625 C 45.398438 -32.898438 45.375 -32.535156 45.46875 -32.046875 C 45.519531 -31.859375 45.546875 -31.546875 45.546875 -31.109375 C 45.546875 -30.378906 45.421875 -29.894531 45.171875 -29.65625 C 44.984375 -29.46875 44.890625 -29.300781 44.890625 -29.15625 C 44.890625 -29.050781 44.644531 -28.734375 44.15625 -28.203125 Z M 44.15625 -28.203125 "/></g></g></g></g></g></g></svg>