<svg xmlns="http://www.w3.org/2000/svg" xmlns:xlink="http://www.w3.org/1999/xlink" width="1775" zoomAndPan="magnify" viewBox="0 0 1331.25 374.999991" height="500" preserveAspectRatio="xMidYMid meet" version="1.0"><defs><g/><clipPath id="ac26eb5ec8"><path d="M 0 87 L 1330.5 87 L 1330.5 286 L 0 286 Z M 0 87 " clip-rule="nonzero"/></clipPath><clipPath id="06644564e8"><path d="M 483 1 L 651 1 L 651 198.785156 L 483 198.785156 Z M 483 1 " clip-rule="nonzero"/></clipPath><clipPath id="cc4904c475"><rect x="0" width="1331" y="0" height="199"/></clipPath></defs><g clip-path="url(#ac26eb5ec8)"><g transform="matrix(1, 0, 0, 1, 0, 87)"><g clip-path="url(#cc4904c475)"><g fill="#ffffff" fill-opacity="1"><g transform="translate(-0.000000000000170434, 174.596768)"><g><path d="M 134.859375 -170.671875 C 136.671875 -171.328125 139.300781 -171.65625 142.75 -171.65625 C 147.695312 -171.65625 150.828125 -171.078125 152.140625 -169.921875 C 153.785156 -168.609375 155.1875 -163.753906 156.34375 -155.359375 C 156.664062 -153.046875 156.828125 -150.242188 156.828125 -146.953125 C 156.828125 -142.835938 155.960938 -140.160156 154.234375 -138.921875 C 152.515625 -137.691406 149.179688 -137.078125 144.234375 -137.078125 C 140.617188 -137.078125 138.109375 -137.320312 136.703125 -137.8125 C 135.304688 -138.3125 133.785156 -139.46875 132.140625 -141.28125 C 128.847656 -144.738281 125.800781 -147 123 -148.0625 C 120.195312 -149.132812 115.914062 -149.671875 110.15625 -149.671875 L 107.4375 -149.671875 C 97.71875 -149.335938 92.117188 -149.007812 90.640625 -148.6875 L 86.6875 -147.703125 L 87.4375 -120.78125 C 87.925781 -105.625 88.742188 -96.234375 89.890625 -92.609375 C 91.046875 -88.992188 93.929688 -86.609375 98.546875 -85.453125 C 102.660156 -84.140625 104.71875 -83.398438 104.71875 -83.234375 C 104.71875 -82.898438 102.414062 -81.664062 97.8125 -79.53125 C 93.195312 -77.550781 90.476562 -75.410156 89.65625 -73.109375 C 87.019531 -66.679688 85.125 -54.828125 83.96875 -37.546875 C 83.8125 -35.398438 83.734375 -32.765625 83.734375 -29.640625 C 83.734375 -25.359375 84.554688 -21.40625 86.203125 -17.78125 C 87.847656 -13.664062 89.90625 -10.207031 92.375 -7.40625 C 94.351562 -5.4375 95.671875 -1.816406 96.328125 3.453125 C 96.648438 6.421875 96.8125 8.148438 96.8125 8.640625 C 96.8125 10.453125 95.578125 12.265625 93.109375 14.078125 C 90.148438 15.890625 80.679688 16.796875 64.703125 16.796875 L 56.3125 16.796875 C 49.226562 16.796875 44.65625 16.460938 42.59375 15.796875 C 40.539062 15.140625 39.515625 13.5 39.515625 10.875 C 39.515625 8.894531 39.765625 6.175781 40.265625 2.71875 C 40.753906 -1.226562 41.53125 -4.066406 42.59375 -5.796875 C 43.664062 -7.523438 46.675781 -10.78125 51.625 -15.5625 C 57.050781 -20.664062 60.421875 -24.695312 61.734375 -27.65625 C 63.054688 -30.625 63.71875 -36.0625 63.71875 -43.96875 C 63.71875 -44.945312 63.675781 -46.753906 63.59375 -49.390625 C 63.507812 -52.023438 63.46875 -54.164062 63.46875 -55.8125 L 62.984375 -75.578125 L 55.578125 -77.796875 C 51.785156 -79.117188 49.890625 -80.191406 49.890625 -81.015625 C 49.890625 -82.003906 52.359375 -83.484375 57.296875 -85.453125 C 60.753906 -86.609375 63.144531 -88.335938 64.46875 -90.640625 C 65.613281 -92.453125 67.132812 -100.273438 69.03125 -114.109375 C 70.925781 -127.941406 71.875 -137.488281 71.875 -142.75 C 71.875 -144.070312 71.789062 -144.816406 71.625 -144.984375 C 70.800781 -145.804688 68.332031 -145.472656 64.21875 -143.984375 C 58.125 -142.179688 53.265625 -140.867188 49.640625 -140.046875 C 46.015625 -139.222656 43.503906 -138.4375 42.109375 -137.6875 C 40.710938 -136.945312 39.4375 -135.671875 38.28125 -133.859375 C 36.144531 -129.910156 32.769531 -127.9375 28.15625 -127.9375 C 27.332031 -127.9375 25.769531 -128.101562 23.46875 -128.4375 C 19.675781 -129.257812 17.117188 -130.453125 15.796875 -132.015625 C 14.484375 -133.578125 13.828125 -136.414062 13.828125 -140.53125 C 13.828125 -141.03125 13.867188 -141.851562 13.953125 -143 C 14.035156 -144.15625 14.078125 -145.0625 14.078125 -145.71875 C 14.566406 -152.96875 15.71875 -157.660156 17.53125 -159.796875 C 19.175781 -161.609375 20.660156 -162.515625 21.984375 -162.515625 C 23.796875 -162.515625 26.757812 -161.363281 30.875 -159.0625 L 37.546875 -155.109375 C 73.109375 -157.078125 99.78125 -158.640625 117.5625 -159.796875 L 124.96875 -164.734375 C 129.25 -167.703125 132.546875 -169.679688 134.859375 -170.671875 Z M 134.859375 -170.671875 "/></g></g></g><g fill="#ffffff" fill-opacity="1"><g transform="translate(170.909983, 174.596768)"><g><path d="M 27.65625 -116.328125 C 30.625 -117.316406 33.753906 -117.8125 37.046875 -117.8125 C 41.328125 -117.8125 44.867188 -117.070312 47.671875 -115.59375 C 49.316406 -114.601562 50.140625 -113.285156 50.140625 -111.640625 C 50.140625 -108.671875 48.492188 -105.457031 45.203125 -102 C 42.734375 -98.875 41.085938 -96.363281 40.265625 -94.46875 C 39.441406 -92.570312 39.03125 -89.648438 39.03125 -85.703125 C 39.03125 -84.710938 39.191406 -81.253906 39.515625 -75.328125 L 40.015625 -61.25 L 47.671875 -59.765625 C 51.953125 -58.773438 59.359375 -58.28125 69.890625 -58.28125 L 84.71875 -58.28125 L 85.953125 -65.203125 C 86.441406 -69.148438 86.6875 -74.664062 86.6875 -81.75 C 86.6875 -86.195312 86.476562 -89.117188 86.0625 -90.515625 C 85.65625 -91.921875 84.382812 -93.445312 82.25 -95.09375 C 79.113281 -97.882812 77.546875 -101.175781 77.546875 -104.96875 C 77.546875 -107.9375 78.367188 -110.488281 80.015625 -112.625 C 81.503906 -114.601562 83.894531 -115.59375 87.1875 -115.59375 C 89.988281 -115.59375 92.539062 -115.507812 94.84375 -115.34375 C 103.070312 -114.6875 107.597656 -113.945312 108.421875 -113.125 C 108.921875 -112.625 109.171875 -110.484375 109.171875 -106.703125 L 109.171875 -103.484375 C 108.835938 -99.703125 108.421875 -97.316406 107.921875 -96.328125 C 107.429688 -95.335938 106.035156 -94.265625 103.734375 -93.109375 C 101.429688 -92.117188 99.867188 -90.925781 99.046875 -89.53125 C 98.222656 -88.132812 97.8125 -85.789062 97.8125 -82.5 C 97.8125 -79.53125 98.054688 -75.492188 98.546875 -70.390625 L 99.78125 -55.8125 L 104.71875 -54.34375 C 107.6875 -53.675781 109.171875 -52.765625 109.171875 -51.609375 C 109.171875 -50.460938 107.523438 -48.738281 104.234375 -46.4375 C 101.753906 -44.789062 100.1875 -43.304688 99.53125 -41.984375 C 98.875 -40.671875 98.546875 -37.707031 98.546875 -33.09375 C 98.546875 -32.269531 98.585938 -30.707031 98.671875 -28.40625 C 98.753906 -26.101562 98.796875 -24.125 98.796875 -22.46875 C 98.960938 -14.570312 99.945312 -9.960938 101.75 -8.640625 C 104.550781 -6.671875 106.28125 -5.066406 106.9375 -3.828125 C 107.601562 -2.585938 107.9375 -0.734375 107.9375 1.734375 C 107.9375 5.191406 106.863281 7.988281 104.71875 10.125 C 102.90625 11.9375 100.4375 12.84375 97.3125 12.84375 C 94.675781 12.84375 92.367188 12.757812 90.390625 12.59375 C 83.148438 11.9375 78.953125 11.363281 77.796875 10.875 C 76.648438 10.039062 76.078125 7.898438 76.078125 4.453125 C 76.078125 1.316406 77.882812 -2.304688 81.5 -6.421875 C 84.132812 -9.222656 85.65625 -11.488281 86.0625 -13.21875 C 86.476562 -14.945312 86.6875 -19.269531 86.6875 -26.1875 C 86.6875 -34.90625 86.273438 -39.675781 85.453125 -40.5 C 83.972656 -41.320312 76.8125 -41.984375 63.96875 -42.484375 C 56.394531 -42.804688 52.03125 -42.96875 50.875 -42.96875 C 45.769531 -42.96875 42.722656 -42.394531 41.734375 -41.25 C 40.253906 -39.4375 39.515625 -32.273438 39.515625 -19.765625 C 39.515625 -11.203125 40.007812 -5.929688 41 -3.953125 C 41.988281 -2.304688 43.882812 -0.410156 46.6875 1.734375 C 49.15625 3.378906 50.390625 6.425781 50.390625 10.875 C 50.390625 14.65625 49.5625 17.039062 47.90625 18.03125 C 46.257812 19.019531 42.0625 19.515625 35.3125 19.515625 C 23.457031 19.515625 17.53125 16.632812 17.53125 10.875 C 17.53125 8.394531 18.601562 5.59375 20.75 2.46875 C 23.382812 -1.3125 24.703125 -6.742188 24.703125 -13.828125 C 24.703125 -15.472656 24.367188 -21.398438 23.703125 -31.609375 C 23.210938 -36.878906 22.757812 -40.171875 22.34375 -41.484375 C 21.9375 -42.804688 20.910156 -43.632812 19.265625 -43.96875 C 15.804688 -44.945312 14.078125 -46.179688 14.078125 -47.671875 C 14.078125 -48.984375 15.722656 -51.695312 19.015625 -55.8125 C 22.140625 -59.601562 24.03125 -62.363281 24.6875 -64.09375 C 25.351562 -65.820312 25.769531 -70.226562 25.9375 -77.3125 C 25.9375 -78.625 25.976562 -80.1875 26.0625 -82 C 26.144531 -83.8125 26.1875 -84.960938 26.1875 -85.453125 C 26.1875 -87.429688 26.019531 -88.992188 25.6875 -90.140625 C 25.351562 -91.296875 24.976562 -92.160156 24.5625 -92.734375 C 24.15625 -93.316406 23.210938 -94.347656 21.734375 -95.828125 C 18.609375 -98.953125 17.046875 -102.242188 17.046875 -105.703125 C 17.046875 -107.847656 17.703125 -109.828125 19.015625 -111.640625 C 20.003906 -113.117188 22.882812 -114.679688 27.65625 -116.328125 Z M 27.65625 -116.328125 "/></g></g></g><g fill="#ffffff" fill-opacity="1"><g transform="translate(293.658923, 174.596768)"><g><path d="M 25.9375 -113.609375 C 30.382812 -114.765625 40.265625 -115.34375 55.578125 -115.34375 L 68.65625 -115.34375 C 84.46875 -115.175781 93.726562 -114.351562 96.4375 -112.875 C 99.15625 -111.394531 100.597656 -107.6875 100.765625 -101.75 L 100.765625 -94.59375 C 100.765625 -86.6875 100.269531 -81.457031 99.28125 -78.90625 C 98.300781 -76.351562 96.242188 -74.914062 93.109375 -74.59375 C 91.460938 -74.425781 90.390625 -74.546875 89.890625 -74.953125 C 89.398438 -75.367188 89.078125 -76.484375 88.921875 -78.296875 C 88.585938 -81.097656 87.0625 -83.070312 84.34375 -84.21875 C 81.625 -85.375 76.972656 -85.953125 70.390625 -85.953125 C 69.734375 -85.953125 68.582031 -85.910156 66.9375 -85.828125 C 65.289062 -85.742188 63.972656 -85.703125 62.984375 -85.703125 L 47.171875 -85.203125 L 48.15625 -74.59375 C 48.976562 -67.175781 49.96875 -62.601562 51.125 -60.875 C 52.28125 -59.144531 55.078125 -58.28125 59.515625 -58.28125 C 71.046875 -58.613281 78.046875 -60.59375 80.515625 -64.21875 C 81.992188 -66.195312 83.890625 -67.1875 86.203125 -67.1875 C 88.835938 -67.1875 90.644531 -65.867188 91.625 -63.234375 C 92.613281 -60.753906 93.109375 -57.289062 93.109375 -52.84375 C 93.109375 -48.40625 92.613281 -44.953125 91.625 -42.484375 C 90.644531 -40.015625 89.164062 -38.78125 87.1875 -38.78125 C 85.539062 -38.78125 83.484375 -39.4375 81.015625 -40.75 C 77.722656 -42.394531 71.796875 -43.21875 63.234375 -43.21875 C 57.628906 -43.21875 54.332031 -42.722656 53.34375 -41.734375 C 52.6875 -41.078125 52.359375 -38.28125 52.359375 -33.34375 C 52.359375 -31.863281 52.523438 -27.5 52.859375 -20.25 L 54.09375 -0.25 L 59.03125 1.734375 C 62.320312 3.210938 67.835938 3.953125 75.578125 3.953125 L 86.9375 3.953125 L 90.890625 -2.96875 C 93.191406 -6.75 94.835938 -8.640625 95.828125 -8.640625 L 96.078125 -8.640625 C 96.734375 -7.984375 97.390625 -4.035156 98.046875 3.203125 C 98.378906 7.160156 98.546875 9.632812 98.546875 10.625 C 98.546875 14.90625 97.101562 17.5 94.21875 18.40625 C 91.34375 19.3125 83.8125 20.007812 71.625 20.5 C 61.25 20.988281 53.347656 21.234375 47.921875 21.234375 L 46.1875 21.234375 C 36.800781 19.585938 30.5 18.351562 27.28125 17.53125 C 24.070312 16.707031 21.769531 15.800781 20.375 14.8125 C 18.976562 13.832031 17.703125 12.1875 16.546875 9.875 C 15.066406 6.914062 14.328125 4.363281 14.328125 2.21875 C 14.328125 -0.414062 15.476562 -2.390625 17.78125 -3.703125 C 20.25 -5.023438 23.050781 -7.164062 26.1875 -10.125 C 28.320312 -12.269531 29.632812 -14.039062 30.125 -15.4375 C 30.625 -16.832031 30.875 -19.753906 30.875 -24.203125 C 30.875 -32.109375 30.460938 -37.210938 29.640625 -39.515625 C 28.816406 -41.816406 26.675781 -43.460938 23.21875 -44.453125 C 19.257812 -45.609375 17.28125 -46.679688 17.28125 -47.671875 C 17.28125 -48.160156 19.34375 -49.972656 23.46875 -53.109375 L 29.390625 -57.546875 L 29.140625 -70.390625 L 28.65625 -83.234375 L 20.75 -86.203125 C 15.8125 -88.015625 13.34375 -89.90625 13.34375 -91.875 C 13.34375 -92.375 13.503906 -93.609375 13.828125 -95.578125 C 14.160156 -97.554688 14.328125 -99.453125 14.328125 -101.265625 C 14.328125 -105.546875 14.984375 -108.382812 16.296875 -109.78125 C 17.617188 -111.1875 20.832031 -112.460938 25.9375 -113.609375 Z M 25.9375 -113.609375 "/></g></g></g><g fill="#ffffff" fill-opacity="1"><g transform="translate(407.763569, 174.596768)"><g/></g></g><g clip-path="url(#06644564e8)"><g fill="#ffffff" fill-opacity="1"><g transform="translate(469.508505, 174.596768)"><g><path d="M 163.5 -164.734375 C 168.9375 -170.503906 172.476562 -173.390625 174.125 -173.390625 C 175.4375 -173.390625 177 -171.820312 178.8125 -168.6875 C 179.96875 -166.550781 180.546875 -163.753906 180.546875 -160.296875 C 180.546875 -156.835938 180.21875 -152.226562 179.5625 -146.46875 C 178.070312 -127.363281 176.175781 -116.492188 173.875 -113.859375 C 172.71875 -112.703125 171.851562 -112.125 171.28125 -112.125 C 170.707031 -112.125 169.347656 -112.617188 167.203125 -113.609375 C 162.265625 -116.242188 159.796875 -119.867188 159.796875 -124.484375 C 159.796875 -126.453125 158.726562 -128.835938 156.59375 -131.640625 C 154.78125 -133.941406 152.882812 -135.09375 150.90625 -135.09375 C 150.414062 -135.09375 148.851562 -134.929688 146.21875 -134.609375 C 137.65625 -133.285156 128.640625 -130.484375 119.171875 -126.203125 C 109.703125 -121.921875 102.910156 -117.476562 98.796875 -112.875 C 92.867188 -106.289062 87.269531 -95.753906 82 -81.265625 C 79.53125 -74.015625 78.296875 -69.320312 78.296875 -67.1875 C 78.296875 -65.207031 79.117188 -63.96875 80.765625 -63.46875 C 83.234375 -62.644531 84.46875 -61.328125 84.46875 -59.515625 C 84.46875 -57.867188 83.234375 -55.566406 80.765625 -52.609375 C 77.640625 -48.984375 76.078125 -45.441406 76.078125 -41.984375 L 76.078125 -40.5 C 76.566406 -32.101562 79.773438 -23.128906 85.703125 -13.578125 C 88.992188 -8.148438 93.191406 -4.117188 98.296875 -1.484375 C 103.234375 1.148438 107.101562 2.46875 109.90625 2.46875 C 113.363281 2.46875 118.34375 1.273438 124.84375 -1.109375 C 131.351562 -3.492188 136.253906 -5.84375 139.546875 -8.15625 C 142.179688 -9.96875 143.992188 -11.734375 144.984375 -13.453125 C 145.972656 -15.179688 147.039062 -18.1875 148.1875 -22.46875 C 150.988281 -33.007812 154.203125 -38.28125 157.828125 -38.28125 C 159.960938 -38.28125 162.019531 -35.8125 164 -30.875 C 164.988281 -28.238281 165.484375 -23.707031 165.484375 -17.28125 C 165.484375 -8.726562 164.78125 -0.046875 163.375 8.765625 C 161.976562 17.578125 160.375 22.3125 158.5625 22.96875 C 157.25 23.300781 156.34375 23.46875 155.84375 23.46875 C 152.382812 23.46875 150.65625 21.488281 150.65625 17.53125 C 150.65625 14.570312 149.585938 12.515625 147.453125 11.359375 C 146.628906 10.867188 145.804688 10.625 144.984375 10.625 C 143.492188 10.625 139.457031 12.269531 132.875 15.5625 C 127.28125 18.363281 123.25 20.050781 120.78125 20.625 C 118.3125 21.195312 113.207031 21.484375 105.46875 21.484375 C 94.269531 21.316406 86.035156 20.082031 80.765625 17.78125 C 68.578125 13.007812 59.4375 6.628906 53.34375 -1.359375 C 47.25 -9.347656 43.460938 -19.84375 41.984375 -32.84375 C 41.328125 -38.613281 40.753906 -41.910156 40.265625 -42.734375 C 39.597656 -43.878906 37.082031 -44.945312 32.71875 -45.9375 C 28.363281 -46.925781 24.207031 -47.789062 20.25 -48.53125 C 16.300781 -49.269531 14.328125 -49.96875 14.328125 -50.625 C 14.328125 -51.445312 16.628906 -52.929688 21.234375 -55.078125 C 26.179688 -57.378906 30.628906 -59.847656 34.578125 -62.484375 C 37.210938 -64.296875 39.023438 -65.941406 40.015625 -67.421875 C 41.003906 -68.910156 41.910156 -71.21875 42.734375 -74.34375 C 47.335938 -94.101562 57.460938 -112.050781 73.109375 -128.1875 C 81.335938 -136.582031 91.421875 -143.207031 103.359375 -148.0625 C 115.296875 -152.925781 128.097656 -155.4375 141.765625 -155.59375 L 155.59375 -156.09375 Z M 163.5 -164.734375 "/></g></g></g></g><g fill="#ffffff" fill-opacity="1"><g transform="translate(663.634617, 174.596768)"><g><path d="M 86.6875 -99.78125 C 83.394531 -103.070312 79.769531 -104.71875 75.8125 -104.71875 C 71.863281 -104.71875 67.832031 -102.90625 63.71875 -99.28125 C 60.59375 -96.488281 57.421875 -90.8125 54.203125 -82.25 C 50.992188 -73.6875 49.144531 -65.945312 48.65625 -59.03125 C 48.65625 -58.695312 48.613281 -58.242188 48.53125 -57.671875 C 48.445312 -57.097656 48.40625 -56.726562 48.40625 -56.5625 C 48.40625 -54.09375 49.554688 -52.363281 51.859375 -51.375 C 54.003906 -50.382812 55.078125 -49.394531 55.078125 -48.40625 C 55.078125 -46.925781 53.757812 -45.113281 51.125 -42.96875 C 48.820312 -40.832031 47.671875 -38.613281 47.671875 -36.3125 C 47.671875 -35.8125 47.832031 -33.914062 48.15625 -30.625 C 48.820312 -24.695312 50.304688 -19.097656 52.609375 -13.828125 C 55.566406 -7.242188 59.0625 -2.632812 63.09375 0 C 67.132812 2.632812 72.53125 3.953125 79.28125 3.953125 C 86.363281 3.953125 92.414062 0.945312 97.4375 -5.0625 C 102.457031 -11.070312 105.378906 -18.769531 106.203125 -28.15625 L 106.9375 -36.796875 C 101.34375 -39.109375 97.0625 -40.835938 94.09375 -41.984375 C 99.039062 -46.265625 102.75 -49.394531 105.21875 -51.375 L 103.484375 -62.734375 C 102.328125 -69.972656 100.1875 -77.09375 97.0625 -84.09375 C 93.9375 -91.09375 90.476562 -96.320312 86.6875 -99.78125 Z M 65.203125 -111.140625 C 72.117188 -113.441406 76.726562 -114.925781 79.03125 -115.59375 L 79.28125 -115.59375 C 81.582031 -115.59375 85.613281 -113.90625 91.375 -110.53125 C 97.144531 -107.15625 101.59375 -103.898438 104.71875 -100.765625 C 108.832031 -96.648438 112.660156 -90.96875 116.203125 -83.71875 C 119.742188 -76.476562 121.925781 -70.222656 122.75 -64.953125 C 123.40625 -59.523438 124.347656 -55.984375 125.578125 -54.328125 C 126.816406 -52.679688 129.578125 -51.117188 133.859375 -49.640625 C 138.640625 -47.828125 141.03125 -46.425781 141.03125 -45.4375 C 141.03125 -44.945312 138.640625 -43.710938 133.859375 -41.734375 C 130.898438 -40.585938 128.96875 -39.519531 128.0625 -38.53125 C 127.15625 -37.539062 126.457031 -35.726562 125.96875 -33.09375 C 123.65625 -21.726562 120.851562 -13.082031 117.5625 -7.15625 C 114.269531 -1.226562 109.332031 4.363281 102.75 9.625 C 94.84375 15.71875 87.019531 18.765625 79.28125 18.765625 C 77.46875 18.765625 73.269531 18.4375 66.6875 17.78125 L 51.375 15.8125 L 42.96875 7.15625 C 37.539062 1.726562 33.59375 -3.617188 31.125 -8.890625 C 28.65625 -14.160156 26.84375 -20.664062 25.6875 -28.40625 C 25.03125 -33.675781 24.367188 -37.050781 23.703125 -38.53125 C 23.046875 -40.007812 22.054688 -40.910156 20.734375 -41.234375 C 19.421875 -41.566406 17.984375 -42.269531 16.421875 -43.34375 C 14.859375 -44.414062 14.078125 -45.28125 14.078125 -45.9375 C 14.078125 -46.101562 14.160156 -46.269531 14.328125 -46.4375 C 19.097656 -49.5625 22.304688 -52.109375 23.953125 -54.078125 C 25.597656 -56.054688 26.832031 -58.773438 27.65625 -62.234375 C 29.144531 -67.835938 32.234375 -75.164062 36.921875 -84.21875 C 41.617188 -93.28125 45.363281 -99.207031 48.15625 -102 C 51.78125 -105.625 57.460938 -108.671875 65.203125 -111.140625 Z M 65.203125 -111.140625 "/></g></g></g><g fill="#ffffff" fill-opacity="1"><g transform="translate(818.984824, 174.596768)"><g><path d="M 59.515625 -109.65625 C 59.023438 -109.65625 58.160156 -109.820312 56.921875 -110.15625 C 55.691406 -110.488281 54.75 -110.65625 54.09375 -110.65625 C 52.9375 -110.65625 52.191406 -110.160156 51.859375 -109.171875 C 51.535156 -108.179688 51.375 -106.203125 51.375 -103.234375 C 51.375 -97.804688 51.660156 -91.222656 52.234375 -83.484375 C 52.816406 -75.742188 53.4375 -71.378906 54.09375 -70.390625 C 54.914062 -69.234375 57.21875 -69.398438 61 -70.890625 C 63.144531 -71.710938 64.832031 -72.863281 66.0625 -74.34375 C 67.300781 -75.820312 68.742188 -78.289062 70.390625 -81.75 C 72.367188 -86.195312 73.359375 -89.410156 73.359375 -91.390625 C 73.359375 -92.703125 73.109375 -94.265625 72.609375 -96.078125 C 71.785156 -99.035156 69.847656 -102.035156 66.796875 -105.078125 C 63.753906 -108.128906 61.328125 -109.65625 59.515625 -109.65625 Z M 39.765625 -119.78125 C 44.210938 -121.269531 48.660156 -122.015625 53.109375 -122.015625 C 60.679688 -122.015625 67.347656 -120.078125 73.109375 -116.203125 C 78.867188 -112.335938 82.65625 -107.109375 84.46875 -100.515625 C 85.78125 -95.578125 86.4375 -91.460938 86.4375 -88.171875 C 86.4375 -79.117188 81.992188 -71.707031 73.109375 -65.9375 C 68.328125 -63.144531 65.691406 -61.085938 65.203125 -59.765625 C 64.867188 -58.941406 66.269531 -57.460938 69.40625 -55.328125 C 72.195312 -53.347656 76.066406 -48.328125 81.015625 -40.265625 C 90.890625 -23.960938 97.96875 -15.8125 102.25 -15.8125 C 104.882812 -15.8125 108.507812 -17.128906 113.125 -19.765625 C 116.738281 -21.734375 119.535156 -22.71875 121.515625 -22.71875 C 124.148438 -22.71875 125.46875 -20.988281 125.46875 -17.53125 C 125.46875 -10.457031 123.492188 -4.613281 119.546875 0 C 117.066406 2.96875 113.5625 5.644531 109.03125 8.03125 C 104.507812 10.414062 100.769531 11.609375 97.8125 11.609375 C 93.53125 11.609375 89.410156 9.34375 85.453125 4.8125 C 81.503906 0.289062 75.414062 -9.132812 67.1875 -23.46875 L 53.59375 -46.921875 C 53.425781 -43.140625 53.21875 -37.296875 52.96875 -29.390625 C 52.726562 -21.484375 52.609375 -15.640625 52.609375 -11.859375 L 58.78125 -6.421875 C 62.894531 -2.628906 64.953125 0.00390625 64.953125 1.484375 C 64.953125 3.128906 62.8125 5.351562 58.53125 8.15625 C 54.082031 10.945312 48.15625 12.507812 40.75 12.84375 L 38.78125 12.84375 C 31.695312 12.84375 26.015625 12.265625 21.734375 11.109375 C 18.273438 10.285156 16.132812 9.503906 15.3125 8.765625 C 14.488281 8.023438 13.910156 6.585938 13.578125 4.453125 L 13.578125 2.96875 C 13.578125 0.5 15.71875 -2.957031 20 -7.40625 C 23.789062 -11.363281 26.34375 -15.191406 27.65625 -18.890625 C 28.976562 -22.597656 29.640625 -27.992188 29.640625 -35.078125 L 29.640625 -40.265625 L 29.390625 -54.34375 L 24.453125 -55.8125 C 21.328125 -56.476562 19.765625 -57.382812 19.765625 -58.53125 C 19.765625 -59.519531 21.410156 -61.003906 24.703125 -62.984375 L 30.125 -65.9375 L 29.640625 -82.25 L 29.390625 -98.296875 L 25.4375 -97.8125 L 24.453125 -97.8125 C 22.804688 -97.8125 21.40625 -98.300781 20.25 -99.28125 C 19.101562 -100.269531 18.53125 -101.507812 18.53125 -103 C 18.53125 -103.820312 18.609375 -104.476562 18.765625 -104.96875 C 19.429688 -107.101562 22.066406 -109.773438 26.671875 -112.984375 C 31.285156 -116.203125 35.648438 -118.46875 39.765625 -119.78125 Z M 39.765625 -119.78125 "/></g></g></g><g fill="#ffffff" fill-opacity="1"><g transform="translate(958.28137, 174.596768)"><g><path d="M 59.515625 -109.65625 C 59.023438 -109.65625 58.160156 -109.820312 56.921875 -110.15625 C 55.691406 -110.488281 54.75 -110.65625 54.09375 -110.65625 C 52.9375 -110.65625 52.191406 -110.160156 51.859375 -109.171875 C 51.535156 -108.179688 51.375 -106.203125 51.375 -103.234375 C 51.375 -97.804688 51.660156 -91.222656 52.234375 -83.484375 C 52.816406 -75.742188 53.4375 -71.378906 54.09375 -70.390625 C 54.914062 -69.234375 57.21875 -69.398438 61 -70.890625 C 63.144531 -71.710938 64.832031 -72.863281 66.0625 -74.34375 C 67.300781 -75.820312 68.742188 -78.289062 70.390625 -81.75 C 72.367188 -86.195312 73.359375 -89.410156 73.359375 -91.390625 C 73.359375 -92.703125 73.109375 -94.265625 72.609375 -96.078125 C 71.785156 -99.035156 69.847656 -102.035156 66.796875 -105.078125 C 63.753906 -108.128906 61.328125 -109.65625 59.515625 -109.65625 Z M 39.765625 -119.78125 C 44.210938 -121.269531 48.660156 -122.015625 53.109375 -122.015625 C 60.679688 -122.015625 67.347656 -120.078125 73.109375 -116.203125 C 78.867188 -112.335938 82.65625 -107.109375 84.46875 -100.515625 C 85.78125 -95.578125 86.4375 -91.460938 86.4375 -88.171875 C 86.4375 -79.117188 81.992188 -71.707031 73.109375 -65.9375 C 68.328125 -63.144531 65.691406 -61.085938 65.203125 -59.765625 C 64.867188 -58.941406 66.269531 -57.460938 69.40625 -55.328125 C 72.195312 -53.347656 76.066406 -48.328125 81.015625 -40.265625 C 90.890625 -23.960938 97.96875 -15.8125 102.25 -15.8125 C 104.882812 -15.8125 108.507812 -17.128906 113.125 -19.765625 C 116.738281 -21.734375 119.535156 -22.71875 121.515625 -22.71875 C 124.148438 -22.71875 125.46875 -20.988281 125.46875 -17.53125 C 125.46875 -10.457031 123.492188 -4.613281 119.546875 0 C 117.066406 2.96875 113.5625 5.644531 109.03125 8.03125 C 104.507812 10.414062 100.769531 11.609375 97.8125 11.609375 C 93.53125 11.609375 89.410156 9.34375 85.453125 4.8125 C 81.503906 0.289062 75.414062 -9.132812 67.1875 -23.46875 L 53.59375 -46.921875 C 53.425781 -43.140625 53.21875 -37.296875 52.96875 -29.390625 C 52.726562 -21.484375 52.609375 -15.640625 52.609375 -11.859375 L 58.78125 -6.421875 C 62.894531 -2.628906 64.953125 0.00390625 64.953125 1.484375 C 64.953125 3.128906 62.8125 5.351562 58.53125 8.15625 C 54.082031 10.945312 48.15625 12.507812 40.75 12.84375 L 38.78125 12.84375 C 31.695312 12.84375 26.015625 12.265625 21.734375 11.109375 C 18.273438 10.285156 16.132812 9.503906 15.3125 8.765625 C 14.488281 8.023438 13.910156 6.585938 13.578125 4.453125 L 13.578125 2.96875 C 13.578125 0.5 15.71875 -2.957031 20 -7.40625 C 23.789062 -11.363281 26.34375 -15.191406 27.65625 -18.890625 C 28.976562 -22.597656 29.640625 -27.992188 29.640625 -35.078125 L 29.640625 -40.265625 L 29.390625 -54.34375 L 24.453125 -55.8125 C 21.328125 -56.476562 19.765625 -57.382812 19.765625 -58.53125 C 19.765625 -59.519531 21.410156 -61.003906 24.703125 -62.984375 L 30.125 -65.9375 L 29.640625 -82.25 L 29.390625 -98.296875 L 25.4375 -97.8125 L 24.453125 -97.8125 C 22.804688 -97.8125 21.40625 -98.300781 20.25 -99.28125 C 19.101562 -100.269531 18.53125 -101.507812 18.53125 -103 C 18.53125 -103.820312 18.609375 -104.476562 18.765625 -104.96875 C 19.429688 -107.101562 22.066406 -109.773438 26.671875 -112.984375 C 31.285156 -116.203125 35.648438 -118.46875 39.765625 -119.78125 Z M 39.765625 -119.78125 "/></g></g></g><g fill="#ffffff" fill-opacity="1"><g transform="translate(1097.57803, 174.596768)"><g><path d="M 66.6875 -65.203125 C 66.6875 -67.015625 65.367188 -72.035156 62.734375 -80.265625 C 60.097656 -88.503906 58.453125 -92.625 57.796875 -92.625 C 57.460938 -92.625 57.132812 -92.128906 56.8125 -91.140625 C 55.988281 -88.003906 55 -84.546875 53.84375 -80.765625 C 52.195312 -74.671875 51.375 -69.644531 51.375 -65.6875 C 51.375 -61.738281 52.03125 -59.765625 53.34375 -59.765625 C 55.976562 -59.765625 58.859375 -60.378906 61.984375 -61.609375 C 65.117188 -62.847656 66.6875 -64.046875 66.6875 -65.203125 Z M 46.6875 -117.8125 C 50.46875 -119.457031 54.828125 -120.28125 59.765625 -120.28125 C 65.367188 -120.28125 69.15625 -119.289062 71.125 -117.3125 C 73.101562 -115.34375 74.09375 -111.394531 74.09375 -105.46875 C 74.09375 -101.1875 73.515625 -98.140625 72.359375 -96.328125 C 71.867188 -95.335938 71.625 -94.265625 71.625 -93.109375 C 71.625 -91.296875 72.203125 -88.171875 73.359375 -83.734375 C 75.492188 -76.148438 77.300781 -71.25 78.78125 -69.03125 C 80.269531 -66.8125 82.742188 -65.453125 86.203125 -64.953125 C 90.148438 -64.460938 92.125 -63.722656 92.125 -62.734375 C 92.125 -61.742188 91.132812 -60.425781 89.15625 -58.78125 C 86.363281 -56.3125 84.96875 -53.84375 84.96875 -51.375 C 84.96875 -48.738281 86.941406 -41.410156 90.890625 -29.390625 C 94.515625 -19.015625 96.898438 -12.632812 98.046875 -10.25 C 99.203125 -7.863281 100.769531 -6.257812 102.75 -5.4375 C 106.039062 -4.28125 108.507812 -1.890625 110.15625 1.734375 C 111.46875 4.367188 112.125 6.097656 112.125 6.921875 C 112.125 7.742188 111.550781 9.140625 110.40625 11.109375 C 109.414062 12.921875 108.097656 14.113281 106.453125 14.6875 C 104.804688 15.269531 100.9375 15.890625 94.84375 16.546875 C 90.226562 17.035156 86.769531 17.28125 84.46875 17.28125 C 81.34375 17.28125 78.378906 16.625 75.578125 15.3125 C 71.460938 13.332031 68.910156 11.4375 67.921875 9.625 C 67.585938 8.96875 67.421875 8.226562 67.421875 7.40625 C 67.421875 3.78125 69.894531 -0.332031 74.84375 -4.9375 C 76.488281 -6.582031 77.554688 -8.144531 78.046875 -9.625 C 78.535156 -11.113281 78.78125 -13.832031 78.78125 -17.78125 C 78.78125 -22.0625 78.160156 -27.535156 76.921875 -34.203125 C 75.691406 -40.867188 74.664062 -44.613281 73.84375 -45.4375 C 73.351562 -45.9375 68.992188 -46.515625 60.765625 -47.171875 L 48.65625 -47.921875 L 46.1875 -42.234375 C 44.539062 -38.609375 43.390625 -31.773438 42.734375 -21.734375 C 42.398438 -15.804688 42.234375 -12.597656 42.234375 -12.109375 C 42.234375 -9.796875 42.476562 -8.3125 42.96875 -7.65625 C 43.46875 -7 44.457031 -6.34375 45.9375 -5.6875 C 49.394531 -3.875 51.125 -0.742188 51.125 3.703125 C 51.125 5.515625 50.878906 7.242188 50.390625 8.890625 C 49.722656 11.691406 48.113281 13.503906 45.5625 14.328125 C 43.007812 15.148438 37.785156 15.644531 29.890625 15.8125 L 28.40625 15.8125 C 22.800781 15.8125 18.925781 14.945312 16.78125 13.21875 C 14.644531 11.488281 13.578125 8.398438 13.578125 3.953125 C 13.578125 1.316406 13.78125 -0.453125 14.1875 -1.359375 C 14.601562 -2.265625 15.632812 -3.046875 17.28125 -3.703125 C 19.59375 -4.523438 22.066406 -7.40625 24.703125 -12.34375 C 26.515625 -15.800781 28.320312 -20.988281 30.125 -27.90625 C 31.9375 -34.820312 32.84375 -39.765625 32.84375 -42.734375 C 32.84375 -43.710938 32.765625 -44.285156 32.609375 -44.453125 C 31.773438 -45.609375 29.382812 -46.1875 25.4375 -46.1875 C 21.65625 -46.1875 19.765625 -46.679688 19.765625 -47.671875 C 19.765625 -48.492188 21.78125 -50.425781 25.8125 -53.46875 C 29.84375 -56.519531 32.929688 -58.375 35.078125 -59.03125 C 37.867188 -59.851562 40.335938 -67.921875 42.484375 -83.234375 C 43.140625 -87.347656 43.46875 -90.472656 43.46875 -92.609375 C 43.46875 -94.753906 42.398438 -96.566406 40.265625 -98.046875 C 37.785156 -99.691406 36.546875 -101.503906 36.546875 -103.484375 C 36.546875 -104.960938 37.289062 -107.269531 38.78125 -110.40625 C 40.425781 -113.863281 43.0625 -116.332031 46.6875 -117.8125 Z M 46.6875 -117.8125 "/></g></g></g><g fill="#ffffff" fill-opacity="1"><g transform="translate(1223.043726, 174.596768)"><g><path d="M 27.421875 -113.859375 C 30.378906 -115.015625 35.398438 -115.59375 42.484375 -115.59375 C 49.890625 -115.59375 54.5 -114.929688 56.3125 -113.609375 C 58.125 -112.128906 59.03125 -109.410156 59.03125 -105.453125 C 59.03125 -101.503906 57.628906 -98.546875 54.828125 -96.578125 C 49.398438 -93.273438 46.191406 -90.472656 45.203125 -88.171875 C 44.210938 -85.867188 43.71875 -79.859375 43.71875 -70.140625 L 43.71875 -52.359375 L 48.40625 -51.375 C 51.863281 -50.71875 53.59375 -49.644531 53.59375 -48.15625 C 53.59375 -46.675781 51.78125 -44.375 48.15625 -41.25 L 41.5 -35.8125 L 41 -17.53125 C 41 -15.71875 40.957031 -13.535156 40.875 -10.984375 C 40.789062 -8.429688 40.75 -6.828125 40.75 -6.171875 C 40.75 -5.023438 40.789062 -4.078125 40.875 -3.328125 C 40.957031 -2.585938 41.039062 -1.929688 41.125 -1.359375 C 41.207031 -0.785156 41.453125 -0.296875 41.859375 0.109375 C 42.273438 0.523438 42.601562 0.859375 42.84375 1.109375 C 43.09375 1.359375 43.671875 1.5625 44.578125 1.71875 C 45.484375 1.882812 46.179688 2.050781 46.671875 2.21875 C 47.171875 2.382812 48.160156 2.550781 49.640625 2.71875 C 51.117188 2.882812 52.351562 3.046875 53.34375 3.203125 C 54.007812 3.367188 55.164062 3.453125 56.8125 3.453125 C 62.238281 3.453125 67.421875 1.890625 72.359375 -1.234375 C 77.304688 -4.359375 80.4375 -8.226562 81.75 -12.84375 C 83.894531 -19.59375 86.695312 -22.96875 90.15625 -22.96875 C 90.8125 -22.96875 91.300781 -22.882812 91.625 -22.71875 C 93.113281 -22.0625 93.859375 -19.921875 93.859375 -16.296875 C 93.859375 -15.640625 93.691406 -12.515625 93.359375 -6.921875 C 92.867188 2.304688 92.003906 8.195312 90.765625 10.75 C 89.535156 13.300781 87.023438 14.578125 83.234375 14.578125 C 79.117188 14.578125 75.25 15.398438 71.625 17.046875 C 68.820312 18.191406 65.773438 18.765625 62.484375 18.765625 C 61.660156 18.765625 59.4375 18.601562 55.8125 18.28125 C 46.925781 17.613281 41.332031 17.28125 39.03125 17.28125 C 37.539062 17.28125 33.671875 17.445312 27.421875 17.78125 C 26.753906 17.78125 25.925781 17.820312 24.9375 17.90625 C 23.957031 17.988281 23.300781 18.03125 22.96875 18.03125 C 20.164062 18.03125 17.941406 16.957031 16.296875 14.8125 C 14.484375 12.507812 13.578125 9.382812 13.578125 5.4375 C 13.578125 1.976562 14.320312 -0.898438 15.8125 -3.203125 C 17.457031 -5.515625 20.421875 -6.671875 24.703125 -6.671875 L 31.359375 -6.671875 L 30.625 -22.96875 C 30.289062 -30.375 29.835938 -35.109375 29.265625 -37.171875 C 28.691406 -39.234375 27.5 -41.085938 25.6875 -42.734375 L 21.734375 -46.1875 C 25.679688 -49.144531 28.5625 -51.453125 30.375 -53.109375 C 30.207031 -57.054688 30.039062 -62.976562 29.875 -70.875 C 29.71875 -78.78125 29.554688 -84.710938 29.390625 -88.671875 L 24.453125 -92.375 C 21.160156 -94.84375 19.515625 -97.96875 19.515625 -101.75 C 19.515625 -105.375 20.046875 -108.007812 21.109375 -109.65625 C 22.179688 -111.300781 24.285156 -112.703125 27.421875 -113.859375 Z M 27.421875 -113.859375 "/></g></g></g></g></g></g></svg>