<svg xmlns="http://www.w3.org/2000/svg" xmlns:xlink="http://www.w3.org/1999/xlink" width="500" zoomAndPan="magnify" viewBox="0 0 375 127.500001" height="170" preserveAspectRatio="xMidYMid meet" version="1.0"><defs><g/><clipPath id="2776ea4a02"><path d="M 0.730469 21 L 374.265625 21 L 374.265625 105 L 0.730469 105 Z M 0.730469 21 " clip-rule="nonzero"/></clipPath><clipPath id="9404cca7df"><rect x="0" width="375" y="0" height="84"/></clipPath></defs><g clip-path="url(#2776ea4a02)"><g transform="matrix(1, 0, 0, 1, 0.000000000000000111, 21)"><g clip-path="url(#9404cca7df)"><g fill="#ffffff" fill-opacity="1"><g transform="translate(0.73242, 61.227001)"><g><path d="M 12.140625 2.984375 C 12.285156 2.691406 12.304688 2.507812 12.203125 2.4375 C 12.109375 2.363281 11.960938 2.328125 11.765625 2.328125 C 11.578125 2.328125 11.484375 2.351562 11.484375 2.40625 C 11.484375 2.59375 11.554688 2.796875 11.703125 3.015625 C 11.847656 3.234375 11.992188 3.222656 12.140625 2.984375 Z M 21.890625 -16.9375 C 21.890625 -17.132812 21.789062 -17.234375 21.59375 -17.234375 C 21.351562 -17.234375 21.234375 -17.132812 21.234375 -16.9375 C 21.234375 -16.695312 21.351562 -16.578125 21.59375 -16.578125 C 21.789062 -16.578125 21.890625 -16.695312 21.890625 -16.9375 Z M 27.484375 -10.828125 C 27.484375 -10.929688 27.832031 -11.367188 28.53125 -12.140625 C 29.238281 -12.910156 29.59375 -13.320312 29.59375 -13.375 C 29.59375 -13.519531 30.003906 -14.003906 30.828125 -14.828125 C 32.472656 -16.578125 33.296875 -17.984375 33.296875 -19.046875 C 33.296875 -19.390625 33.828125 -20.09375 34.890625 -21.15625 C 35.765625 -21.976562 36.320312 -22.65625 36.5625 -23.1875 C 36.8125 -23.71875 37.273438 -25.101562 37.953125 -27.34375 C 38.140625 -28.019531 38.570312 -29.21875 39.25 -30.9375 C 39.9375 -32.65625 40.328125 -34.171875 40.421875 -35.484375 L 40.5625 -37.65625 L 39.625 -38.171875 C 39.039062 -38.554688 37.390625 -38.796875 34.671875 -38.890625 C 34.046875 -38.941406 33.128906 -38.96875 31.921875 -38.96875 C 30.554688 -38.96875 29.753906 -38.941406 29.515625 -38.890625 C 29.328125 -38.847656 28.867188 -38.828125 28.140625 -38.828125 C 27.359375 -38.828125 26.773438 -38.847656 26.390625 -38.890625 C 26.046875 -38.890625 25.582031 -38.914062 25 -38.96875 C 24.425781 -39.019531 23.765625 -39.082031 23.015625 -39.15625 C 22.265625 -39.226562 21.671875 -39.285156 21.234375 -39.328125 C 18.222656 -39.523438 16.234375 -40.082031 15.265625 -41 C 14.828125 -41.394531 14.390625 -41.976562 13.953125 -42.75 C 13.515625 -43.519531 13.296875 -44.097656 13.296875 -44.484375 C 13.296875 -44.878906 13.515625 -45.4375 13.953125 -46.15625 C 14.390625 -46.882812 14.800781 -47.421875 15.1875 -47.765625 C 16.300781 -48.734375 17.925781 -49.335938 20.0625 -49.578125 C 21.175781 -49.722656 23.003906 -49.988281 25.546875 -50.375 C 28.097656 -50.769531 30.328125 -51.0625 32.234375 -51.25 C 34.148438 -51.445312 36.054688 -51.546875 37.953125 -51.546875 C 38.972656 -51.546875 39.75 -51.519531 40.28125 -51.46875 C 47.113281 -51.28125 53.414062 -50.867188 59.1875 -50.234375 C 62.132812 -49.992188 64.046875 -49.582031 64.921875 -49 C 66.523438 -48.03125 67.328125 -46.75 67.328125 -45.15625 C 67.328125 -44.863281 67.300781 -44.644531 67.25 -44.5 C 66.863281 -43.039062 65.894531 -41.535156 64.34375 -39.984375 L 63.03125 -38.671875 L 60.484375 -38.390625 C 59.222656 -38.285156 58.351562 -38.234375 57.875 -38.234375 C 57.675781 -38.234375 57.429688 -38.242188 57.140625 -38.265625 C 56.847656 -38.296875 56.609375 -38.3125 56.421875 -38.3125 C 54.140625 -38.3125 52.488281 -37.851562 51.46875 -36.9375 C 51.03125 -36.539062 50.179688 -35.128906 48.921875 -32.703125 C 47.660156 -30.285156 46.71875 -28.226562 46.09375 -26.53125 C 45.945312 -26.238281 45.753906 -25.738281 45.515625 -25.03125 C 45.273438 -24.332031 45.09375 -23.828125 44.96875 -23.515625 C 44.84375 -23.203125 44.644531 -22.816406 44.375 -22.359375 C 44.113281 -21.898438 43.835938 -21.5 43.546875 -21.15625 C 43.066406 -20.570312 42.828125 -20.1875 42.828125 -20 C 42.828125 -19.707031 42.398438 -18.503906 41.546875 -16.390625 C 40.703125 -14.285156 40.179688 -13.132812 39.984375 -12.9375 C 39.691406 -12.644531 39.398438 -11.992188 39.109375 -10.984375 C 38.722656 -9.867188 38.410156 -9.113281 38.171875 -8.71875 C 37.878906 -8.1875 37.734375 -7.800781 37.734375 -7.5625 C 37.734375 -7.320312 37.222656 -6.375 36.203125 -4.71875 C 35.179688 -3.070312 34.332031 -1.789062 33.65625 -0.875 C 32.5 0.625 31.53125 1.789062 30.75 2.625 C 30.070312 3.394531 29.03125 4.300781 27.625 5.34375 C 26.21875 6.382812 25.101562 7.097656 24.28125 7.484375 C 23.695312 7.734375 22.65625 7.859375 21.15625 7.859375 C 19.550781 7.859375 18.070312 7.734375 16.71875 7.484375 C 16.238281 7.390625 15.367188 7.242188 14.109375 7.046875 C 12.597656 6.859375 10.882812 5.863281 8.96875 4.0625 C 7.0625 2.269531 5.625 0.332031 4.65625 -1.75 C 4.269531 -2.613281 4.078125 -3.992188 4.078125 -5.890625 C 4.078125 -6.472656 4.125 -7.054688 4.21875 -7.640625 C 4.84375 -10.734375 5.328125 -12.550781 5.671875 -13.09375 C 6.109375 -13.8125 6.421875 -14.609375 6.609375 -15.484375 C 6.859375 -16.546875 7.488281 -17.632812 8.5 -18.75 C 10.726562 -21.375 12.425781 -22.925781 13.59375 -23.40625 C 13.832031 -23.550781 14.289062 -23.84375 14.96875 -24.28125 C 15.65625 -24.71875 16.238281 -25.035156 16.71875 -25.234375 C 17.25 -25.472656 17.585938 -25.664062 17.734375 -25.8125 C 18.078125 -26.289062 19.4375 -26.800781 21.8125 -27.34375 C 23.019531 -27.582031 24.0625 -27.703125 24.9375 -27.703125 C 26.101562 -27.703125 27.070312 -27.53125 27.84375 -27.1875 C 29.59375 -26.3125 30.46875 -25.03125 30.46875 -23.34375 C 30.46875 -23.050781 30.441406 -22.832031 30.390625 -22.6875 C 30.296875 -22.15625 29.921875 -21.546875 29.265625 -20.859375 C 28.609375 -20.179688 27.96875 -19.75 27.34375 -19.5625 C 26.800781 -19.414062 26.410156 -19.28125 26.171875 -19.15625 C 25.929688 -19.03125 25.59375 -18.796875 25.15625 -18.453125 C 24.71875 -18.117188 24.304688 -17.832031 23.921875 -17.59375 C 22.515625 -16.675781 21.617188 -16 21.234375 -15.5625 C 20.742188 -14.976562 20.378906 -14.6875 20.140625 -14.6875 C 19.941406 -14.6875 19.367188 -14.285156 18.421875 -13.484375 C 17.484375 -12.679688 17.015625 -12.207031 17.015625 -12.0625 C 17.015625 -11.875 16.894531 -11.535156 16.65625 -11.046875 C 16.21875 -9.984375 15.925781 -9.132812 15.78125 -8.5 L 15.78125 -8 C 15.78125 -5.957031 16 -4.722656 16.4375 -4.296875 C 16.675781 -4.046875 17.351562 -3.921875 18.46875 -3.921875 L 19.265625 -3.921875 C 19.941406 -3.921875 20.597656 -4.113281 21.234375 -4.5 C 21.765625 -4.84375 22.9375 -5.921875 24.75 -7.734375 C 26.570312 -9.554688 27.484375 -10.585938 27.484375 -10.828125 Z M 27.484375 -10.828125 "/></g></g></g><g fill="#ffffff" fill-opacity="1"><g transform="translate(72.275729, 61.227001)"><g><path d="M 36.28125 -24.578125 C 36.28125 -24.910156 36.15625 -25.078125 35.90625 -25.078125 C 35.664062 -25.078125 35.546875 -24.910156 35.546875 -24.578125 C 35.546875 -24.285156 35.664062 -24.140625 35.90625 -24.140625 C 36.15625 -24.140625 36.28125 -24.285156 36.28125 -24.578125 Z M 26.96875 -36.140625 C 26.96875 -36.179688 26.800781 -36.203125 26.46875 -36.203125 C 26.070312 -36.203125 26 -36.128906 26.25 -35.984375 C 26.632812 -35.835938 26.875 -35.890625 26.96875 -36.140625 Z M 18.609375 -17.015625 C 18.609375 -16.816406 18.453125 -16.351562 18.140625 -15.625 C 17.828125 -14.90625 17.671875 -14.445312 17.671875 -14.25 C 17.671875 -13.8125 17.523438 -13.445312 17.234375 -13.15625 C 16.890625 -12.820312 16.71875 -12.554688 16.71875 -12.359375 C 16.71875 -12.160156 16.625 -11.988281 16.4375 -11.84375 C 16.1875 -11.695312 16.015625 -11.335938 15.921875 -10.765625 C 15.867188 -10.472656 15.648438 -9.984375 15.265625 -9.296875 C 14.878906 -8.617188 14.6875 -8.109375 14.6875 -7.765625 C 14.6875 -7.429688 14.515625 -7.128906 14.171875 -6.859375 C 13.835938 -6.597656 13.425781 -6.46875 12.9375 -6.46875 C 12.019531 -6.46875 11.34375 -6.101562 10.90625 -5.375 C 10.5625 -4.894531 10.03125 -4.945312 9.3125 -5.53125 C 8.96875 -5.769531 8.578125 -5.925781 8.140625 -6 C 7.703125 -6.070312 7.4375 -6.007812 7.34375 -5.8125 C 7.289062 -5.664062 6.90625 -5.59375 6.1875 -5.59375 C 5.351562 -5.59375 4.84375 -5.691406 4.65625 -5.890625 C 4.3125 -6.128906 4.140625 -6.367188 4.140625 -6.609375 C 4.140625 -7.722656 4.75 -9.492188 5.96875 -11.921875 C 6.207031 -12.304688 6.328125 -12.625 6.328125 -12.875 C 6.328125 -13.019531 6.457031 -13.296875 6.71875 -13.703125 C 6.988281 -14.117188 7.125 -14.472656 7.125 -14.765625 C 7.125 -15.097656 7.304688 -15.703125 7.671875 -16.578125 C 8.035156 -17.453125 8.238281 -17.984375 8.28125 -18.171875 C 8.382812 -18.804688 8.703125 -19.703125 9.234375 -20.859375 C 9.816406 -22.117188 10.347656 -23.476562 10.828125 -24.9375 C 11.898438 -28.1875 12.675781 -30.175781 13.15625 -30.90625 C 13.539062 -31.582031 13.734375 -31.96875 13.734375 -32.0625 C 13.734375 -32.300781 14.023438 -33.148438 14.609375 -34.609375 C 15.972656 -37.660156 16.722656 -39.671875 16.859375 -40.640625 C 16.960938 -41.222656 17.132812 -41.828125 17.375 -42.453125 C 17.613281 -43.085938 17.785156 -43.625 17.890625 -44.0625 C 18.078125 -44.882812 18.242188 -45.34375 18.390625 -45.4375 C 18.535156 -45.488281 18.609375 -45.707031 18.609375 -46.09375 C 18.609375 -46.476562 18.679688 -46.695312 18.828125 -46.75 C 18.972656 -46.800781 19.046875 -47.238281 19.046875 -48.0625 C 19.046875 -48.59375 19.007812 -48.914062 18.9375 -49.03125 C 18.863281 -49.15625 18.679688 -49.265625 18.390625 -49.359375 C 18.003906 -49.410156 17.664062 -49.753906 17.375 -50.390625 L 16.9375 -51.328125 L 17.59375 -52.203125 C 18.03125 -52.828125 18.34375 -53.140625 18.53125 -53.140625 C 18.726562 -53.140625 19.070312 -53.265625 19.5625 -53.515625 C 19.945312 -53.703125 20.503906 -53.847656 21.234375 -53.953125 C 21.765625 -53.992188 22.34375 -54.332031 22.96875 -54.96875 C 23.988281 -55.976562 24.910156 -56.484375 25.734375 -56.484375 C 25.828125 -56.484375 25.898438 -56.460938 25.953125 -56.421875 C 26.148438 -56.316406 26.296875 -56.3125 26.390625 -56.40625 C 26.484375 -56.507812 26.601562 -56.65625 26.75 -56.84375 C 26.894531 -57.039062 27.019531 -57.140625 27.125 -57.140625 C 27.269531 -57.140625 27.484375 -57.332031 27.765625 -57.71875 C 27.960938 -58.0625 28.234375 -58.234375 28.578125 -58.234375 C 29.203125 -58.234375 29.632812 -57.578125 29.875 -56.265625 C 29.925781 -56.078125 30 -55.703125 30.09375 -55.140625 C 30.195312 -54.585938 30.285156 -54.066406 30.359375 -53.578125 C 30.429688 -53.097656 30.46875 -52.664062 30.46875 -52.28125 C 30.46875 -51.644531 30.34375 -51.132812 30.09375 -50.75 C 29.851562 -50.40625 29.734375 -49.96875 29.734375 -49.4375 C 29.734375 -48.320312 29.320312 -46.796875 28.5 -44.859375 C 28.207031 -44.273438 27.914062 -43.335938 27.625 -42.046875 C 27.332031 -40.765625 27.066406 -39.859375 26.828125 -39.328125 C 26.441406 -38.460938 26.25 -37.90625 26.25 -37.65625 C 26.25 -37.46875 26.320312 -37.320312 26.46875 -37.21875 C 27 -36.882812 28.207031 -36.664062 30.09375 -36.5625 C 31.9375 -36.414062 33.175781 -36.054688 33.8125 -35.484375 C 35.894531 -33.691406 36.9375 -32.476562 36.9375 -31.84375 C 36.9375 -31.351562 37.054688 -31.039062 37.296875 -30.90625 C 37.828125 -30.46875 38.09375 -29.492188 38.09375 -27.984375 C 38.09375 -27.210938 38.164062 -26.171875 38.3125 -24.859375 C 38.40625 -23.597656 38.453125 -22.921875 38.453125 -22.828125 C 38.453125 -22.296875 38.378906 -21.8125 38.234375 -21.375 C 37.410156 -18.90625 37 -16.914062 37 -15.40625 C 37 -15.070312 37.171875 -14.90625 37.515625 -14.90625 C 37.992188 -14.90625 38.890625 -15.289062 40.203125 -16.0625 C 40.398438 -16.164062 40.519531 -16.21875 40.5625 -16.21875 C 40.757812 -16.21875 41.367188 -15.925781 42.390625 -15.34375 C 43.890625 -14.414062 44.640625 -13.347656 44.640625 -12.140625 C 44.640625 -10.929688 44.128906 -9.988281 43.109375 -9.3125 C 41.703125 -8.34375 39.957031 -7.859375 37.875 -7.859375 C 36.46875 -7.859375 35.109375 -7.675781 33.796875 -7.3125 C 32.492188 -6.945312 31.210938 -6.765625 29.953125 -6.765625 L 28.859375 -6.765625 C 27.796875 -6.765625 27.117188 -6.910156 26.828125 -7.203125 C 26.585938 -7.492188 26.269531 -7.640625 25.875 -7.640625 C 24.8125 -7.640625 24.207031 -8.050781 24.0625 -8.875 C 24.007812 -9.164062 23.957031 -9.503906 23.90625 -9.890625 C 23.863281 -10.273438 23.832031 -10.578125 23.8125 -10.796875 C 23.789062 -11.015625 23.78125 -11.195312 23.78125 -11.34375 C 23.78125 -11.675781 23.898438 -12.015625 24.140625 -12.359375 C 24.429688 -12.742188 24.648438 -13.445312 24.796875 -14.46875 C 24.835938 -15.488281 25.101562 -16.457031 25.59375 -17.375 C 26.363281 -18.925781 26.75 -20.742188 26.75 -22.828125 C 26.75 -24.578125 26.191406 -25.570312 25.078125 -25.8125 L 24.796875 -25.8125 C 23.578125 -25.8125 22.800781 -25.445312 22.46875 -24.71875 C 20.863281 -22.195312 19.84375 -20.207031 19.40625 -18.75 C 19.113281 -17.976562 18.921875 -17.566406 18.828125 -17.515625 C 18.679688 -17.472656 18.609375 -17.304688 18.609375 -17.015625 Z M 18.609375 -17.015625 "/></g></g></g><g fill="#ffffff" fill-opacity="1"><g transform="translate(120.843744, 61.227001)"><g><path d="M 12.65625 -11.625 C 12.65625 -11.820312 12.582031 -11.957031 12.4375 -12.03125 C 12.289062 -12.101562 12.164062 -12.09375 12.0625 -12 C 11.914062 -11.851562 11.867188 -11.691406 11.921875 -11.515625 C 11.972656 -11.347656 12.09375 -11.265625 12.28125 -11.265625 C 12.53125 -11.265625 12.65625 -11.382812 12.65625 -11.625 Z M 20.9375 -25.734375 C 21.03125 -26.023438 21.078125 -26.21875 21.078125 -26.3125 C 21.078125 -27.039062 20.59375 -27.695312 19.625 -28.28125 C 18.65625 -28.863281 17.640625 -29.15625 16.578125 -29.15625 L 15.1875 -29.15625 L 13.734375 -27.625 C 12.816406 -26.65625 12.40625 -26.070312 12.5 -25.875 C 12.695312 -25.632812 14.320312 -25.441406 17.375 -25.296875 L 20.71875 -25.15625 Z M 7.484375 -32.0625 C 8.359375 -33.519531 9.882812 -34.898438 12.0625 -36.203125 C 14.25 -37.515625 16.359375 -38.171875 18.390625 -38.171875 L 18.46875 -38.171875 C 18.707031 -38.171875 19.375 -37.972656 20.46875 -37.578125 C 21.5625 -37.191406 22.226562 -36.925781 22.46875 -36.78125 C 22.707031 -36.539062 23 -36.421875 23.34375 -36.421875 C 23.582031 -36.421875 23.992188 -36.117188 24.578125 -35.515625 C 25.160156 -34.910156 25.453125 -34.460938 25.453125 -34.171875 C 25.453125 -33.929688 25.570312 -33.738281 25.8125 -33.59375 C 26.726562 -32.8125 27.285156 -31.160156 27.484375 -28.640625 C 27.578125 -27.378906 27.695312 -26.703125 27.84375 -26.609375 C 27.988281 -26.515625 28.0625 -26.222656 28.0625 -25.734375 C 28.0625 -25.253906 27.988281 -24.960938 27.84375 -24.859375 C 27.695312 -24.765625 27.625 -24.59375 27.625 -24.34375 C 27.625 -24.101562 27.503906 -23.863281 27.265625 -23.625 C 27.066406 -23.476562 26.96875 -23.113281 26.96875 -22.53125 C 26.96875 -21.46875 26.601562 -20.597656 25.875 -19.921875 C 25.15625 -19.242188 23.96875 -18.6875 22.3125 -18.25 C 21.976562 -18.15625 21.640625 -18.109375 21.296875 -18.109375 C 21.148438 -18.109375 20.957031 -18.144531 20.71875 -18.21875 C 20.476562 -18.289062 20.238281 -18.328125 20 -18.328125 C 19.65625 -18.328125 19.363281 -18.300781 19.125 -18.25 C 18.539062 -18.15625 17.8125 -18.109375 16.9375 -18.109375 C 16.882812 -18.109375 16.457031 -18.128906 15.65625 -18.171875 C 14.863281 -18.222656 14.175781 -18.25 13.59375 -18.25 L 12.21875 -18.25 C 11.4375 -18.25 11.046875 -18.195312 11.046875 -18.09375 C 11.046875 -18 11.070312 -17.929688 11.125 -17.890625 C 11.269531 -17.640625 11.609375 -17.421875 12.140625 -17.234375 C 12.628906 -17.035156 12.875 -16.890625 12.875 -16.796875 C 12.875 -16.597656 13.742188 -16.1875 15.484375 -15.5625 C 16.359375 -15.21875 18.054688 -15.046875 20.578125 -15.046875 C 23.046875 -15.046875 24.546875 -14.972656 25.078125 -14.828125 C 25.515625 -14.679688 26.023438 -14.5625 26.609375 -14.46875 C 28.109375 -14.125 28.859375 -13.15625 28.859375 -11.5625 C 28.859375 -10.207031 28.351562 -9.140625 27.34375 -8.359375 C 26.851562 -7.972656 25.710938 -7.734375 23.921875 -7.640625 C 21.878906 -7.535156 20.445312 -7.484375 19.625 -7.484375 C 15.507812 -7.484375 12.722656 -7.875 11.265625 -8.65625 C 8.410156 -10.25 6.445312 -12.332031 5.375 -14.90625 C 4.550781 -16.894531 4.140625 -18.640625 4.140625 -20.140625 L 4.140625 -21.015625 C 4.285156 -22.609375 4.707031 -24.59375 5.40625 -26.96875 C 6.113281 -29.34375 6.804688 -31.039062 7.484375 -32.0625 Z M 7.484375 -32.0625 "/></g></g></g><g fill="#ffffff" fill-opacity="1"><g transform="translate(153.707127, 61.227001)"><g/></g></g><g fill="#ffffff" fill-opacity="1"><g transform="translate(179.154438, 61.227001)"><g><path d="M 16.640625 -3.921875 C 16.890625 -3.921875 17.015625 -4.039062 17.015625 -4.28125 C 17.015625 -4.53125 16.890625 -4.65625 16.640625 -4.65625 C 16.398438 -4.65625 16.28125 -4.53125 16.28125 -4.28125 C 16.28125 -4.039062 16.398438 -3.921875 16.640625 -3.921875 Z M 35.765625 -44.0625 C 36.015625 -43.8125 36.222656 -43.867188 36.390625 -44.234375 C 36.554688 -44.597656 36.445312 -44.78125 36.0625 -44.78125 C 35.863281 -44.78125 35.726562 -44.695312 35.65625 -44.53125 C 35.582031 -44.363281 35.617188 -44.207031 35.765625 -44.0625 Z M 28.0625 -51.03125 C 29.519531 -51.757812 30.625 -52.207031 31.375 -52.375 C 32.125 -52.550781 33.515625 -52.640625 35.546875 -52.640625 C 36.617188 -52.640625 37.421875 -52.601562 37.953125 -52.53125 C 38.484375 -52.457031 39.039062 -52.296875 39.625 -52.046875 C 40.207031 -51.804688 40.691406 -51.640625 41.078125 -51.546875 C 43.066406 -51.109375 44.425781 -50.523438 45.15625 -49.796875 C 47.039062 -47.816406 48.296875 -46.398438 48.921875 -45.546875 C 49.554688 -44.703125 50.164062 -43.578125 50.75 -42.171875 C 51.863281 -39.410156 52.421875 -37.203125 52.421875 -35.546875 C 52.421875 -35.453125 52.40625 -35.296875 52.375 -35.078125 C 52.351562 -34.859375 52.34375 -34.703125 52.34375 -34.609375 C 52.25 -33.492188 51.71875 -32.207031 50.75 -30.75 C 50.164062 -29.875 49.570312 -29.289062 48.96875 -29 C 48.363281 -28.71875 47.40625 -28.578125 46.09375 -28.578125 C 44.832031 -28.578125 43.898438 -28.671875 43.296875 -28.859375 C 42.691406 -29.054688 42.144531 -29.46875 41.65625 -30.09375 C 40.394531 -31.644531 39.671875 -33.5625 39.484375 -35.84375 C 39.285156 -38.3125 38.992188 -39.882812 38.609375 -40.5625 C 38.460938 -40.851562 38.0625 -41.164062 37.40625 -41.5 C 36.75 -41.84375 36.226562 -42.015625 35.84375 -42.015625 C 35.5 -42.015625 35.300781 -42.085938 35.25 -42.234375 C 35.207031 -42.378906 34.921875 -42.453125 34.390625 -42.453125 C 33.515625 -42.453125 32.785156 -42.304688 32.203125 -42.015625 C 31.234375 -41.535156 30.363281 -40.566406 29.59375 -39.109375 C 29.007812 -37.953125 28.71875 -37.101562 28.71875 -36.5625 C 28.71875 -36.03125 29.054688 -35.015625 29.734375 -33.515625 C 29.828125 -33.316406 30.191406 -32.539062 30.828125 -31.1875 C 31.210938 -30.21875 31.914062 -29.296875 32.9375 -28.421875 C 33.957031 -27.503906 34.804688 -26.535156 35.484375 -25.515625 C 36.203125 -24.398438 36.6875 -23.769531 36.9375 -23.625 C 37.707031 -23.039062 38.53125 -21.625 39.40625 -19.375 C 40.28125 -17.125 40.765625 -15.148438 40.859375 -13.453125 C 40.859375 -13.253906 40.878906 -12.765625 40.921875 -11.984375 C 40.972656 -11.210938 41.023438 -10.679688 41.078125 -10.390625 L 41.078125 -9.75 C 41.078125 -7.507812 40.375 -4.71875 38.96875 -1.375 C 38.675781 -0.695312 37.78125 0.390625 36.28125 1.890625 C 34 4.066406 32.328125 5.472656 31.265625 6.109375 C 30.390625 6.585938 29.925781 6.878906 29.875 6.984375 C 29.832031 7.128906 29.664062 7.203125 29.375 7.203125 C 29.132812 7.203125 28.476562 7.46875 27.40625 8 C 26 8.675781 24.789062 9.015625 23.78125 9.015625 C 23.582031 9.015625 22.753906 8.96875 21.296875 8.875 C 18.535156 8.675781 16.414062 8.320312 14.9375 7.8125 C 13.457031 7.300781 11.941406 6.441406 10.390625 5.234375 C 9.378906 4.410156 8.800781 3.804688 8.65625 3.421875 C 8.457031 2.984375 8.046875 2.570312 7.421875 2.1875 C 6.835938 1.84375 6.546875 1.570312 6.546875 1.375 C 6.546875 1.226562 6.28125 0.722656 5.75 -0.140625 C 5.257812 -0.960938 4.960938 -1.859375 4.859375 -2.828125 C 4.765625 -3.804688 4.597656 -4.488281 4.359375 -4.875 C 4.171875 -5.207031 4.078125 -5.859375 4.078125 -6.828125 C 4.078125 -6.972656 4.085938 -7.300781 4.109375 -7.8125 C 4.128906 -8.320312 4.140625 -8.75 4.140625 -9.09375 C 4.285156 -12.4375 4.476562 -14.253906 4.71875 -14.546875 L 6.328125 -17.59375 C 8.796875 -22.582031 11 -25.515625 12.9375 -26.390625 C 13.570312 -26.628906 14.300781 -26.75 15.125 -26.75 C 15.945312 -26.75 16.671875 -26.628906 17.296875 -26.390625 C 17.734375 -26.191406 18.0625 -25.945312 18.28125 -25.65625 C 18.5 -25.375 18.851562 -24.722656 19.34375 -23.703125 C 19.632812 -23.066406 19.78125 -22.265625 19.78125 -21.296875 C 19.78125 -20.328125 19.753906 -19.476562 19.703125 -18.75 C 19.609375 -16.625 19.460938 -14.46875 19.265625 -12.28125 C 19.117188 -11.125 19.046875 -10.253906 19.046875 -9.671875 C 19.046875 -9.140625 19.117188 -8.507812 19.265625 -7.78125 C 19.941406 -3.707031 21.375 -1.671875 23.5625 -1.671875 C 24.382812 -1.671875 25.398438 -1.9375 26.609375 -2.46875 C 27.335938 -2.8125 27.796875 -3.101562 27.984375 -3.34375 C 28.179688 -3.582031 28.570312 -4.238281 29.15625 -5.3125 C 30.070312 -7.050781 30.53125 -8.578125 30.53125 -9.890625 C 30.53125 -10.660156 30.363281 -11.363281 30.03125 -12 C 29.738281 -12.476562 29.539062 -13.128906 29.4375 -13.953125 C 29.394531 -14.640625 28.984375 -15.515625 28.203125 -16.578125 C 27.484375 -17.546875 27 -18.269531 26.75 -18.75 C 26.707031 -18.851562 26.296875 -19.484375 25.515625 -20.640625 C 24.546875 -22.097656 23.503906 -23.894531 22.390625 -26.03125 C 21.273438 -28.164062 20.570312 -29.789062 20.28125 -30.90625 C 20.09375 -31.726562 20 -33.007812 20 -34.75 C 20 -36.644531 20.117188 -37.832031 20.359375 -38.3125 C 20.597656 -38.800781 20.765625 -39.40625 20.859375 -40.125 C 20.960938 -40.8125 21.472656 -42.125 22.390625 -44.0625 C 23.316406 -46 24.09375 -47.378906 24.71875 -48.203125 C 25.59375 -49.410156 26.707031 -50.351562 28.0625 -51.03125 Z M 28.0625 -51.03125 "/></g></g></g><g fill="#ffffff" fill-opacity="1"><g transform="translate(235.574758, 61.227001)"><g><path d="M 36.28125 -24.578125 C 36.28125 -24.910156 36.15625 -25.078125 35.90625 -25.078125 C 35.664062 -25.078125 35.546875 -24.910156 35.546875 -24.578125 C 35.546875 -24.285156 35.664062 -24.140625 35.90625 -24.140625 C 36.15625 -24.140625 36.28125 -24.285156 36.28125 -24.578125 Z M 26.96875 -36.140625 C 26.96875 -36.179688 26.800781 -36.203125 26.46875 -36.203125 C 26.070312 -36.203125 26 -36.128906 26.25 -35.984375 C 26.632812 -35.835938 26.875 -35.890625 26.96875 -36.140625 Z M 18.609375 -17.015625 C 18.609375 -16.816406 18.453125 -16.351562 18.140625 -15.625 C 17.828125 -14.90625 17.671875 -14.445312 17.671875 -14.25 C 17.671875 -13.8125 17.523438 -13.445312 17.234375 -13.15625 C 16.890625 -12.820312 16.71875 -12.554688 16.71875 -12.359375 C 16.71875 -12.160156 16.625 -11.988281 16.4375 -11.84375 C 16.1875 -11.695312 16.015625 -11.335938 15.921875 -10.765625 C 15.867188 -10.472656 15.648438 -9.984375 15.265625 -9.296875 C 14.878906 -8.617188 14.6875 -8.109375 14.6875 -7.765625 C 14.6875 -7.429688 14.515625 -7.128906 14.171875 -6.859375 C 13.835938 -6.597656 13.425781 -6.46875 12.9375 -6.46875 C 12.019531 -6.46875 11.34375 -6.101562 10.90625 -5.375 C 10.5625 -4.894531 10.03125 -4.945312 9.3125 -5.53125 C 8.96875 -5.769531 8.578125 -5.925781 8.140625 -6 C 7.703125 -6.070312 7.4375 -6.007812 7.34375 -5.8125 C 7.289062 -5.664062 6.90625 -5.59375 6.1875 -5.59375 C 5.351562 -5.59375 4.84375 -5.691406 4.65625 -5.890625 C 4.3125 -6.128906 4.140625 -6.367188 4.140625 -6.609375 C 4.140625 -7.722656 4.75 -9.492188 5.96875 -11.921875 C 6.207031 -12.304688 6.328125 -12.625 6.328125 -12.875 C 6.328125 -13.019531 6.457031 -13.296875 6.71875 -13.703125 C 6.988281 -14.117188 7.125 -14.472656 7.125 -14.765625 C 7.125 -15.097656 7.304688 -15.703125 7.671875 -16.578125 C 8.035156 -17.453125 8.238281 -17.984375 8.28125 -18.171875 C 8.382812 -18.804688 8.703125 -19.703125 9.234375 -20.859375 C 9.816406 -22.117188 10.347656 -23.476562 10.828125 -24.9375 C 11.898438 -28.1875 12.675781 -30.175781 13.15625 -30.90625 C 13.539062 -31.582031 13.734375 -31.96875 13.734375 -32.0625 C 13.734375 -32.300781 14.023438 -33.148438 14.609375 -34.609375 C 15.972656 -37.660156 16.722656 -39.671875 16.859375 -40.640625 C 16.960938 -41.222656 17.132812 -41.828125 17.375 -42.453125 C 17.613281 -43.085938 17.785156 -43.625 17.890625 -44.0625 C 18.078125 -44.882812 18.242188 -45.34375 18.390625 -45.4375 C 18.535156 -45.488281 18.609375 -45.707031 18.609375 -46.09375 C 18.609375 -46.476562 18.679688 -46.695312 18.828125 -46.75 C 18.972656 -46.800781 19.046875 -47.238281 19.046875 -48.0625 C 19.046875 -48.59375 19.007812 -48.914062 18.9375 -49.03125 C 18.863281 -49.15625 18.679688 -49.265625 18.390625 -49.359375 C 18.003906 -49.410156 17.664062 -49.753906 17.375 -50.390625 L 16.9375 -51.328125 L 17.59375 -52.203125 C 18.03125 -52.828125 18.34375 -53.140625 18.53125 -53.140625 C 18.726562 -53.140625 19.070312 -53.265625 19.5625 -53.515625 C 19.945312 -53.703125 20.503906 -53.847656 21.234375 -53.953125 C 21.765625 -53.992188 22.34375 -54.332031 22.96875 -54.96875 C 23.988281 -55.976562 24.910156 -56.484375 25.734375 -56.484375 C 25.828125 -56.484375 25.898438 -56.460938 25.953125 -56.421875 C 26.148438 -56.316406 26.296875 -56.3125 26.390625 -56.40625 C 26.484375 -56.507812 26.601562 -56.65625 26.75 -56.84375 C 26.894531 -57.039062 27.019531 -57.140625 27.125 -57.140625 C 27.269531 -57.140625 27.484375 -57.332031 27.765625 -57.71875 C 27.960938 -58.0625 28.234375 -58.234375 28.578125 -58.234375 C 29.203125 -58.234375 29.632812 -57.578125 29.875 -56.265625 C 29.925781 -56.078125 30 -55.703125 30.09375 -55.140625 C 30.195312 -54.585938 30.285156 -54.066406 30.359375 -53.578125 C 30.429688 -53.097656 30.46875 -52.664062 30.46875 -52.28125 C 30.46875 -51.644531 30.34375 -51.132812 30.09375 -50.75 C 29.851562 -50.40625 29.734375 -49.96875 29.734375 -49.4375 C 29.734375 -48.320312 29.320312 -46.796875 28.5 -44.859375 C 28.207031 -44.273438 27.914062 -43.335938 27.625 -42.046875 C 27.332031 -40.765625 27.066406 -39.859375 26.828125 -39.328125 C 26.441406 -38.460938 26.25 -37.90625 26.25 -37.65625 C 26.25 -37.46875 26.320312 -37.320312 26.46875 -37.21875 C 27 -36.882812 28.207031 -36.664062 30.09375 -36.5625 C 31.9375 -36.414062 33.175781 -36.054688 33.8125 -35.484375 C 35.894531 -33.691406 36.9375 -32.476562 36.9375 -31.84375 C 36.9375 -31.351562 37.054688 -31.039062 37.296875 -30.90625 C 37.828125 -30.46875 38.09375 -29.492188 38.09375 -27.984375 C 38.09375 -27.210938 38.164062 -26.171875 38.3125 -24.859375 C 38.40625 -23.597656 38.453125 -22.921875 38.453125 -22.828125 C 38.453125 -22.296875 38.378906 -21.8125 38.234375 -21.375 C 37.410156 -18.90625 37 -16.914062 37 -15.40625 C 37 -15.070312 37.171875 -14.90625 37.515625 -14.90625 C 37.992188 -14.90625 38.890625 -15.289062 40.203125 -16.0625 C 40.398438 -16.164062 40.519531 -16.21875 40.5625 -16.21875 C 40.757812 -16.21875 41.367188 -15.925781 42.390625 -15.34375 C 43.890625 -14.414062 44.640625 -13.347656 44.640625 -12.140625 C 44.640625 -10.929688 44.128906 -9.988281 43.109375 -9.3125 C 41.703125 -8.34375 39.957031 -7.859375 37.875 -7.859375 C 36.46875 -7.859375 35.109375 -7.675781 33.796875 -7.3125 C 32.492188 -6.945312 31.210938 -6.765625 29.953125 -6.765625 L 28.859375 -6.765625 C 27.796875 -6.765625 27.117188 -6.910156 26.828125 -7.203125 C 26.585938 -7.492188 26.269531 -7.640625 25.875 -7.640625 C 24.8125 -7.640625 24.207031 -8.050781 24.0625 -8.875 C 24.007812 -9.164062 23.957031 -9.503906 23.90625 -9.890625 C 23.863281 -10.273438 23.832031 -10.578125 23.8125 -10.796875 C 23.789062 -11.015625 23.78125 -11.195312 23.78125 -11.34375 C 23.78125 -11.675781 23.898438 -12.015625 24.140625 -12.359375 C 24.429688 -12.742188 24.648438 -13.445312 24.796875 -14.46875 C 24.835938 -15.488281 25.101562 -16.457031 25.59375 -17.375 C 26.363281 -18.925781 26.75 -20.742188 26.75 -22.828125 C 26.75 -24.578125 26.191406 -25.570312 25.078125 -25.8125 L 24.796875 -25.8125 C 23.578125 -25.8125 22.800781 -25.445312 22.46875 -24.71875 C 20.863281 -22.195312 19.84375 -20.207031 19.40625 -18.75 C 19.113281 -17.976562 18.921875 -17.566406 18.828125 -17.515625 C 18.679688 -17.472656 18.609375 -17.304688 18.609375 -17.015625 Z M 18.609375 -17.015625 "/></g></g></g><g fill="#ffffff" fill-opacity="1"><g transform="translate(284.142785, 61.227001)"><g><path d="M 22.3125 -28.859375 C 21.59375 -29.003906 21.179688 -29.066406 21.078125 -29.046875 C 20.984375 -29.023438 20.816406 -28.890625 20.578125 -28.640625 C 20.234375 -28.304688 19.820312 -28.015625 19.34375 -27.765625 C 18.175781 -27.140625 17.109375 -25.929688 16.140625 -24.140625 C 15.703125 -23.316406 15.484375 -22.566406 15.484375 -21.890625 C 15.484375 -21.785156 15.492188 -21.5625 15.515625 -21.21875 C 15.546875 -20.882812 15.5625 -20.617188 15.5625 -20.421875 C 15.5625 -20.179688 15.523438 -19.914062 15.453125 -19.625 C 15.378906 -19.332031 15.34375 -19.164062 15.34375 -19.125 C 15.34375 -18.875 15.632812 -18.703125 16.21875 -18.609375 C 16.695312 -18.515625 17.109375 -18.296875 17.453125 -17.953125 C 17.785156 -17.660156 18.4375 -17.515625 19.40625 -17.515625 C 20.28125 -17.515625 21.054688 -17.660156 21.734375 -17.953125 C 22.222656 -18.203125 22.695312 -18.578125 23.15625 -19.078125 C 23.613281 -19.585938 23.890625 -20.085938 23.984375 -20.578125 C 24.035156 -20.867188 24.234375 -21.398438 24.578125 -22.171875 C 24.765625 -22.554688 24.859375 -23.113281 24.859375 -23.84375 C 24.859375 -24.957031 24.566406 -26.171875 23.984375 -27.484375 C 23.742188 -28.015625 23.539062 -28.351562 23.375 -28.5 C 23.207031 -28.644531 22.851562 -28.765625 22.3125 -28.859375 Z M 31.765625 -34.828125 C 32.398438 -34.191406 32.71875 -33.800781 32.71875 -33.65625 C 32.71875 -33.507812 33.007812 -33.207031 33.59375 -32.75 C 34.175781 -32.289062 34.46875 -32.015625 34.46875 -31.921875 C 34.46875 -31.773438 34.660156 -31.3125 35.046875 -30.53125 C 35.335938 -29.90625 35.601562 -28.726562 35.84375 -27 C 36.082031 -25.28125 36.203125 -23.816406 36.203125 -22.609375 C 36.203125 -21.785156 36.15625 -21.300781 36.0625 -21.15625 C 35.863281 -20.769531 35.765625 -20.332031 35.765625 -19.84375 C 35.765625 -18.488281 35.332031 -16.890625 34.46875 -15.046875 C 33.632812 -13.347656 32.375 -12.085938 30.6875 -11.265625 C 29.8125 -10.878906 29.203125 -10.515625 28.859375 -10.171875 C 28.617188 -9.929688 28.269531 -9.738281 27.8125 -9.59375 C 27.351562 -9.445312 26.742188 -9.300781 25.984375 -9.15625 C 25.234375 -9.007812 24.738281 -8.914062 24.5 -8.875 C 23.4375 -8.582031 22.78125 -8.4375 22.53125 -8.4375 C 21.613281 -8.238281 20.378906 -8.140625 18.828125 -8.140625 C 17.859375 -8.140625 17.109375 -8.164062 16.578125 -8.21875 C 15.796875 -8.3125 14.738281 -8.503906 13.40625 -8.796875 C 12.082031 -9.085938 11.273438 -9.328125 10.984375 -9.515625 C 10.691406 -9.710938 10.328125 -9.859375 9.890625 -9.953125 C 9.398438 -10.097656 8.578125 -10.800781 7.421875 -12.0625 C 6.203125 -13.375 5.546875 -14.347656 5.453125 -14.984375 C 5.359375 -15.660156 5.09375 -16.484375 4.65625 -17.453125 C 4.269531 -18.367188 4.078125 -19.164062 4.078125 -19.84375 C 4.078125 -20.375 4.097656 -20.859375 4.140625 -21.296875 C 4.285156 -24.253906 4.675781 -26.195312 5.3125 -27.125 C 5.601562 -27.457031 5.84375 -27.988281 6.03125 -28.71875 C 6.132812 -29.007812 6.304688 -29.375 6.546875 -29.8125 C 6.785156 -30.25 7.050781 -30.707031 7.34375 -31.1875 C 7.632812 -31.675781 7.828125 -31.992188 7.921875 -32.140625 C 8.703125 -33.640625 10.15625 -34.847656 12.28125 -35.765625 C 12.957031 -36.015625 13.421875 -36.257812 13.671875 -36.5 L 14.03125 -36.78125 C 14.664062 -36.78125 15.523438 -37.007812 16.609375 -37.46875 C 17.703125 -37.9375 18.320312 -38.191406 18.46875 -38.234375 L 19.484375 -38.53125 C 19.535156 -38.53125 20.203125 -38.394531 21.484375 -38.125 C 22.765625 -37.863281 23.457031 -37.734375 23.5625 -37.734375 C 25.007812 -37.734375 26 -37.515625 26.53125 -37.078125 C 26.78125 -36.835938 27.191406 -36.664062 27.765625 -36.5625 C 29.710938 -36.132812 31.046875 -35.554688 31.765625 -34.828125 Z M 31.765625 -34.828125 "/></g></g></g><g fill="#ffffff" fill-opacity="1"><g transform="translate(324.349535, 61.227001)"><g><path d="M 8.4375 -20.0625 C 8.675781 -19.820312 8.851562 -19.90625 8.96875 -20.3125 C 9.09375 -20.726562 8.988281 -20.9375 8.65625 -20.9375 C 8.457031 -20.9375 8.332031 -20.828125 8.28125 -20.609375 C 8.238281 -20.390625 8.289062 -20.207031 8.4375 -20.0625 Z M 27.703125 -25.234375 C 27.703125 -25.472656 27.554688 -25.59375 27.265625 -25.59375 C 26.972656 -25.59375 26.828125 -25.472656 26.828125 -25.234375 C 26.828125 -25.035156 26.972656 -24.9375 27.265625 -24.9375 C 27.554688 -24.9375 27.703125 -25.035156 27.703125 -25.234375 Z M 44.265625 -28.28125 C 43.785156 -27.75 43.546875 -27.429688 43.546875 -27.328125 C 43.546875 -27.234375 43.191406 -26.710938 42.484375 -25.765625 C 41.785156 -24.828125 41.4375 -24.332031 41.4375 -24.28125 C 41.4375 -24.082031 41.242188 -23.742188 40.859375 -23.265625 C 40.804688 -23.171875 40.695312 -23 40.53125 -22.75 C 40.363281 -22.507812 40.207031 -22.289062 40.0625 -22.09375 C 39.914062 -21.90625 39.796875 -21.710938 39.703125 -21.515625 C 39.304688 -20.691406 38.601562 -19.578125 37.59375 -18.171875 C 36.476562 -16.722656 35.773438 -15.753906 35.484375 -15.265625 C 34.703125 -14.148438 33.535156 -12.878906 31.984375 -11.453125 C 30.429688 -10.023438 29.269531 -9.164062 28.5 -8.875 C 28.007812 -8.675781 27.671875 -8.53125 27.484375 -8.4375 C 26.273438 -7.65625 24.96875 -7.265625 23.5625 -7.265625 C 22.925781 -7.265625 22.414062 -7.363281 22.03125 -7.5625 C 21.25 -7.945312 20.796875 -8.429688 20.671875 -9.015625 C 20.554688 -9.597656 20.5 -11.414062 20.5 -14.46875 C 20.5 -18.101562 20.453125 -19.96875 20.359375 -20.0625 L 20.28125 -20.0625 C 20.09375 -20.0625 19.789062 -19.722656 19.375 -19.046875 C 18.957031 -18.367188 18.539062 -17.628906 18.125 -16.828125 C 17.71875 -16.023438 17.46875 -15.550781 17.375 -15.40625 C 17.132812 -15.070312 16.890625 -14.648438 16.640625 -14.140625 C 16.398438 -13.628906 16.207031 -13.253906 16.0625 -13.015625 C 15.726562 -12.523438 15.351562 -11.832031 14.9375 -10.9375 C 14.53125 -10.039062 14.328125 -9.519531 14.328125 -9.375 C 14.328125 -9.226562 14.082031 -8.875 13.59375 -8.3125 C 13.113281 -7.757812 12.875 -7.460938 12.875 -7.421875 C 12.582031 -6.878906 11.5625 -6.609375 9.8125 -6.609375 C 8.75 -6.609375 7.972656 -6.734375 7.484375 -6.984375 C 6.179688 -7.609375 5.359375 -8.285156 5.015625 -9.015625 C 4.535156 -10.035156 4.242188 -12.363281 4.140625 -16 C 4.046875 -18.175781 3.972656 -19.335938 3.921875 -19.484375 C 3.828125 -19.722656 3.878906 -19.96875 4.078125 -20.21875 C 4.222656 -20.40625 4.296875 -21.007812 4.296875 -22.03125 C 4.296875 -22.21875 4.28125 -22.601562 4.25 -23.1875 C 4.226562 -23.769531 4.21875 -24.28125 4.21875 -24.71875 L 4.21875 -26.3125 C 4.21875 -27.238281 4.253906 -28.242188 4.328125 -29.328125 C 4.398438 -30.421875 4.4375 -31.304688 4.4375 -31.984375 C 4.4375 -32.710938 4.53125 -33.078125 4.71875 -33.078125 C 4.769531 -33.078125 4.941406 -33.34375 5.234375 -33.875 C 5.617188 -34.988281 6.5625 -35.546875 8.0625 -35.546875 C 8.789062 -35.546875 9.421875 -35.375 9.953125 -35.03125 C 10.492188 -34.695312 10.765625 -34.457031 10.765625 -34.3125 C 10.765625 -34.070312 10.957031 -33.757812 11.34375 -33.375 C 11.632812 -33.082031 11.890625 -32.472656 12.109375 -31.546875 C 12.328125 -30.628906 12.457031 -30.097656 12.5 -29.953125 C 12.695312 -29.421875 12.84375 -28.671875 12.9375 -27.703125 C 13.082031 -25.804688 13.328125 -24.738281 13.671875 -24.5 C 13.960938 -24.300781 14.109375 -24.128906 14.109375 -23.984375 C 14.109375 -23.796875 14.15625 -23.703125 14.25 -23.703125 C 14.34375 -23.703125 14.546875 -23.90625 14.859375 -24.3125 C 15.179688 -24.726562 15.34375 -25.035156 15.34375 -25.234375 C 15.34375 -25.472656 15.582031 -25.988281 16.0625 -26.78125 C 16.550781 -27.582031 17.015625 -28.226562 17.453125 -28.71875 C 18.128906 -29.394531 18.832031 -30.21875 19.5625 -31.1875 C 20.1875 -31.914062 21.09375 -32.835938 22.28125 -33.953125 C 23.46875 -35.066406 24.160156 -35.625 24.359375 -35.625 C 24.398438 -35.625 24.472656 -35.578125 24.578125 -35.484375 L 24.859375 -35.265625 C 25.003906 -35.117188 25.195312 -34.984375 25.4375 -34.859375 C 25.6875 -34.734375 25.882812 -34.585938 26.03125 -34.421875 C 26.175781 -34.253906 26.296875 -34 26.390625 -33.65625 C 26.484375 -33.320312 26.96875 -32.097656 27.84375 -29.984375 C 28.71875 -27.878906 29.226562 -26.460938 29.375 -25.734375 C 29.613281 -24.617188 29.78125 -23.960938 29.875 -23.765625 C 29.976562 -23.578125 30.148438 -23.484375 30.390625 -23.484375 C 31.117188 -23.484375 32.0625 -24.769531 33.21875 -27.34375 C 33.613281 -28.164062 33.957031 -28.671875 34.25 -28.859375 C 34.582031 -29.109375 34.75 -29.375 34.75 -29.65625 C 34.75 -29.757812 35.269531 -30.367188 36.3125 -31.484375 C 37.351562 -32.597656 37.875 -33.203125 37.875 -33.296875 C 37.875 -33.441406 37.992188 -33.515625 38.234375 -33.515625 C 38.378906 -33.515625 38.671875 -33.828125 39.109375 -34.453125 C 39.546875 -35.085938 39.8125 -35.425781 39.90625 -35.46875 C 40.007812 -35.519531 40.785156 -35.546875 42.234375 -35.546875 C 43.640625 -35.503906 44.5625 -35.3125 45 -34.96875 C 45.820312 -34.289062 46.039062 -33.707031 45.65625 -33.21875 C 45.507812 -32.976562 45.484375 -32.617188 45.578125 -32.140625 C 45.628906 -31.941406 45.65625 -31.625 45.65625 -31.1875 C 45.65625 -30.457031 45.535156 -29.972656 45.296875 -29.734375 C 45.097656 -29.535156 45 -29.367188 45 -29.234375 C 45 -29.128906 44.753906 -28.8125 44.265625 -28.28125 Z M 44.265625 -28.28125 "/></g></g></g></g></g></g></svg>