<svg xmlns="http://www.w3.org/2000/svg" xmlns:xlink="http://www.w3.org/1999/xlink" width="500" zoomAndPan="magnify" viewBox="0 0 375 127.500001" height="170" preserveAspectRatio="xMidYMid meet" version="1.0"><defs><g/><clipPath id="8491041d85"><path d="M 0.730469 31 L 374.265625 31 L 374.265625 94 L 0.730469 94 Z M 0.730469 31 " clip-rule="nonzero"/></clipPath><clipPath id="6906a5d844"><path d="M 57 0.554688 L 109 0.554688 L 109 50 L 57 50 Z M 57 0.554688 " clip-rule="nonzero"/></clipPath><clipPath id="ef9398346d"><rect x="0" width="375" y="0" height="63"/></clipPath></defs><g clip-path="url(#8491041d85)"><g transform="matrix(1, 0, 0, 1, 0.000000000000000111, 31)"><g clip-path="url(#ef9398346d)"><g fill="#ffffff" fill-opacity="1"><g transform="translate(0.73242, 60.748186)"><g><path d="M 26.203125 -15.015625 C 26.203125 -15.253906 26.109375 -15.375 25.921875 -15.375 C 25.742188 -15.375 25.65625 -15.253906 25.65625 -15.015625 C 25.65625 -14.828125 25.742188 -14.734375 25.921875 -14.734375 C 26.109375 -14.734375 26.203125 -14.828125 26.203125 -15.015625 Z M 29.203125 -54.015625 C 28.847656 -53.679688 28.671875 -53.175781 28.671875 -52.5 C 28.671875 -51.832031 28.578125 -51.285156 28.390625 -50.859375 C 28.210938 -50.441406 28.125 -49.867188 28.125 -49.140625 C 28.125 -48.109375 28.210938 -47.59375 28.390625 -47.59375 C 28.578125 -47.59375 28.671875 -47.378906 28.671875 -46.953125 C 28.671875 -46.585938 28.578125 -46.40625 28.390625 -46.40625 C 28.210938 -46.40625 28.125 -45.984375 28.125 -45.140625 C 28.125 -44.347656 28.210938 -43.953125 28.390625 -43.953125 C 28.578125 -43.953125 28.671875 -40.675781 28.671875 -34.125 C 28.671875 -27.632812 28.578125 -24.296875 28.390625 -24.109375 C 28.148438 -23.992188 28.210938 -23.691406 28.578125 -23.203125 C 28.878906 -22.835938 29.03125 -21.441406 29.03125 -19.015625 L 29.03125 -17.75 C 29.03125 -16.414062 29.148438 -15.625 29.390625 -15.375 C 29.628906 -15.132812 30.359375 -14.894531 31.578125 -14.65625 C 33.035156 -14.40625 33.988281 -14.203125 34.4375 -14.046875 C 34.894531 -13.898438 35.125 -13.644531 35.125 -13.28125 C 35.125 -12.976562 34.125 -12.828125 32.125 -12.828125 C 30.125 -12.828125 29.0625 -12.734375 28.9375 -12.546875 C 28.8125 -12.367188 26.296875 -12.28125 21.390625 -12.28125 C 19.378906 -12.28125 18.34375 -12.3125 18.28125 -12.375 C 18.226562 -12.4375 18.257812 -12.648438 18.375 -13.015625 C 18.5 -13.316406 18.957031 -13.46875 19.75 -13.46875 C 21.507812 -13.46875 22.84375 -14.347656 23.75 -16.109375 C 24.175781 -16.835938 24.390625 -18.265625 24.390625 -20.390625 C 24.390625 -22.390625 24.269531 -23.875 24.03125 -24.84375 C 23.664062 -26.90625 23.484375 -34.425781 23.484375 -47.40625 L 23.484375 -54.046875 L 21.390625 -54.234375 C 19.378906 -54.421875 17.222656 -54.539062 14.921875 -54.59375 C 13.953125 -54.65625 12.921875 -54.6875 11.828125 -54.6875 C 10.921875 -54.6875 10.285156 -54.503906 9.921875 -54.140625 C 9.429688 -53.660156 9.066406 -53.421875 8.828125 -53.421875 C 8.640625 -53.421875 8.457031 -52.992188 8.28125 -52.140625 C 8.101562 -51.296875 7.953125 -50.84375 7.828125 -50.78125 C 7.585938 -50.65625 7.46875 -50.320312 7.46875 -49.78125 C 7.46875 -49.113281 7.285156 -48.75 6.921875 -48.6875 C 6.796875 -48.625 6.644531 -48.59375 6.46875 -48.59375 C 5.914062 -48.59375 5.640625 -49.351562 5.640625 -50.875 C 5.640625 -52.144531 5.550781 -52.84375 5.375 -52.96875 C 5.125 -53.144531 5 -53.78125 5 -54.875 C 5 -56.382812 5.179688 -57.320312 5.546875 -57.6875 L 6.09375 -58.328125 L 24.84375 -58.234375 C 37.28125 -58.117188 43.953125 -58 44.859375 -57.875 C 45.648438 -57.75 46.164062 -57.472656 46.40625 -57.046875 C 46.65625 -56.628906 46.78125 -55.722656 46.78125 -54.328125 L 46.78125 -52.96875 L 46.6875 -49.59375 C 45.53125 -49.46875 44.953125 -49.617188 44.953125 -50.046875 C 44.953125 -50.472656 44.859375 -50.6875 44.671875 -50.6875 C 44.492188 -50.6875 44.40625 -50.929688 44.40625 -51.421875 C 44.40625 -51.960938 44.285156 -52.234375 44.046875 -52.234375 C 43.859375 -52.234375 43.765625 -52.445312 43.765625 -52.875 C 43.765625 -53.238281 43.675781 -53.421875 43.5 -53.421875 C 43.257812 -53.421875 43.140625 -53.628906 43.140625 -54.046875 C 43.140625 -54.296875 43.0625 -54.523438 42.90625 -54.734375 C 42.75 -54.953125 42.582031 -55.085938 42.40625 -55.140625 C 42.226562 -55.203125 42.078125 -55.175781 41.953125 -55.0625 C 41.765625 -54.875 40.703125 -54.78125 38.765625 -54.78125 C 37.066406 -54.78125 36.035156 -54.875 35.671875 -55.0625 C 35.367188 -55.238281 35.15625 -55.207031 35.03125 -54.96875 C 34.96875 -54.78125 34.148438 -54.6875 32.578125 -54.6875 L 32.390625 -54.6875 C 31.421875 -54.6875 30.738281 -54.65625 30.34375 -54.59375 C 29.945312 -54.539062 29.566406 -54.347656 29.203125 -54.015625 Z M 29.203125 -54.015625 "/></g></g></g><g clip-path="url(#6906a5d844)"><g fill="#ffffff" fill-opacity="1"><g transform="translate(52.589802, 60.748186)"><g><path d="M 44.3125 -53.046875 C 44.3125 -53.359375 44.207031 -53.632812 44 -53.875 C 43.789062 -54.113281 43.6875 -54.414062 43.6875 -54.78125 C 43.6875 -55.269531 43.59375 -55.515625 43.40625 -55.515625 C 43.226562 -55.515625 43.078125 -55.816406 42.953125 -56.421875 C 42.765625 -57.085938 42.425781 -57.421875 41.9375 -57.421875 C 41.457031 -57.421875 41.21875 -57.507812 41.21875 -57.6875 C 41.21875 -57.875 41.003906 -57.96875 40.578125 -57.96875 C 40.160156 -57.96875 39.953125 -58.179688 39.953125 -58.609375 C 39.953125 -58.910156 40.117188 -59.085938 40.453125 -59.140625 C 40.785156 -59.203125 41.738281 -59.234375 43.3125 -59.234375 C 45.625 -59.234375 46.804688 -59.328125 46.859375 -59.515625 C 46.984375 -59.753906 47.316406 -59.875 47.859375 -59.875 C 48.347656 -59.875 48.59375 -59.753906 48.59375 -59.515625 C 48.59375 -59.328125 48.925781 -59.234375 49.59375 -59.234375 C 50.382812 -59.234375 50.8125 -59.328125 50.875 -59.515625 C 50.988281 -59.753906 51.320312 -59.875 51.875 -59.875 C 52.351562 -59.875 52.59375 -59.753906 52.59375 -59.515625 C 52.59375 -59.328125 52.773438 -59.234375 53.140625 -59.234375 C 53.867188 -59.234375 54.234375 -58.992188 54.234375 -58.515625 C 54.234375 -57.785156 53.65625 -57.421875 52.5 -57.421875 C 51.71875 -57.421875 51.328125 -57.238281 51.328125 -56.875 C 51.328125 -56.632812 51.082031 -56.238281 50.59375 -55.6875 C 50.113281 -55.144531 49.75 -54.875 49.5 -54.875 C 49.382812 -54.875 49.328125 -52.265625 49.328125 -47.046875 C 49.328125 -31.390625 49.507812 -23.378906 49.875 -23.015625 C 50.050781 -22.835938 50.140625 -21.71875 50.140625 -19.65625 C 50.140625 -17.65625 50.410156 -16.351562 50.953125 -15.75 C 51.441406 -15.132812 51.835938 -14.828125 52.140625 -14.828125 C 52.328125 -14.828125 52.570312 -14.617188 52.875 -14.203125 C 53.113281 -13.773438 53.660156 -13.5625 54.515625 -13.5625 C 55.296875 -13.5625 55.6875 -13.378906 55.6875 -13.015625 C 55.6875 -12.648438 55.410156 -12.34375 54.859375 -12.09375 C 54.316406 -11.851562 53.910156 -11.71875 53.640625 -11.6875 C 53.367188 -11.65625 53.234375 -11.765625 53.234375 -12.015625 C 53.234375 -12.191406 52.382812 -12.28125 50.6875 -12.28125 C 50.382812 -12.28125 49.804688 -12.265625 48.953125 -12.234375 C 48.109375 -12.203125 47.382812 -12.1875 46.78125 -12.1875 C 46.226562 -12.1875 45.539062 -12.171875 44.71875 -12.140625 C 43.90625 -12.117188 43.347656 -12.109375 43.046875 -12.109375 C 40.128906 -12.109375 38.671875 -12.378906 38.671875 -12.921875 C 38.671875 -13.773438 39.460938 -14.203125 41.046875 -14.203125 C 41.953125 -14.203125 42.40625 -14.289062 42.40625 -14.46875 C 42.40625 -14.707031 42.648438 -14.828125 43.140625 -14.828125 C 43.503906 -14.828125 43.972656 -15.023438 44.546875 -15.421875 C 45.117188 -15.816406 45.46875 -16.046875 45.59375 -16.109375 C 45.957031 -16.222656 46.140625 -18.128906 46.140625 -21.828125 C 46.140625 -25.535156 46.015625 -27.453125 45.765625 -27.578125 C 45.585938 -27.628906 45.5 -28.84375 45.5 -31.21875 C 45.5 -33.457031 45.347656 -34.789062 45.046875 -35.21875 C 44.679688 -35.644531 42.191406 -35.859375 37.578125 -35.859375 L 23.5625 -35.859375 L 16.46875 -35.765625 L 16.46875 -25.75 C 16.46875 -23.207031 16.46875 -21.3125 16.46875 -20.0625 C 16.46875 -18.820312 16.5 -17.835938 16.5625 -17.109375 C 16.625 -16.378906 16.679688 -15.953125 16.734375 -15.828125 C 16.796875 -15.710938 16.921875 -15.625 17.109375 -15.5625 C 17.535156 -15.4375 17.75 -15.28125 17.75 -15.09375 C 17.75 -14.914062 18.351562 -14.828125 19.5625 -14.828125 C 20.832031 -14.828125 21.46875 -14.707031 21.46875 -14.46875 C 21.46875 -14.289062 21.648438 -14.203125 22.015625 -14.203125 C 22.203125 -14.203125 22.414062 -14.125 22.65625 -13.96875 C 22.894531 -13.8125 23.078125 -13.628906 23.203125 -13.421875 C 23.328125 -13.210938 23.328125 -13.078125 23.203125 -13.015625 C 23.023438 -12.828125 22.507812 -12.796875 21.65625 -12.921875 L 21.296875 -12.921875 C 18.503906 -12.921875 16.742188 -12.617188 16.015625 -12.015625 C 15.773438 -11.765625 15.441406 -11.765625 15.015625 -12.015625 C 14.523438 -12.253906 13.097656 -12.375 10.734375 -12.375 C 8.242188 -12.375 6.941406 -12.4375 6.828125 -12.5625 C 6.640625 -12.738281 6.632812 -12.945312 6.8125 -13.1875 C 7 -13.4375 7.242188 -13.5625 7.546875 -13.5625 C 7.972656 -13.5625 8.1875 -13.679688 8.1875 -13.921875 C 8.1875 -14.109375 8.488281 -14.203125 9.09375 -14.203125 C 9.707031 -14.203125 10.015625 -14.289062 10.015625 -14.46875 C 10.015625 -14.707031 10.316406 -14.828125 10.921875 -14.828125 L 11.921875 -14.828125 L 11.921875 -34.21875 C 11.921875 -47.195312 11.800781 -53.6875 11.5625 -53.6875 C 11.375 -53.6875 11.28125 -53.960938 11.28125 -54.515625 C 11.28125 -55.117188 11.003906 -55.570312 10.453125 -55.875 C 9.910156 -56.175781 8.671875 -56.570312 6.734375 -57.0625 C 5.640625 -57.300781 5.09375 -57.632812 5.09375 -58.0625 C 5.09375 -58.300781 5.304688 -58.453125 5.734375 -58.515625 C 6.160156 -58.578125 7.375 -58.609375 9.375 -58.609375 C 12.34375 -58.609375 13.859375 -58.695312 13.921875 -58.875 C 14.046875 -59.113281 14.5 -59.234375 15.28125 -59.234375 C 16.132812 -59.234375 16.59375 -59.328125 16.65625 -59.515625 C 16.71875 -59.753906 17.171875 -59.875 18.015625 -59.875 C 19.597656 -59.875 20.722656 -59.601562 21.390625 -59.0625 C 21.441406 -59 21.347656 -58.832031 21.109375 -58.5625 C 20.867188 -58.289062 20.566406 -58.03125 20.203125 -57.78125 C 19.835938 -57.539062 19.59375 -57.421875 19.46875 -57.421875 C 19.164062 -57.421875 19.015625 -57.328125 19.015625 -57.140625 C 19.015625 -56.960938 18.710938 -56.753906 18.109375 -56.515625 C 17.015625 -56.023438 16.46875 -55.023438 16.46875 -53.515625 C 16.46875 -52.785156 16.375 -52.390625 16.1875 -52.328125 C 16.007812 -52.265625 15.921875 -51.6875 15.921875 -50.59375 C 15.921875 -49.5 16.007812 -48.921875 16.1875 -48.859375 C 16.375 -48.804688 16.46875 -47.019531 16.46875 -43.5 L 16.46875 -38.21875 C 19.625 -38.21875 24.367188 -38.25 30.703125 -38.3125 C 37.046875 -38.375 41.796875 -38.40625 44.953125 -38.40625 L 44.953125 -40.671875 C 44.953125 -42.128906 45.015625 -42.859375 45.140625 -42.859375 C 45.378906 -42.859375 45.5 -43.160156 45.5 -43.765625 C 45.5 -44.378906 45.410156 -44.742188 45.234375 -44.859375 C 44.984375 -44.984375 44.859375 -46.289062 44.859375 -48.78125 C 44.859375 -51.207031 44.765625 -52.421875 44.578125 -52.421875 C 44.398438 -52.421875 44.3125 -52.628906 44.3125 -53.046875 Z M 44.3125 -53.046875 "/></g></g></g></g><g fill="#ffffff" fill-opacity="1"><g transform="translate(113.363002, 60.748186)"><g><path d="M 41.765625 -16.828125 C 41.585938 -16.523438 41.5 -16.222656 41.5 -15.921875 C 41.5 -15.617188 41.390625 -15.332031 41.171875 -15.0625 C 40.960938 -14.789062 40.859375 -14.472656 40.859375 -14.109375 C 40.859375 -13.804688 40.707031 -13.410156 40.40625 -12.921875 C 39.914062 -12.316406 39.21875 -12.015625 38.3125 -12.015625 C 37.582031 -12.015625 36.945312 -12.046875 36.40625 -12.109375 C 35.488281 -12.222656 30.023438 -12.28125 20.015625 -12.28125 L 5.640625 -12.28125 C 5.273438 -12.28125 5.09375 -12.429688 5.09375 -12.734375 C 5.09375 -13.035156 5.320312 -13.351562 5.78125 -13.6875 C 6.238281 -14.03125 6.707031 -14.203125 7.1875 -14.203125 C 7.738281 -14.203125 8.40625 -14.535156 9.1875 -15.203125 C 9.914062 -15.867188 10.28125 -16.59375 10.28125 -17.375 C 10.28125 -18.164062 10.21875 -18.5625 10.09375 -18.5625 C 9.851562 -18.5625 9.734375 -19.109375 9.734375 -20.203125 C 9.734375 -20.929688 9.820312 -21.351562 10 -21.46875 C 10.1875 -21.59375 10.28125 -22.050781 10.28125 -22.84375 C 10.28125 -23.632812 10.191406 -24.085938 10.015625 -24.203125 C 9.765625 -24.328125 9.640625 -29.210938 9.640625 -38.859375 C 9.640625 -48.503906 9.546875 -53.382812 9.359375 -53.5 C 9.179688 -53.625 9.09375 -53.898438 9.09375 -54.328125 C 9.09375 -54.753906 8.878906 -54.96875 8.453125 -54.96875 C 8.035156 -54.96875 7.828125 -55.054688 7.828125 -55.234375 C 7.828125 -55.421875 7.429688 -55.515625 6.640625 -55.515625 C 5.847656 -55.515625 5.332031 -55.785156 5.09375 -56.328125 C 4.613281 -57.421875 4.914062 -57.96875 6 -57.96875 C 6.425781 -57.96875 6.640625 -58.085938 6.640625 -58.328125 C 6.640625 -58.515625 6.726562 -58.609375 6.90625 -58.609375 C 7.09375 -58.609375 7.1875 -58.515625 7.1875 -58.328125 C 7.1875 -58.148438 7.734375 -58.0625 8.828125 -58.0625 C 10.347656 -58.0625 11.226562 -58.179688 11.46875 -58.421875 C 11.707031 -58.660156 12.097656 -58.628906 12.640625 -58.328125 C 13.191406 -58.023438 13.648438 -57.992188 14.015625 -58.234375 C 14.316406 -58.484375 15.46875 -58.609375 17.46875 -58.609375 C 18.925781 -58.609375 19.6875 -58.515625 19.75 -58.328125 C 19.863281 -58.085938 20.101562 -57.96875 20.46875 -57.96875 C 20.894531 -57.96875 21.109375 -58.085938 21.109375 -58.328125 C 21.109375 -58.453125 21.304688 -58.539062 21.703125 -58.59375 C 22.097656 -58.65625 22.503906 -58.640625 22.921875 -58.546875 C 23.347656 -58.460938 23.59375 -58.359375 23.65625 -58.234375 C 23.71875 -57.992188 23.898438 -57.992188 24.203125 -58.234375 C 24.328125 -58.359375 24.597656 -58.460938 25.015625 -58.546875 C 25.441406 -58.640625 25.820312 -58.65625 26.15625 -58.59375 C 26.488281 -58.539062 26.65625 -58.453125 26.65625 -58.328125 C 26.65625 -58.085938 26.78125 -57.96875 27.03125 -57.96875 C 27.207031 -57.96875 27.566406 -58.054688 28.109375 -58.234375 C 28.660156 -58.421875 28.992188 -58.515625 29.109375 -58.515625 C 29.234375 -58.515625 29.296875 -58.484375 29.296875 -58.421875 C 29.421875 -58.117188 30.695312 -57.96875 33.125 -57.96875 C 35.613281 -57.96875 36.859375 -57.875 36.859375 -57.6875 C 36.859375 -57.507812 36.976562 -57.421875 37.21875 -57.421875 C 37.457031 -57.421875 37.710938 -57.128906 37.984375 -56.546875 C 38.265625 -55.972656 38.40625 -55.414062 38.40625 -54.875 C 38.40625 -54.207031 38.585938 -53.78125 38.953125 -53.59375 C 39.367188 -53.351562 39.578125 -52.65625 39.578125 -51.5 C 39.578125 -50.289062 39.695312 -49.625 39.9375 -49.5 C 40.1875 -49.382812 40.296875 -49.082031 40.265625 -48.59375 C 40.234375 -48.101562 40.066406 -47.859375 39.765625 -47.859375 C 39.460938 -47.859375 38.992188 -48.175781 38.359375 -48.8125 C 37.722656 -49.457031 37.40625 -49.898438 37.40625 -50.140625 C 37.40625 -50.441406 37.191406 -51.03125 36.765625 -51.90625 C 36.335938 -52.789062 36.035156 -53.265625 35.859375 -53.328125 C 35.609375 -53.453125 35.148438 -53.847656 34.484375 -54.515625 L 33.484375 -55.515625 L 29.578125 -55.515625 C 26.960938 -55.515625 25.625 -55.421875 25.5625 -55.234375 C 25.507812 -55.054688 25.054688 -54.96875 24.203125 -54.96875 C 23.054688 -54.96875 22.328125 -55.085938 22.015625 -55.328125 C 21.835938 -55.566406 21.429688 -55.566406 20.796875 -55.328125 C 20.160156 -55.085938 19.78125 -54.96875 19.65625 -54.96875 C 19.289062 -54.96875 18.742188 -54.828125 18.015625 -54.546875 C 17.285156 -54.273438 16.800781 -54.019531 16.5625 -53.78125 C 16.320312 -53.539062 16.078125 -53.421875 15.828125 -53.421875 C 15.648438 -53.421875 15.5 -53.113281 15.375 -52.5 C 15.3125 -52.257812 15.039062 -51.804688 14.5625 -51.140625 C 14.195312 -50.710938 14.015625 -48.5625 14.015625 -44.6875 C 14.015625 -41.832031 14.046875 -40.144531 14.109375 -39.625 C 14.171875 -39.113281 14.320312 -38.859375 14.5625 -38.859375 C 15.039062 -38.859375 15.3125 -38.765625 15.375 -38.578125 C 15.4375 -38.398438 17.410156 -38.3125 21.296875 -38.3125 C 26.453125 -38.3125 29.300781 -38.429688 29.84375 -38.671875 C 30.394531 -38.910156 30.789062 -39.304688 31.03125 -39.859375 C 31.269531 -40.460938 31.484375 -40.765625 31.671875 -40.765625 C 31.785156 -40.765625 31.84375 -40.976562 31.84375 -41.40625 C 31.84375 -41.707031 32.023438 -42.128906 32.390625 -42.671875 C 32.753906 -43.222656 33.0625 -43.5 33.3125 -43.5 C 33.675781 -43.5 33.960938 -43.207031 34.171875 -42.625 C 34.378906 -42.050781 34.332031 -41.675781 34.03125 -41.5 C 33.851562 -41.375 33.765625 -40.914062 33.765625 -40.125 C 33.765625 -39.34375 33.851562 -38.890625 34.03125 -38.765625 C 34.269531 -38.640625 34.390625 -38.210938 34.390625 -37.484375 C 34.390625 -36.765625 34.269531 -36.34375 34.03125 -36.21875 C 33.851562 -36.09375 33.765625 -35.148438 33.765625 -33.390625 L 33.765625 -31.390625 C 33.765625 -30.054688 33.613281 -29.390625 33.3125 -29.390625 L 33.21875 -29.390625 C 32.96875 -29.453125 32.582031 -29.90625 32.0625 -30.75 C 31.550781 -31.601562 31.296875 -32.242188 31.296875 -32.671875 C 31.296875 -33.097656 31.175781 -33.3125 30.9375 -33.3125 C 30.757812 -33.3125 30.671875 -33.492188 30.671875 -33.859375 C 30.671875 -34.460938 30.289062 -34.820312 29.53125 -34.9375 C 28.769531 -35.0625 26.539062 -35.125 22.84375 -35.125 C 18.289062 -35.125 15.679688 -35.035156 15.015625 -34.859375 C 14.523438 -34.671875 14.234375 -34.484375 14.140625 -34.296875 C 14.054688 -34.117188 14.015625 -33.664062 14.015625 -32.9375 C 14.015625 -31.96875 14.101562 -31.484375 14.28125 -31.484375 C 14.53125 -31.484375 14.65625 -29.390625 14.65625 -25.203125 C 14.65625 -20.898438 14.742188 -18.71875 14.921875 -18.65625 C 15.109375 -18.59375 15.203125 -18.347656 15.203125 -17.921875 C 15.203125 -17.316406 15.640625 -16.753906 16.515625 -16.234375 C 17.398438 -15.722656 18.359375 -15.46875 19.390625 -15.46875 C 19.867188 -15.46875 20.171875 -15.347656 20.296875 -15.109375 C 20.535156 -14.859375 23.019531 -14.734375 27.75 -14.734375 C 32.539062 -14.734375 34.9375 -14.851562 34.9375 -15.09375 C 34.9375 -15.34375 35.148438 -15.46875 35.578125 -15.46875 C 36.003906 -15.46875 36.21875 -15.554688 36.21875 -15.734375 C 36.21875 -15.921875 36.429688 -16.015625 36.859375 -16.015625 C 37.222656 -16.015625 37.40625 -16.132812 37.40625 -16.375 C 37.40625 -16.5 37.875 -17.046875 38.8125 -18.015625 C 39.75 -18.984375 40.21875 -19.5625 40.21875 -19.75 C 40.21875 -19.988281 40.3125 -20.109375 40.5 -20.109375 C 40.738281 -20.109375 40.859375 -20.289062 40.859375 -20.65625 C 40.859375 -21.082031 40.945312 -21.296875 41.125 -21.296875 C 41.375 -21.296875 41.5 -21.445312 41.5 -21.75 C 41.5 -22.238281 41.648438 -22.585938 41.953125 -22.796875 C 42.253906 -23.003906 42.617188 -22.925781 43.046875 -22.5625 C 43.472656 -22.144531 43.59375 -21.628906 43.40625 -21.015625 C 43.28125 -20.410156 43.125 -20.109375 42.9375 -20.109375 C 42.757812 -20.109375 42.671875 -19.894531 42.671875 -19.46875 C 42.671875 -19.164062 42.566406 -18.878906 42.359375 -18.609375 C 42.148438 -18.335938 42.046875 -18.050781 42.046875 -17.75 C 42.046875 -17.445312 41.953125 -17.140625 41.765625 -16.828125 Z M 41.765625 -16.828125 "/></g></g></g><g fill="#ffffff" fill-opacity="1"><g transform="translate(162.036159, 60.748186)"><g/></g></g><g fill="#ffffff" fill-opacity="1"><g transform="translate(184.780627, 60.748186)"><g><path d="M 15.203125 -56.515625 C 15.203125 -56.753906 15.109375 -56.875 14.921875 -56.875 C 14.742188 -56.875 14.65625 -56.753906 14.65625 -56.515625 C 14.65625 -56.328125 14.742188 -56.234375 14.921875 -56.234375 C 15.109375 -56.234375 15.203125 -56.328125 15.203125 -56.515625 Z M 14.015625 -51.328125 C 14.015625 -51.628906 13.90625 -51.898438 13.6875 -52.140625 C 13.476562 -52.378906 13.375 -52.679688 13.375 -53.046875 C 13.375 -53.535156 13.207031 -53.78125 12.875 -53.78125 C 12.539062 -53.78125 12.34375 -53.566406 12.28125 -53.140625 C 12.21875 -53.023438 12.1875 -52.476562 12.1875 -51.5 C 12.1875 -48.226562 12.367188 -44.285156 12.734375 -39.671875 C 12.984375 -36.398438 13.109375 -34.550781 13.109375 -34.125 C 13.046875 -32.238281 13.015625 -29.875 13.015625 -27.03125 C 13.015625 -26.539062 13.03125 -25.945312 13.0625 -25.25 C 13.09375 -24.550781 13.109375 -24.171875 13.109375 -24.109375 C 13.109375 -23.265625 13.148438 -22.234375 13.234375 -21.015625 C 13.328125 -19.804688 13.421875 -18.757812 13.515625 -17.875 C 13.609375 -17 13.679688 -16.5625 13.734375 -16.5625 C 13.921875 -16.5625 14.015625 -16.347656 14.015625 -15.921875 C 14.015625 -15.554688 14.226562 -15.375 14.65625 -15.375 C 15.019531 -15.375 15.203125 -15.253906 15.203125 -15.015625 C 15.203125 -14.828125 15.535156 -14.734375 16.203125 -14.734375 C 16.804688 -14.734375 17.109375 -14.644531 17.109375 -14.46875 C 17.109375 -14.34375 17.242188 -14.25 17.515625 -14.1875 C 17.785156 -14.132812 18.085938 -14.132812 18.421875 -14.1875 C 18.753906 -14.25 18.984375 -14.34375 19.109375 -14.46875 C 19.347656 -14.644531 19.679688 -14.519531 20.109375 -14.09375 C 20.535156 -13.675781 20.734375 -13.375 20.703125 -13.1875 C 20.671875 -13.007812 20.382812 -12.921875 19.84375 -12.921875 C 19.226562 -12.921875 18.863281 -12.800781 18.75 -12.5625 C 18.625 -12.375 18.210938 -12.28125 17.515625 -12.28125 C 16.816406 -12.28125 16.46875 -12.375 16.46875 -12.5625 C 16.46875 -12.800781 15.070312 -12.921875 12.28125 -12.921875 C 9.550781 -12.921875 8.1875 -12.800781 8.1875 -12.5625 C 8.1875 -12.375 7.882812 -12.28125 7.28125 -12.28125 C 6.851562 -12.28125 6.59375 -12.328125 6.5 -12.421875 C 6.414062 -12.515625 6.375 -12.769531 6.375 -13.1875 C 6.375 -13.5 6.390625 -13.695312 6.421875 -13.78125 C 6.453125 -13.875 6.539062 -13.953125 6.6875 -14.015625 C 6.84375 -14.078125 7.128906 -14.109375 7.546875 -14.109375 C 8.398438 -14.109375 8.828125 -14.226562 8.828125 -14.46875 C 8.828125 -14.644531 8.976562 -14.734375 9.28125 -14.734375 C 9.519531 -14.734375 9.882812 -14.976562 10.375 -15.46875 C 10.738281 -15.957031 10.921875 -17.957031 10.921875 -21.46875 C 10.921875 -25.113281 10.890625 -28.453125 10.828125 -31.484375 C 10.703125 -41.679688 10.519531 -46.957031 10.28125 -47.3125 C 10.101562 -47.5625 10.015625 -49.140625 10.015625 -52.046875 L 10.015625 -56.234375 L 9.28125 -56.234375 C 8.789062 -56.234375 8.488281 -56.328125 8.375 -56.515625 C 8.25 -56.628906 7.910156 -56.734375 7.359375 -56.828125 C 6.816406 -56.921875 6.300781 -57.039062 5.8125 -57.1875 C 5.332031 -57.34375 5.09375 -57.539062 5.09375 -57.78125 C 5.09375 -58.207031 5.332031 -58.421875 5.8125 -58.421875 C 6.300781 -58.421875 6.640625 -58.507812 6.828125 -58.6875 C 7.066406 -58.9375 9.398438 -59.0625 13.828125 -59.0625 C 14.492188 -59.0625 15.390625 -59.078125 16.515625 -59.109375 C 17.640625 -59.140625 18.382812 -59.15625 18.75 -59.15625 C 19.113281 -59.15625 19.476562 -59.15625 19.84375 -59.15625 C 20.207031 -59.15625 20.507812 -59.15625 20.75 -59.15625 L 21.015625 -59.0625 C 21.265625 -59 21.390625 -58.847656 21.390625 -58.609375 C 21.390625 -58.304688 21.175781 -57.984375 20.75 -57.640625 C 20.320312 -57.304688 19.867188 -57.140625 19.390625 -57.140625 C 19.078125 -57.140625 18.617188 -56.835938 18.015625 -56.234375 C 17.410156 -55.628906 17.109375 -55.175781 17.109375 -54.875 C 17.109375 -54.570312 17.195312 -54.421875 17.375 -54.421875 C 17.5625 -54.421875 17.71875 -54.117188 17.84375 -53.515625 C 17.957031 -53.023438 18.226562 -52.507812 18.65625 -51.96875 C 18.894531 -51.71875 19.242188 -51.132812 19.703125 -50.21875 C 20.160156 -49.3125 20.476562 -48.769531 20.65625 -48.59375 C 20.84375 -48.351562 21.207031 -47.6875 21.75 -46.59375 C 22.289062 -45.5 22.59375 -44.890625 22.65625 -44.765625 C 22.84375 -44.523438 22.9375 -44.132812 22.9375 -43.59375 C 22.9375 -43.226562 23.023438 -43.046875 23.203125 -43.046875 C 23.441406 -43.046875 23.5625 -42.863281 23.5625 -42.5 C 23.5625 -42.257812 23.863281 -41.742188 24.46875 -40.953125 C 25.082031 -40.160156 25.390625 -39.613281 25.390625 -39.3125 C 25.390625 -39.070312 25.585938 -38.617188 25.984375 -37.953125 C 26.378906 -37.285156 26.578125 -36.796875 26.578125 -36.484375 C 26.578125 -36.304688 26.894531 -35.59375 27.53125 -34.34375 C 28.164062 -33.101562 28.484375 -32.363281 28.484375 -32.125 C 28.484375 -31.820312 28.570312 -31.671875 28.75 -31.671875 C 29 -31.671875 29.125 -31.519531 29.125 -31.21875 C 29.125 -30.550781 29.546875 -29.726562 30.390625 -28.75 C 30.753906 -28.269531 30.9375 -27.9375 30.9375 -27.75 C 30.9375 -27.445312 31.03125 -27.296875 31.21875 -27.296875 C 31.457031 -27.296875 31.578125 -27.113281 31.578125 -26.75 C 31.578125 -26.320312 31.640625 -26.109375 31.765625 -26.109375 C 31.941406 -26.109375 32.363281 -24.867188 33.03125 -22.390625 L 33.484375 -20.9375 L 34.21875 -21.65625 C 34.695312 -22.144531 34.9375 -22.597656 34.9375 -23.015625 C 34.9375 -23.441406 35.023438 -23.65625 35.203125 -23.65625 C 35.390625 -23.65625 35.484375 -23.957031 35.484375 -24.5625 C 35.484375 -25.175781 35.609375 -25.484375 35.859375 -25.484375 C 36.035156 -25.484375 36.125 -25.691406 36.125 -26.109375 C 36.125 -26.535156 36.242188 -26.75 36.484375 -26.75 C 36.671875 -26.75 36.765625 -27.050781 36.765625 -27.65625 C 36.765625 -28.269531 36.851562 -28.578125 37.03125 -28.578125 C 37.28125 -28.578125 37.40625 -28.789062 37.40625 -29.21875 C 37.40625 -29.570312 37.492188 -29.75 37.671875 -29.75 C 37.859375 -29.75 37.953125 -29.960938 37.953125 -30.390625 C 37.953125 -30.816406 38.070312 -31.03125 38.3125 -31.03125 C 38.488281 -31.03125 38.578125 -31.332031 38.578125 -31.9375 C 38.578125 -32.539062 38.703125 -32.84375 38.953125 -32.84375 C 39.128906 -32.84375 39.21875 -33.054688 39.21875 -33.484375 C 39.21875 -33.910156 39.3125 -34.125 39.5 -34.125 C 39.738281 -34.125 39.859375 -34.273438 39.859375 -34.578125 C 39.859375 -34.878906 39.945312 -35.03125 40.125 -35.03125 C 40.375 -35.03125 40.5 -35.273438 40.5 -35.765625 C 40.5 -36.128906 40.585938 -36.429688 40.765625 -36.671875 C 40.953125 -36.910156 41.046875 -37.179688 41.046875 -37.484375 C 41.046875 -37.910156 41.164062 -38.125 41.40625 -38.125 C 41.582031 -38.125 41.671875 -38.304688 41.671875 -38.671875 C 41.671875 -39.097656 41.765625 -39.3125 41.953125 -39.3125 C 42.191406 -39.3125 42.3125 -39.613281 42.3125 -40.21875 C 42.3125 -40.820312 42.40625 -41.125 42.59375 -41.125 C 42.832031 -41.125 42.953125 -41.335938 42.953125 -41.765625 C 42.953125 -42.191406 43.039062 -42.40625 43.21875 -42.40625 C 43.40625 -42.40625 43.5 -42.554688 43.5 -42.859375 C 43.5 -43.160156 43.617188 -43.539062 43.859375 -44 C 44.097656 -44.457031 44.34375 -44.742188 44.59375 -44.859375 C 44.65625 -44.921875 44.789062 -45.46875 45 -46.5 C 45.207031 -47.53125 45.34375 -48.078125 45.40625 -48.140625 C 45.59375 -48.203125 45.6875 -48.441406 45.6875 -48.859375 C 45.6875 -49.046875 45.988281 -49.898438 46.59375 -51.421875 C 46.65625 -51.535156 46.742188 -51.789062 46.859375 -52.1875 C 46.984375 -52.582031 47.078125 -52.84375 47.140625 -52.96875 C 47.503906 -53.8125 47.6875 -54.507812 47.6875 -55.0625 C 47.6875 -56.269531 46.773438 -56.90625 44.953125 -56.96875 C 43.554688 -57.03125 42.859375 -57.300781 42.859375 -57.78125 C 42.859375 -57.96875 43.007812 -58.179688 43.3125 -58.421875 C 43.738281 -58.785156 45.164062 -58.96875 47.59375 -58.96875 C 50.019531 -58.96875 51.234375 -58.875 51.234375 -58.6875 C 51.234375 -58.570312 51.335938 -58.484375 51.546875 -58.421875 C 51.765625 -58.359375 52.007812 -58.375 52.28125 -58.46875 C 52.550781 -58.5625 52.804688 -58.664062 53.046875 -58.78125 C 53.472656 -59.03125 53.804688 -59.03125 54.046875 -58.78125 C 54.296875 -58.539062 55.484375 -58.421875 57.609375 -58.421875 C 59.003906 -58.421875 59.867188 -58.390625 60.203125 -58.328125 C 60.535156 -58.265625 60.703125 -58.082031 60.703125 -57.78125 C 60.703125 -57.351562 60.519531 -57.140625 60.15625 -57.140625 C 59.726562 -57.140625 59.421875 -56.988281 59.234375 -56.6875 C 58.929688 -56.382812 58.144531 -56.234375 56.875 -56.234375 L 54.875 -56.234375 L 54.875 -54.234375 C 54.875 -52.960938 54.753906 -52.082031 54.515625 -51.59375 C 54.265625 -51.164062 54.257812 -50.832031 54.5 -50.59375 C 54.75 -50.351562 54.875 -49.382812 54.875 -47.6875 C 54.875 -46.101562 54.753906 -45.070312 54.515625 -44.59375 C 54.265625 -44.164062 54.265625 -43.863281 54.515625 -43.6875 C 55.117188 -43.257812 55.453125 -39.707031 55.515625 -33.03125 C 55.628906 -28.238281 55.75 -25.78125 55.875 -25.65625 C 56.050781 -25.476562 56.140625 -23.75 56.140625 -20.46875 C 56.140625 -17.320312 56.234375 -15.566406 56.421875 -15.203125 C 56.546875 -14.953125 56.984375 -14.707031 57.734375 -14.46875 C 58.492188 -14.226562 59.117188 -14.109375 59.609375 -14.109375 C 60.023438 -14.109375 60.351562 -14 60.59375 -13.78125 C 60.84375 -13.570312 61.148438 -13.46875 61.515625 -13.46875 C 62.179688 -13.46875 62.332031 -13.164062 61.96875 -12.5625 C 61.789062 -12.3125 60.726562 -12.1875 58.78125 -12.1875 L 56.0625 -12.1875 C 52.238281 -12.3125 50.234375 -12.46875 50.046875 -12.65625 C 49.804688 -12.894531 49.625 -12.863281 49.5 -12.5625 C 49.382812 -12.375 48.71875 -12.28125 47.5 -12.28125 C 46.289062 -12.28125 45.6875 -12.429688 45.6875 -12.734375 C 45.6875 -13.648438 46.535156 -14.109375 48.234375 -14.109375 C 49.378906 -14.109375 49.953125 -14.226562 49.953125 -14.46875 C 49.953125 -14.644531 50.164062 -14.734375 50.59375 -14.734375 C 51.019531 -14.734375 51.234375 -15.222656 51.234375 -16.203125 C 51.234375 -17.234375 51.113281 -17.804688 50.875 -17.921875 C 50.6875 -17.984375 50.59375 -21.472656 50.59375 -28.390625 C 50.59375 -33.734375 50.53125 -36.890625 50.40625 -37.859375 C 50.289062 -38.828125 49.929688 -39.3125 49.328125 -39.3125 C 48.960938 -39.3125 48.78125 -39.523438 48.78125 -39.953125 C 48.78125 -40.378906 48.960938 -40.59375 49.328125 -40.59375 C 49.628906 -40.59375 49.898438 -40.847656 50.140625 -41.359375 C 50.378906 -41.878906 50.5 -42.472656 50.5 -43.140625 L 50.5 -43.59375 C 50.195312 -45.40625 50.046875 -46.554688 50.046875 -47.046875 C 50.046875 -47.410156 50.109375 -47.59375 50.234375 -47.59375 C 50.472656 -47.59375 50.59375 -48.257812 50.59375 -49.59375 C 50.59375 -50.863281 50.472656 -51.625 50.234375 -51.875 C 49.628906 -52.476562 49.328125 -52.351562 49.328125 -51.5 C 49.328125 -51.132812 49.234375 -50.816406 49.046875 -50.546875 C 48.867188 -50.273438 48.78125 -49.957031 48.78125 -49.59375 C 48.78125 -49.101562 48.65625 -48.859375 48.40625 -48.859375 C 48.226562 -48.859375 48.140625 -48.554688 48.140625 -47.953125 C 48.140625 -47.648438 47.925781 -47 47.5 -46 C 47.070312 -45 46.859375 -44.378906 46.859375 -44.140625 C 46.859375 -43.773438 46.765625 -43.59375 46.578125 -43.59375 C 46.398438 -43.59375 46.3125 -43.347656 46.3125 -42.859375 C 46.3125 -42.554688 46.207031 -42.28125 46 -42.03125 C 45.789062 -41.789062 45.6875 -41.488281 45.6875 -41.125 C 45.6875 -40.769531 45.59375 -40.59375 45.40625 -40.59375 C 45.164062 -40.59375 45.046875 -40.378906 45.046875 -39.953125 C 45.046875 -39.703125 44.894531 -39.363281 44.59375 -38.9375 C 44.289062 -38.519531 44.140625 -38.160156 44.140625 -37.859375 C 44.140625 -37.554688 44.03125 -37.265625 43.8125 -36.984375 C 43.601562 -36.710938 43.5 -36.363281 43.5 -35.9375 C 43.5 -35.332031 43.40625 -35.03125 43.21875 -35.03125 C 43.039062 -35.03125 42.953125 -34.878906 42.953125 -34.578125 C 42.953125 -34.273438 42.832031 -34.125 42.59375 -34.125 C 42.40625 -34.125 42.3125 -33.878906 42.3125 -33.390625 C 42.3125 -33.085938 42.097656 -32.601562 41.671875 -31.9375 C 41.253906 -31.269531 41.046875 -30.785156 41.046875 -30.484375 C 41.046875 -29.992188 40.953125 -29.75 40.765625 -29.75 C 40.585938 -29.75 40.5 -29.539062 40.5 -29.125 C 40.5 -28.875 40.285156 -28.382812 39.859375 -27.65625 C 39.429688 -26.9375 39.21875 -26.453125 39.21875 -26.203125 C 39.21875 -25.722656 39.125 -25.484375 38.9375 -25.484375 C 38.757812 -25.484375 38.457031 -24.953125 38.03125 -23.890625 C 37.613281 -22.828125 37.40625 -22.175781 37.40625 -21.9375 C 37.40625 -21.75 37.191406 -21.242188 36.765625 -20.421875 C 36.335938 -19.609375 36.125 -19.109375 36.125 -18.921875 C 36.125 -18.554688 36.035156 -18.375 35.859375 -18.375 C 35.609375 -18.375 35.484375 -18.195312 35.484375 -17.84375 C 35.484375 -17.414062 35.390625 -17.203125 35.203125 -17.203125 C 35.023438 -17.203125 34.9375 -17.050781 34.9375 -16.75 C 34.9375 -16.382812 34.722656 -15.988281 34.296875 -15.5625 C 33.878906 -15.132812 33.609375 -14.585938 33.484375 -13.921875 C 33.367188 -13.253906 33.066406 -12.921875 32.578125 -12.921875 C 32.085938 -12.921875 31.785156 -13.101562 31.671875 -13.46875 C 31.546875 -13.894531 31.390625 -14.109375 31.203125 -14.109375 C 31.023438 -14.109375 30.9375 -14.316406 30.9375 -14.734375 C 30.9375 -15.160156 30.816406 -15.375 30.578125 -15.375 C 30.390625 -15.375 30.296875 -15.554688 30.296875 -15.921875 C 30.296875 -16.222656 30.191406 -16.492188 29.984375 -16.734375 C 29.773438 -16.984375 29.671875 -17.289062 29.671875 -17.65625 C 29.671875 -18.132812 29.578125 -18.375 29.390625 -18.375 C 29.210938 -18.375 29.125 -18.585938 29.125 -19.015625 C 29.125 -19.441406 29 -19.65625 28.75 -19.65625 C 28.570312 -19.65625 28.484375 -19.773438 28.484375 -20.015625 C 28.484375 -20.316406 28.34375 -20.738281 28.0625 -21.28125 C 27.789062 -21.832031 27.597656 -22.109375 27.484375 -22.109375 C 27.296875 -22.109375 27.203125 -22.320312 27.203125 -22.75 C 27.203125 -23.113281 27.113281 -23.296875 26.9375 -23.296875 C 26.695312 -23.296875 26.578125 -23.476562 26.578125 -23.84375 C 26.578125 -24.144531 26.484375 -24.296875 26.296875 -24.296875 C 26.117188 -24.296875 26.03125 -24.414062 26.03125 -24.65625 C 26.03125 -24.90625 25.785156 -25.484375 25.296875 -26.390625 C 24.804688 -27.296875 24.503906 -27.78125 24.390625 -27.84375 C 24.203125 -27.96875 24.109375 -28.210938 24.109375 -28.578125 C 24.109375 -29.003906 24.015625 -29.21875 23.828125 -29.21875 C 23.648438 -29.21875 23.5625 -29.394531 23.5625 -29.75 C 23.5625 -30.175781 23.441406 -30.390625 23.203125 -30.390625 C 23.023438 -30.390625 22.9375 -30.601562 22.9375 -31.03125 C 22.9375 -31.457031 22.84375 -31.703125 22.65625 -31.765625 C 22.539062 -31.816406 22.390625 -32.265625 22.203125 -33.109375 C 22.023438 -33.960938 21.84375 -34.390625 21.65625 -34.390625 C 21.476562 -34.390625 21.390625 -34.691406 21.390625 -35.296875 C 21.390625 -35.910156 21.296875 -36.21875 21.109375 -36.21875 C 20.867188 -36.21875 20.75 -36.460938 20.75 -36.953125 C 20.75 -37.304688 20.65625 -37.617188 20.46875 -37.890625 C 20.289062 -38.171875 20.203125 -38.460938 20.203125 -38.765625 C 20.203125 -39.128906 20.082031 -39.3125 19.84375 -39.3125 C 19.65625 -39.3125 19.5625 -39.523438 19.5625 -39.953125 C 19.5625 -40.378906 19.441406 -40.59375 19.203125 -40.59375 C 19.015625 -40.59375 18.921875 -40.769531 18.921875 -41.125 C 18.921875 -41.550781 18.832031 -41.765625 18.65625 -41.765625 C 18.414062 -41.765625 18.296875 -41.976562 18.296875 -42.40625 C 18.296875 -42.832031 18.203125 -43.046875 18.015625 -43.046875 C 17.835938 -43.046875 17.75 -43.347656 17.75 -43.953125 C 17.75 -44.554688 17.65625 -44.859375 17.46875 -44.859375 C 17.351562 -44.859375 17.113281 -45.222656 16.75 -45.953125 C 16.382812 -46.679688 16.171875 -47.046875 16.109375 -47.046875 C 15.921875 -47.046875 15.828125 -47.226562 15.828125 -47.59375 C 15.828125 -48.019531 15.738281 -48.234375 15.5625 -48.234375 C 15.320312 -48.234375 15.203125 -48.441406 15.203125 -48.859375 C 15.203125 -49.285156 15.109375 -49.5 14.921875 -49.5 C 14.742188 -49.5 14.65625 -49.679688 14.65625 -50.046875 C 14.65625 -50.472656 14.53125 -50.6875 14.28125 -50.6875 C 14.101562 -50.6875 14.015625 -50.898438 14.015625 -51.328125 Z M 14.015625 -51.328125 "/></g></g></g><g fill="#ffffff" fill-opacity="1"><g transform="translate(252.104247, 60.748186)"><g><path d="M 31.21875 -52.046875 C 31.21875 -52.410156 31.003906 -52.878906 30.578125 -53.453125 C 30.148438 -54.035156 29.753906 -54.328125 29.390625 -54.328125 C 29.085938 -54.328125 28.800781 -54.144531 28.53125 -53.78125 C 28.257812 -53.414062 28.125 -53.050781 28.125 -52.6875 C 28.125 -52.382812 28.03125 -52.234375 27.84375 -52.234375 C 27.664062 -52.234375 27.515625 -51.78125 27.390625 -50.875 C 27.210938 -49.84375 26.632812 -48.320312 25.65625 -46.3125 C 25.476562 -46.007812 25.390625 -45.675781 25.390625 -45.3125 C 25.390625 -45.007812 25.269531 -44.859375 25.03125 -44.859375 C 24.84375 -44.859375 24.75 -44.644531 24.75 -44.21875 C 24.75 -43.800781 24.660156 -43.59375 24.484375 -43.59375 C 24.234375 -43.59375 24.109375 -43.347656 24.109375 -42.859375 C 24.109375 -42.617188 23.910156 -42.191406 23.515625 -41.578125 C 23.128906 -40.972656 22.9375 -40.519531 22.9375 -40.21875 C 22.9375 -39.789062 22.8125 -39.578125 22.5625 -39.578125 C 22.382812 -39.578125 22.296875 -39.394531 22.296875 -39.03125 C 22.296875 -38.613281 22.203125 -38.40625 22.015625 -38.40625 C 21.773438 -38.40625 21.65625 -38.191406 21.65625 -37.765625 C 21.65625 -37.335938 21.566406 -37.125 21.390625 -37.125 C 21.140625 -37.125 21.015625 -36.972656 21.015625 -36.671875 C 21.015625 -36.429688 20.816406 -35.882812 20.421875 -35.03125 C 20.035156 -34.1875 19.84375 -33.671875 19.84375 -33.484375 C 19.84375 -33.304688 19.71875 -33.050781 19.46875 -32.71875 C 19.226562 -32.382812 19.171875 -32.125 19.296875 -31.9375 C 19.535156 -31.695312 20.171875 -31.578125 21.203125 -31.578125 C 22.359375 -31.578125 22.9375 -31.695312 22.9375 -31.9375 C 22.9375 -32.125 23.632812 -32.21875 25.03125 -32.21875 C 26.476562 -32.21875 27.203125 -32.125 27.203125 -31.9375 C 27.203125 -31.695312 27.65625 -31.578125 28.5625 -31.578125 C 29.476562 -31.578125 29.9375 -31.695312 29.9375 -31.9375 C 29.9375 -32.125 31.726562 -32.21875 35.3125 -32.21875 C 36.644531 -32.21875 37.644531 -32.21875 38.3125 -32.21875 C 38.976562 -32.21875 39.507812 -32.242188 39.90625 -32.296875 C 40.300781 -32.359375 40.539062 -32.421875 40.625 -32.484375 C 40.71875 -32.546875 40.765625 -32.664062 40.765625 -32.84375 C 40.765625 -33.09375 40.675781 -33.304688 40.5 -33.484375 C 40.3125 -33.546875 39.988281 -34.03125 39.53125 -34.9375 C 39.082031 -35.851562 38.859375 -36.460938 38.859375 -36.765625 C 38.859375 -37.003906 38.765625 -37.125 38.578125 -37.125 C 38.460938 -37.125 38.3125 -37.53125 38.125 -38.34375 C 37.945312 -39.164062 37.765625 -39.578125 37.578125 -39.578125 C 37.398438 -39.578125 37.3125 -39.789062 37.3125 -40.21875 C 37.3125 -40.707031 37.128906 -41.132812 36.765625 -41.5 C 36.335938 -41.925781 36.125 -42.289062 36.125 -42.59375 C 36.125 -42.707031 35.910156 -43.1875 35.484375 -44.03125 C 35.066406 -44.882812 34.859375 -45.40625 34.859375 -45.59375 C 34.859375 -45.894531 34.765625 -46.046875 34.578125 -46.046875 C 34.398438 -46.046875 34.3125 -46.257812 34.3125 -46.6875 C 34.3125 -46.925781 34.21875 -47.132812 34.03125 -47.3125 C 33.851562 -47.4375 33.1875 -48.625 32.03125 -50.875 C 31.789062 -51.351562 31.609375 -51.59375 31.484375 -51.59375 C 31.304688 -51.59375 31.21875 -51.742188 31.21875 -52.046875 Z M 22.9375 -46.046875 C 22.9375 -46.347656 23.023438 -46.617188 23.203125 -46.859375 C 23.390625 -47.109375 23.484375 -47.414062 23.484375 -47.78125 C 23.484375 -48.257812 23.601562 -48.5 23.84375 -48.5 C 24.019531 -48.5 24.109375 -48.769531 24.109375 -49.3125 C 24.109375 -49.863281 24.320312 -50.351562 24.75 -50.78125 C 25.175781 -51.207031 25.390625 -51.539062 25.390625 -51.78125 C 25.390625 -52.019531 25.660156 -52.6875 26.203125 -53.78125 C 26.816406 -55.050781 27.179688 -56.113281 27.296875 -56.96875 C 27.421875 -58 27.601562 -58.632812 27.84375 -58.875 C 28.03125 -59.113281 28.847656 -59.234375 30.296875 -59.234375 C 31.328125 -59.234375 31.84375 -59.140625 31.84375 -58.953125 C 31.84375 -58.773438 32.117188 -58.6875 32.671875 -58.6875 C 33.273438 -58.6875 33.726562 -58.382812 34.03125 -57.78125 C 34.269531 -57.113281 34.484375 -56.78125 34.671875 -56.78125 C 34.796875 -56.78125 34.859375 -56.597656 34.859375 -56.234375 C 34.859375 -55.804688 34.976562 -55.59375 35.21875 -55.59375 C 35.394531 -55.59375 35.484375 -55.378906 35.484375 -54.953125 C 35.484375 -54.535156 35.609375 -54.328125 35.859375 -54.328125 C 36.035156 -54.328125 36.125 -54.207031 36.125 -53.96875 C 36.125 -53.78125 36.320312 -53.410156 36.71875 -52.859375 C 37.113281 -52.316406 37.3125 -51.988281 37.3125 -51.875 C 37.3125 -51.6875 37.398438 -51.59375 37.578125 -51.59375 C 37.640625 -51.59375 37.972656 -50.679688 38.578125 -48.859375 C 38.640625 -48.804688 38.71875 -48.671875 38.8125 -48.453125 C 38.90625 -48.242188 39.007812 -47.988281 39.125 -47.6875 C 39.25 -47.382812 39.375 -47.140625 39.5 -46.953125 C 39.613281 -46.710938 39.804688 -46.347656 40.078125 -45.859375 C 40.359375 -45.378906 40.53125 -45.078125 40.59375 -44.953125 C 40.832031 -44.460938 41.007812 -44.21875 41.125 -44.21875 C 41.25 -44.21875 41.3125 -44.066406 41.3125 -43.765625 C 41.3125 -43.585938 41.523438 -43.191406 41.953125 -42.578125 C 42.378906 -41.972656 42.59375 -41.582031 42.59375 -41.40625 C 42.59375 -41.039062 42.679688 -40.859375 42.859375 -40.859375 C 43.097656 -40.859375 43.21875 -40.644531 43.21875 -40.21875 C 43.21875 -39.789062 43.304688 -39.578125 43.484375 -39.578125 C 43.671875 -39.578125 43.765625 -39.394531 43.765625 -39.03125 C 43.765625 -38.613281 43.890625 -38.40625 44.140625 -38.40625 C 44.316406 -38.40625 44.40625 -38.191406 44.40625 -37.765625 C 44.40625 -37.335938 44.523438 -37.125 44.765625 -37.125 C 44.953125 -37.125 45.046875 -36.941406 45.046875 -36.578125 C 45.046875 -36.210938 45.132812 -35.972656 45.3125 -35.859375 C 45.4375 -35.859375 45.742188 -35.367188 46.234375 -34.390625 C 46.953125 -32.941406 47.492188 -31.910156 47.859375 -31.296875 C 47.984375 -30.992188 48.226562 -30.554688 48.59375 -29.984375 C 48.957031 -29.410156 49.171875 -29.03125 49.234375 -28.84375 C 49.535156 -28.363281 49.6875 -27.941406 49.6875 -27.578125 C 49.6875 -27.328125 49.773438 -27.082031 49.953125 -26.84375 C 50.140625 -26.601562 50.234375 -26.300781 50.234375 -25.9375 C 50.234375 -25.382812 50.351562 -25.109375 50.59375 -25.109375 C 50.78125 -25.109375 50.875 -24.957031 50.875 -24.65625 C 50.875 -24.476562 51.175781 -23.890625 51.78125 -22.890625 C 52.382812 -21.890625 52.6875 -21.328125 52.6875 -21.203125 C 52.6875 -21.078125 52.988281 -20.53125 53.59375 -19.5625 C 54.019531 -18.832031 54.445312 -18.078125 54.875 -17.296875 C 55.175781 -16.617188 55.507812 -16.28125 55.875 -16.28125 C 56.238281 -16.28125 56.539062 -16.066406 56.78125 -15.640625 C 57.019531 -15.222656 57.625 -15.015625 58.59375 -15.015625 C 59.570312 -15.015625 60.117188 -14.921875 60.234375 -14.734375 C 60.359375 -14.492188 60.695312 -14.375 61.25 -14.375 C 61.726562 -14.375 62.023438 -14.222656 62.140625 -13.921875 C 62.265625 -13.617188 62.175781 -13.316406 61.875 -13.015625 C 61.570312 -12.710938 60.175781 -12.5625 57.6875 -12.5625 C 55.207031 -12.5625 53.96875 -12.4375 53.96875 -12.1875 C 53.96875 -12.007812 53.660156 -11.921875 53.046875 -11.921875 C 52.441406 -11.921875 52.140625 -12.039062 52.140625 -12.28125 C 52.140625 -12.46875 51.65625 -12.5625 50.6875 -12.5625 C 49.78125 -12.5625 49.328125 -12.46875 49.328125 -12.28125 C 49.328125 -12.101562 49.019531 -12.015625 48.40625 -12.015625 C 47.800781 -12.015625 47.4375 -12.101562 47.3125 -12.28125 C 47.195312 -12.46875 46.773438 -12.5625 46.046875 -12.5625 C 45.378906 -12.5625 45.046875 -12.742188 45.046875 -13.109375 C 45.046875 -13.953125 45.5 -14.375 46.40625 -14.375 C 46.707031 -14.375 46.992188 -14.476562 47.265625 -14.6875 C 47.546875 -14.90625 47.835938 -15.015625 48.140625 -15.015625 C 48.566406 -15.015625 48.78125 -15.285156 48.78125 -15.828125 C 48.78125 -16.554688 48.234375 -17.984375 47.140625 -20.109375 C 44.523438 -24.960938 43.21875 -27.691406 43.21875 -28.296875 C 43.21875 -28.660156 43.125 -28.84375 42.9375 -28.84375 C 42.757812 -28.84375 42.609375 -29.082031 42.484375 -29.5625 C 42.367188 -30.050781 42.097656 -30.328125 41.671875 -30.390625 L 40.859375 -30.390625 C 40.066406 -30.390625 36.273438 -30.332031 29.484375 -30.21875 C 26.628906 -30.15625 24.488281 -30.109375 23.0625 -30.078125 C 21.644531 -30.046875 20.523438 -30 19.703125 -29.9375 C 18.878906 -29.875 18.390625 -29.8125 18.234375 -29.75 C 18.085938 -29.695312 18.015625 -29.578125 18.015625 -29.390625 C 18.015625 -29.148438 17.90625 -28.921875 17.6875 -28.703125 C 17.476562 -28.492188 17.375 -28.238281 17.375 -27.9375 C 17.375 -27.570312 17.253906 -27.144531 17.015625 -26.65625 C 16.648438 -25.8125 16.300781 -24.828125 15.96875 -23.703125 C 15.632812 -22.578125 15.253906 -21.625 14.828125 -20.84375 C 14.648438 -20.539062 14.5625 -20.144531 14.5625 -19.65625 C 14.5625 -19.226562 14.46875 -19.015625 14.28125 -19.015625 C 14.101562 -19.015625 14.015625 -18.710938 14.015625 -18.109375 C 14.015625 -17.441406 14.117188 -16.757812 14.328125 -16.0625 C 14.546875 -15.363281 14.804688 -15.015625 15.109375 -15.015625 C 15.285156 -15.015625 15.539062 -14.800781 15.875 -14.375 C 16.207031 -13.945312 16.492188 -13.734375 16.734375 -13.734375 C 16.984375 -13.734375 17.195312 -13.597656 17.375 -13.328125 C 17.5625 -13.054688 17.59375 -12.859375 17.46875 -12.734375 C 17.351562 -12.617188 15.351562 -12.5625 11.46875 -12.5625 C 8.675781 -12.5625 6.988281 -12.585938 6.40625 -12.640625 C 5.832031 -12.703125 5.488281 -12.859375 5.375 -13.109375 C 5.0625 -13.585938 4.984375 -13.914062 5.140625 -14.09375 C 5.296875 -14.28125 5.675781 -14.375 6.28125 -14.375 C 6.757812 -14.375 7.164062 -14.476562 7.5 -14.6875 C 7.84375 -14.90625 8.164062 -15.015625 8.46875 -15.015625 C 8.707031 -15.015625 8.945312 -15.164062 9.1875 -15.46875 C 9.4375 -15.769531 9.679688 -16.132812 9.921875 -16.5625 C 10.160156 -16.988281 10.3125 -17.234375 10.375 -17.296875 C 10.738281 -17.773438 10.921875 -18.109375 10.921875 -18.296875 C 10.921875 -18.597656 11.007812 -18.75 11.1875 -18.75 C 11.4375 -18.75 11.5625 -18.835938 11.5625 -19.015625 C 11.5625 -19.203125 11.753906 -19.582031 12.140625 -20.15625 C 12.535156 -20.726562 12.734375 -21.140625 12.734375 -21.390625 C 12.734375 -21.867188 12.859375 -22.109375 13.109375 -22.109375 C 13.285156 -22.109375 13.375 -22.289062 13.375 -22.65625 C 13.375 -23.082031 13.46875 -23.296875 13.65625 -23.296875 C 13.894531 -23.296875 14.015625 -23.503906 14.015625 -23.921875 C 14.015625 -24.347656 14.101562 -24.5625 14.28125 -24.5625 C 14.46875 -24.5625 14.5625 -24.867188 14.5625 -25.484375 C 14.5625 -25.847656 14.664062 -26.164062 14.875 -26.4375 C 15.09375 -26.707031 15.203125 -26.992188 15.203125 -27.296875 C 15.203125 -27.597656 15.351562 -28.128906 15.65625 -28.890625 C 15.957031 -29.648438 16.109375 -30.242188 16.109375 -30.671875 C 16.109375 -31.273438 16.195312 -31.578125 16.375 -31.578125 C 16.5625 -31.578125 16.972656 -32.210938 17.609375 -33.484375 C 18.242188 -34.765625 18.5625 -35.554688 18.5625 -35.859375 C 18.5625 -36.097656 18.773438 -36.640625 19.203125 -37.484375 C 19.628906 -38.335938 19.84375 -38.945312 19.84375 -39.3125 C 19.84375 -39.914062 19.929688 -40.21875 20.109375 -40.21875 C 20.347656 -40.21875 20.46875 -40.367188 20.46875 -40.671875 C 20.46875 -40.972656 20.53125 -41.125 20.65625 -41.125 C 20.84375 -41.125 21.054688 -41.410156 21.296875 -41.984375 C 21.535156 -42.566406 21.65625 -43.070312 21.65625 -43.5 C 21.65625 -43.976562 21.773438 -44.21875 22.015625 -44.21875 C 22.203125 -44.21875 22.296875 -44.429688 22.296875 -44.859375 C 22.296875 -45.222656 22.382812 -45.40625 22.5625 -45.40625 C 22.8125 -45.40625 22.9375 -45.617188 22.9375 -46.046875 Z M 22.9375 -46.046875 "/></g></g></g><g fill="#ffffff" fill-opacity="1"><g transform="translate(319.245893, 60.748186)"><g><path d="M 13.015625 -22.5625 C 13.191406 -22.5625 13.28125 -22.648438 13.28125 -22.828125 C 13.28125 -23.015625 13.191406 -23.109375 13.015625 -23.109375 C 12.773438 -23.109375 12.65625 -23.015625 12.65625 -22.828125 C 12.65625 -22.648438 12.773438 -22.5625 13.015625 -22.5625 Z M 18.109375 -56.78125 C 18.472656 -56.78125 18.789062 -56.882812 19.0625 -57.09375 C 19.332031 -57.3125 19.617188 -57.421875 19.921875 -57.421875 C 20.347656 -57.421875 20.625 -57.507812 20.75 -57.6875 C 20.8125 -57.8125 21.375 -57.945312 22.4375 -58.09375 C 23.5 -58.25 24.585938 -58.382812 25.703125 -58.5 C 26.828125 -58.625 27.421875 -58.6875 27.484375 -58.6875 C 27.785156 -58.875 28.238281 -58.90625 28.84375 -58.78125 C 29.03125 -58.78125 29.5 -58.71875 30.25 -58.59375 C 31.007812 -58.476562 31.570312 -58.390625 31.9375 -58.328125 C 33.394531 -58.085938 34.394531 -57.664062 34.9375 -57.0625 C 35.550781 -56.445312 36.039062 -56.140625 36.40625 -56.140625 C 36.820312 -56.140625 37.640625 -55.535156 38.859375 -54.328125 C 40.128906 -53.054688 40.796875 -52.421875 40.859375 -52.421875 C 40.984375 -52.421875 41.046875 -53.359375 41.046875 -55.234375 C 41.046875 -57.296875 41.410156 -58.328125 42.140625 -58.328125 C 42.253906 -58.328125 42.613281 -58.269531 43.21875 -58.15625 C 43.644531 -58.09375 43.90625 -57.953125 44 -57.734375 C 44.09375 -57.523438 44.140625 -56.875 44.140625 -55.78125 L 44.140625 -52.5 C 44.140625 -45.832031 44.015625 -42.4375 43.765625 -42.3125 C 43.585938 -42.25 43.5 -41.914062 43.5 -41.3125 C 43.5 -40.707031 43.347656 -40.40625 43.046875 -40.40625 C 42.128906 -40.40625 41.671875 -41.375 41.671875 -43.3125 C 41.671875 -44.644531 41.582031 -45.3125 41.40625 -45.3125 C 41.164062 -45.3125 41.046875 -45.4375 41.046875 -45.6875 C 41.046875 -45.863281 40.832031 -46.285156 40.40625 -46.953125 C 39.976562 -47.617188 39.675781 -47.984375 39.5 -48.046875 C 39.3125 -48.171875 39.21875 -48.351562 39.21875 -48.59375 C 39.21875 -48.957031 38.582031 -49.773438 37.3125 -51.046875 C 35.675781 -52.691406 34.675781 -53.722656 34.3125 -54.140625 C 33.644531 -54.867188 33.128906 -55.175781 32.765625 -55.0625 C 32.335938 -54.9375 32.125 -54.992188 32.125 -55.234375 C 32.125 -55.421875 31.820312 -55.515625 31.21875 -55.515625 C 30.664062 -55.515625 30.269531 -55.632812 30.03125 -55.875 C 29.96875 -55.9375 29.785156 -55.96875 29.484375 -55.96875 C 27.421875 -55.96875 25.90625 -55.722656 24.9375 -55.234375 C 24.632812 -55.054688 24.300781 -54.96875 23.9375 -54.96875 C 23.445312 -54.96875 22.625 -54.601562 21.46875 -53.875 C 20.320312 -53.144531 19.71875 -52.78125 19.65625 -52.78125 C 18.925781 -52.414062 17.894531 -51.535156 16.5625 -50.140625 C 15.226562 -48.742188 14.5625 -47.832031 14.5625 -47.40625 C 14.5625 -47.226562 14.347656 -47 13.921875 -46.71875 C 13.492188 -46.445312 13.28125 -46.191406 13.28125 -45.953125 C 13.28125 -45.523438 13.070312 -44.945312 12.65625 -44.21875 C 12.226562 -43.4375 11.953125 -42.40625 11.828125 -41.125 C 11.703125 -39.851562 11.550781 -39.21875 11.375 -39.21875 C 11.195312 -39.21875 11.109375 -38.035156 11.109375 -35.671875 C 11.109375 -33.304688 11.195312 -32.125 11.375 -32.125 C 11.4375 -32.125 11.539062 -31.804688 11.6875 -31.171875 C 11.84375 -30.535156 11.992188 -29.878906 12.140625 -29.203125 C 12.296875 -28.535156 12.375 -28.175781 12.375 -28.125 C 12.976562 -26.90625 13.28125 -26.175781 13.28125 -25.9375 C 13.28125 -25.695312 13.550781 -25.253906 14.09375 -24.609375 C 14.644531 -23.972656 15.269531 -23.273438 15.96875 -22.515625 C 16.664062 -21.765625 17.109375 -21.265625 17.296875 -21.015625 C 18.742188 -19.140625 19.710938 -18.203125 20.203125 -18.203125 C 20.503906 -18.203125 20.65625 -18.109375 20.65625 -17.921875 C 20.65625 -17.804688 20.972656 -17.566406 21.609375 -17.203125 C 22.242188 -16.835938 22.5625 -16.625 22.5625 -16.5625 C 22.6875 -16.375 23.035156 -16.398438 23.609375 -16.640625 C 24.191406 -16.890625 24.507812 -16.925781 24.5625 -16.75 C 24.6875 -16.5 24.988281 -16.375 25.46875 -16.375 C 25.957031 -16.375 26.265625 -16.253906 26.390625 -16.015625 C 26.515625 -15.835938 26.984375 -15.75 27.796875 -15.75 C 28.617188 -15.75 29.03125 -15.835938 29.03125 -16.015625 C 29.03125 -16.253906 29.515625 -16.375 30.484375 -16.375 C 31.515625 -16.375 32.148438 -16.5 32.390625 -16.75 C 32.515625 -16.863281 32.695312 -16.875 32.9375 -16.78125 C 33.1875 -16.695312 33.367188 -16.609375 33.484375 -16.515625 C 33.609375 -16.421875 33.734375 -16.46875 33.859375 -16.65625 C 33.972656 -16.894531 34.269531 -17.015625 34.75 -17.015625 C 35.238281 -17.015625 35.484375 -17.101562 35.484375 -17.28125 C 35.484375 -17.46875 35.632812 -17.5625 35.9375 -17.5625 C 36.25 -17.5625 36.875 -18.03125 37.8125 -18.96875 C 38.75 -19.914062 39.21875 -20.539062 39.21875 -20.84375 C 39.21875 -21.144531 39.3125 -21.296875 39.5 -21.296875 C 39.738281 -21.296875 39.859375 -21.535156 39.859375 -22.015625 C 39.859375 -22.628906 39.945312 -22.960938 40.125 -23.015625 C 40.3125 -23.078125 40.40625 -24.445312 40.40625 -27.125 C 40.40625 -29.488281 40.296875 -30.910156 40.078125 -31.390625 C 39.867188 -31.878906 39.28125 -32.125 38.3125 -32.125 C 37.644531 -32.125 37.050781 -32.289062 36.53125 -32.625 C 36.019531 -32.957031 35.765625 -33.367188 35.765625 -33.859375 C 35.765625 -34.097656 35.796875 -34.273438 35.859375 -34.390625 C 36.273438 -35.367188 36.726562 -35.523438 37.21875 -34.859375 C 37.28125 -34.671875 38.765625 -34.578125 41.671875 -34.578125 C 44.460938 -34.578125 45.984375 -34.457031 46.234375 -34.21875 C 46.597656 -33.976562 46.804688 -33.976562 46.859375 -34.21875 C 46.984375 -34.457031 47.347656 -34.578125 47.953125 -34.578125 C 48.316406 -34.578125 48.726562 -34.425781 49.1875 -34.125 C 49.644531 -33.820312 49.875 -33.488281 49.875 -33.125 C 49.875 -32.9375 49.78125 -32.753906 49.59375 -32.578125 C 49.289062 -32.273438 48.835938 -32.125 48.234375 -32.125 C 47.679688 -32.125 46.960938 -31.710938 46.078125 -30.890625 C 45.203125 -30.078125 44.765625 -29.394531 44.765625 -28.84375 C 44.765625 -28.539062 44.644531 -28.390625 44.40625 -28.390625 C 44.226562 -28.390625 44.140625 -26.875 44.140625 -23.84375 C 44.140625 -19.65625 43.710938 -17.5625 42.859375 -17.5625 C 42.679688 -17.5625 42.347656 -17.257812 41.859375 -16.65625 C 41.367188 -16.050781 41.003906 -15.75 40.765625 -15.75 C 40.523438 -15.75 40.113281 -15.535156 39.53125 -15.109375 C 38.957031 -14.679688 38.582031 -14.46875 38.40625 -14.46875 C 38.101562 -14.46875 37.953125 -14.375 37.953125 -14.1875 C 37.953125 -14.007812 37.644531 -13.921875 37.03125 -13.921875 C 36.425781 -13.921875 36.0625 -13.800781 35.9375 -13.5625 C 35.882812 -13.375 35.367188 -13.28125 34.390625 -13.28125 C 33.421875 -13.28125 32.90625 -13.1875 32.84375 -13 C 32.789062 -12.820312 32.15625 -12.734375 30.9375 -12.734375 C 29.363281 -12.734375 28.425781 -12.859375 28.125 -13.109375 C 27.695312 -13.347656 27.390625 -13.347656 27.203125 -13.109375 C 27.023438 -12.804688 26.238281 -12.773438 24.84375 -13.015625 C 23.082031 -13.253906 21.6875 -13.648438 20.65625 -14.203125 C 20.351562 -14.378906 19.957031 -14.46875 19.46875 -14.46875 C 19.050781 -14.46875 18.84375 -14.585938 18.84375 -14.828125 C 18.84375 -15.015625 18.628906 -15.109375 18.203125 -15.109375 C 17.835938 -15.109375 17.65625 -15.226562 17.65625 -15.46875 C 17.65625 -15.65625 17.503906 -15.75 17.203125 -15.75 C 17.078125 -15.75 16.617188 -16.050781 15.828125 -16.65625 C 15.046875 -17.257812 14.5625 -17.5625 14.375 -17.5625 C 14.070312 -17.5625 13.921875 -17.679688 13.921875 -17.921875 C 13.921875 -18.109375 13.796875 -18.203125 13.546875 -18.203125 C 13.304688 -18.203125 12.941406 -18.425781 12.453125 -18.875 C 11.972656 -19.332031 11.734375 -19.679688 11.734375 -19.921875 C 11.734375 -20.285156 11.429688 -20.773438 10.828125 -21.390625 C 10.222656 -22.117188 9.921875 -22.507812 9.921875 -22.5625 C 9.921875 -22.6875 9.800781 -22.929688 9.5625 -23.296875 C 8.53125 -24.328125 8.015625 -25.054688 8.015625 -25.484375 C 8.015625 -25.785156 7.921875 -25.9375 7.734375 -25.9375 C 7.554688 -25.9375 7.46875 -26.148438 7.46875 -26.578125 C 7.46875 -26.941406 7.34375 -27.125 7.09375 -27.125 C 6.914062 -27.125 6.828125 -27.394531 6.828125 -27.9375 C 6.828125 -28.425781 6.707031 -28.726562 6.46875 -28.84375 C 6.28125 -28.90625 6.1875 -29.484375 6.1875 -30.578125 C 6.1875 -31.609375 6.09375 -32.125 5.90625 -32.125 C 5.726562 -32.125 5.546875 -32.472656 5.359375 -33.171875 C 5.179688 -33.867188 5.09375 -34.488281 5.09375 -35.03125 C 5.09375 -35.332031 5.125 -35.515625 5.1875 -35.578125 C 5.425781 -36.066406 5.546875 -37.3125 5.546875 -39.3125 C 5.546875 -40.039062 5.5625 -40.601562 5.59375 -41 C 5.625 -41.394531 5.671875 -41.769531 5.734375 -42.125 C 5.796875 -42.488281 5.851562 -42.75 5.90625 -42.90625 C 5.96875 -43.0625 6.101562 -43.347656 6.3125 -43.765625 C 6.53125 -44.191406 6.703125 -44.554688 6.828125 -44.859375 C 7.304688 -45.953125 7.640625 -46.5 7.828125 -46.5 C 7.953125 -46.625 8.015625 -46.804688 8.015625 -47.046875 C 8.015625 -47.347656 8.101562 -47.53125 8.28125 -47.59375 C 8.34375 -47.65625 8.765625 -48.15625 9.546875 -49.09375 C 10.335938 -50.03125 10.765625 -50.53125 10.828125 -50.59375 C 10.890625 -50.65625 11.023438 -50.898438 11.234375 -51.328125 C 11.453125 -51.753906 11.695312 -52.144531 11.96875 -52.5 C 12.238281 -52.863281 12.46875 -53.046875 12.65625 -53.046875 C 12.894531 -53.046875 13.410156 -53.378906 14.203125 -54.046875 C 16.265625 -55.867188 17.566406 -56.78125 18.109375 -56.78125 Z M 18.109375 -56.78125 "/></g></g></g></g></g></g></svg>